<svg xmlns="http://www.w3.org/2000/svg" width="34.731" height="27" viewBox="0 0 34.731 27">
  <defs>
    <style>
      .cls-1 {
        fill: #9aa4c7;
      }
    </style>
  </defs>
  <path id="ico_menu2" class="cls-1" d="M732.528,336.52l1.9,0a1.781,1.781,0,0,0,.567.064l1.409.166,1.9.482,1.807.723,1.013.549,1.061.7a11.3,11.3,0,0,1,2.807,3.11c.016.124.111.129.206.141.288.036.576.076.865.114l1.894.475,1.908.777.4.19a.748.748,0,0,0,.312.184.051.051,0,0,0,.055.024l1.208.79a14.892,14.892,0,0,1,1.416,1.253,3.445,3.445,0,0,0,.5.551l.888,1.287a11.757,11.757,0,0,1,.789,1.9l.139.637.1,1.332a7.742,7.742,0,0,1-.614,2.946c-.126.29-.268.573-.4.859l-.911,1.326-.585.641c-.121.075-.138.161-.065.291a7.5,7.5,0,0,0,.658,1.064,3.063,3.063,0,0,0,.417.643,7.3,7.3,0,0,0,.947,1.219,1.671,1.671,0,0,1,.47,1.733,2.021,2.021,0,0,1-.847.774,5.2,5.2,0,0,1-.983.052c-.3-.028-.6-.057-.905-.083a15.459,15.459,0,0,1-2.978-.663l-1.817-.8a2.96,2.96,0,0,0-.644-.344,1.188,1.188,0,0,0-1.417-.271l-1.06.147-.844.066-1.91.005c-.409-.042-.817-.08-1.225-.127a22.25,22.25,0,0,1-2.545-.544l-2.009-.814-.98-.521-1-.675-1.325-1.15-.571-.644-.922-1.325c-.316-.207-.7-.124-1.034-.246a1.245,1.245,0,0,0-1.374.314l-.644.345-1.817.8c-.406.115-.811.232-1.217.345a14.748,14.748,0,0,1-2.669.4,4.649,4.649,0,0,1-.981-.052,2.027,2.027,0,0,1-.835-.779,1.955,1.955,0,0,1,0-1.121c.463-.653,1.045-1.215,1.458-1.906a2.266,2.266,0,0,0,.366-.564,8.828,8.828,0,0,0,.67-1.106c.057-.1.061-.174-.048-.232l-.611-.667-.914-1.317a8.294,8.294,0,0,1-1.018-3.8l.066-1.058.007-.069.016-.14a2.31,2.31,0,0,0,.137-.707,20.269,20.269,0,0,1,.789-1.9l.9-1.286a3.515,3.515,0,0,1,.531-.61l1.382-1.268a7.934,7.934,0,0,0,1.194-.719h0a1.849,1.849,0,0,0,.5-.28.521.521,0,0,0,.28-.137l1.9-.782,1.905-.457,1.336-.188Zm2.812,19.258a4.551,4.551,0,0,0,1.058.878,7.615,7.615,0,0,0,1.9,1.059l.125.048a6.29,6.29,0,0,0,1.789.569,7.677,7.677,0,0,0,1.978.318,11.853,11.853,0,0,0,1.907,0,10.637,10.637,0,0,0,1.9-.281,3.521,3.521,0,0,0,.41-.082,1.356,1.356,0,0,1,1.491.167,9.908,9.908,0,0,0,1.977,1.136,4.16,4.16,0,0,0,1.036.436l-1.024-1.952-.16-.326a.552.552,0,0,1,.145-.862A11.744,11.744,0,0,0,751,355.773a4.2,4.2,0,0,0,.862-1.035,2.546,2.546,0,0,0,.431-.772,4.116,4.116,0,0,0,.472-2,4.209,4.209,0,0,0-.43-1.973,2.4,2.4,0,0,0-.484-.841,3.993,3.993,0,0,0-.905-1.069,5.044,5.044,0,0,0-1.059-.86,7.066,7.066,0,0,0-1.823-.983.57.57,0,0,0-.3-.123,5.724,5.724,0,0,0-1.212-.417c-.624-.175-.626-.167-.494.483a.8.8,0,0,0-.039.169,7.86,7.86,0,0,1-1.005,3.639l-.919,1.333-.572.637-1.344,1.171-1.134.728-.825.445-1.906.764-1.907.488c-.265.028-.531.046-.793.09C735.518,355.663,735.365,355.6,735.34,355.778Zm-4.732-3.206a8.344,8.344,0,0,0,1.918.287,11.409,11.409,0,0,0,1.907.012,9.461,9.461,0,0,0,1.986-.311,7.419,7.419,0,0,0,1.683-.518l.209-.087a7.678,7.678,0,0,0,1.909-1.037,5.493,5.493,0,0,0,1.123-.926,4.052,4.052,0,0,0,.856-1.033,2.579,2.579,0,0,0,.5-.867,4.111,4.111,0,0,0,.418-1.908,4.207,4.207,0,0,0-.424-1.979,2.547,2.547,0,0,0-.5-.855,4.213,4.213,0,0,0-.982-1.141,3.748,3.748,0,0,0-1-.817,8.085,8.085,0,0,0-1.893-1.033l-.216-.039c-.027-.035-.048-.091-.083-.1a9,9,0,0,0-1.613-.459,9.126,9.126,0,0,0-1.98-.319,12.584,12.584,0,0,0-1.9,0,9.579,9.579,0,0,0-1.914.3,7.753,7.753,0,0,0-2.036.657,7.538,7.538,0,0,0-1.835,1,4.674,4.674,0,0,0-1.087.892,4.314,4.314,0,0,0-.889,1.07,2.729,2.729,0,0,0-.488.847,4.232,4.232,0,0,0-.424,1.973,4.125,4.125,0,0,0,.472,2,2.584,2.584,0,0,0,.422.761,4.118,4.118,0,0,0,.9,1.056,13.186,13.186,0,0,0,1.085,1.071c.3.245.458.52.18.883a1.133,1.133,0,0,0-.186.4l-1.015,1.893a4.452,4.452,0,0,0,1.032-.431,9.972,9.972,0,0,0,1.977-1.144,1.356,1.356,0,0,1,1.477-.185A3.52,3.52,0,0,0,730.608,352.572Z" transform="translate(-720.946 -336.517)"/>
</svg>
