<svg xmlns="http://www.w3.org/2000/svg" width="21" height="13.846" viewBox="0 0 21 13.846">
  <defs>
    <style>
      .cls-1 {
        fill: #999;
      }
    </style>
  </defs>
  <g id="ico_view" transform="translate(-337.872 -327.501)">
    <path id="패스_29" data-name="패스 29" class="cls-1" d="M348.371,341.347l-.895-.023-1.45-.208-1.148-.306-1.1-.417-.455-.211-.786-.424a13.664,13.664,0,0,1-2.345-1.811l-.081-.08-1.014-1.141c0-.047-.009-.093-.06-.115l-.687-1.017-.458-.9-.013-.277.018-.269.45-.869.763-1.125q.493-.616,1.032-1.193l.046-.048,1.222-1.061,1.174-.784.7-.375a2.547,2.547,0,0,0,.45-.215l1.15-.424,1.151-.3a16.517,16.517,0,0,1,2.346-.248l.526.022.657.052,1.162.174,1.152.3,1.15.425.424.207.771.414c.393.243.777.5,1.149.773.11.088.219.177.331.263a2.874,2.874,0,0,1,.445.354,3.33,3.33,0,0,0,.421.429l.046.04a14.219,14.219,0,0,1,1.8,2.319l.454.868.014.27a1.7,1.7,0,0,1-.065.415l-.408.764a14.778,14.778,0,0,1-1.762,2.273l-.079.08a13.718,13.718,0,0,1-2.346,1.812l-.781.421-.42.192-1.144.436-1.149.306c-.47.064-.936.162-1.411.184C348.995,341.314,348.683,341.331,348.371,341.347Zm-8.654-6.933a3.119,3.119,0,0,0,.461.772,2.076,2.076,0,0,0,.286.415,6.869,6.869,0,0,0,.91,1.055l.082.079a6.183,6.183,0,0,0,1.075.919,1.574,1.574,0,0,0,.377.269,3.9,3.9,0,0,0,.814.5,5.481,5.481,0,0,0,1.1.51,1.426,1.426,0,0,0,.395.155,3.487,3.487,0,0,0,.806.225,6.612,6.612,0,0,0,1.2.229,5.939,5.939,0,0,0,1.151.064,5.861,5.861,0,0,0,1.151-.065,6.45,6.45,0,0,0,1.2-.227,2.735,2.735,0,0,0,.764-.22,1.277,1.277,0,0,0,.395-.141,6.371,6.371,0,0,0,1.2-.562,3.764,3.764,0,0,0,.756-.464,2.174,2.174,0,0,0,.424-.3,6.633,6.633,0,0,0,1.025-.885l.082-.078a6.5,6.5,0,0,0,.914-1.057,2.268,2.268,0,0,0,.284-.412,3.3,3.3,0,0,0,.459-.773,3.574,3.574,0,0,0-.417-.677,2.728,2.728,0,0,0-.314-.46,6.947,6.947,0,0,0-.921-1.072l-.077-.073a6.15,6.15,0,0,0-1.08-.923,1.767,1.767,0,0,0-.425-.3,2.853,2.853,0,0,0-.68-.417,5.372,5.372,0,0,0-1.242-.587,1.021,1.021,0,0,0-.3-.118,5.6,5.6,0,0,0-.85-.251,6.155,6.155,0,0,0-1.2-.214,6.769,6.769,0,0,0-1.15-.074,6.165,6.165,0,0,0-1.153.075,6.23,6.23,0,0,0-1.192.215,3.991,3.991,0,0,0-.881.273.589.589,0,0,0-.272.095,5.059,5.059,0,0,0-1.155.537,3.9,3.9,0,0,0-.845.517,2,2,0,0,0-.4.285,5.72,5.72,0,0,0-1.028.888l-.074.069a7.13,7.13,0,0,0-.921,1.073,1.944,1.944,0,0,0-.265.386A3.753,3.753,0,0,0,339.717,334.414Z" transform="translate(0 0)"/>
    <path id="패스_30" data-name="패스 30" class="cls-1" d="M496.3,397.888a6.918,6.918,0,0,1,.439.943,5.291,5.291,0,0,1,.171,1.118,6.221,6.221,0,0,1-.178,1.158,4.348,4.348,0,0,1-.867,1.461,4.278,4.278,0,0,1-1.816,1.146c-.04.013-.08.029-.12.044a5.236,5.236,0,0,1-1.167.168,10.82,10.82,0,0,1-1.165-.169,6.794,6.794,0,0,1-1.034-.461.206.206,0,0,0-.129-.078,4.96,4.96,0,0,1-1.04-.992.419.419,0,0,0-.123-.169,5.017,5.017,0,0,1-.446-.948,5.275,5.275,0,0,1-.182-1.161,6.153,6.153,0,0,1,.15-1.068l.424.13a2.057,2.057,0,0,0,2.556-1.262,1.955,1.955,0,0,0-.094-1.446c-.023-.05-.059-.1-.022-.153a8.354,8.354,0,0,1,1.106-.154,5.765,5.765,0,0,1,1.164.153A4.282,4.282,0,0,1,496.3,397.888Z" transform="translate(-144.392 -65.535)"/>
  </g>
</svg>
