<svg xmlns="http://www.w3.org/2000/svg" width="34.084" height="26" viewBox="0 0 34.084 26">
  <defs>
    <style>
      .cls-1 {
        fill: #9aa4c7;
      }
    </style>
  </defs>
  <g id="ico_logout" transform="translate(-1859.003 -591.927)">
    <path id="패스_10" data-name="패스 10" class="cls-1" d="M1859,611.372q0-1.066,0-2.132v-6.482q0-1.066,0-2.132,0-1.107,0-2.215.046-.553.092-1.105a7.42,7.42,0,0,1,1.6-3.235l.468-.449a7.168,7.168,0,0,1,3.23-1.611l1.106-.083h4.346c.394.006.789.007,1.183.018a.864.864,0,0,1,.963.979q.009.611.02,1.222c-.006.391-.026.783-.014,1.174a.95.95,0,0,1-.418.869,8.865,8.865,0,0,1-1.732.1H1865.5a2.094,2.094,0,0,0-2.129,2.12q0,1.106,0,2.212,0,1.067,0,2.135v8.614a2.115,2.115,0,0,0,2.127,2.178l.161,0h4.186c.421.007.842.009,1.262.021a.805.805,0,0,1,.883.883c.012.421.014.841.021,1.262q-.028.846-.055,1.692l-.4.42a13.95,13.95,0,0,1-1.7.087,12.649,12.649,0,0,0-2.138,0l-2.208,0a2.707,2.707,0,0,0-.793-.061.114.114,0,0,0-.156,0l-.155-.015a5.428,5.428,0,0,0-1.032-.305,7.358,7.358,0,0,1-2.217-1.331l-.521-.5a8.784,8.784,0,0,1-1.233-2.123l-.309-1.261Z" transform="translate(0)"/>
    <path id="패스_11" data-name="패스 11" class="cls-1" d="M1981.163,617.993l-.759,0a2.148,2.148,0,0,1-1.282-1.178q-.038-.515-.076-1.03v-4.347c.006-.434,0-.869.021-1.3.011-.233-.079-.288-.3-.283-.618.016-1.237.013-1.855.017h-6.478c-.091,0-.182-.012-.274-.013a1.677,1.677,0,0,1-1.892-1.912,2.649,2.649,0,0,0-.034-.778v-2.208a12.843,12.843,0,0,0,0-2.138q.034-.749.067-1.5a1.663,1.663,0,0,1,1.7-1.2c.144,0,.288-.011.432-.018h6.483c.628.006,1.256.005,1.884.022.214.006.268-.08.262-.276-.015-.458-.014-.916-.019-1.374v-4.268q.044-.552.089-1.1a2.278,2.278,0,0,1,1.152-1.1,2.137,2.137,0,0,1,1.929.823c.358.414.78.774,1.173,1.158l.227.225q.918.989,1.907,1.907l.226.227q.959,1.027,1.986,1.987l.147.147q.959,1.027,1.987,1.986l.227.226q.84.909,1.75,1.75l.236.237.147.147c.288.3.573.6.867.892a1.852,1.852,0,0,1,.587,1.234,1.88,1.88,0,0,1-.617,1.315c-.3.288-.584.6-.874.9l-.1.1q-1.059.98-2.04,2.039l-.173.173q-1.058.98-2.037,2.038l-.113.114q-1.044.961-2.005,2.005l-.112.111q-1.06.979-2.04,2.039l-.175.175A20.022,20.022,0,0,1,1981.163,617.993Z" transform="translate(-100.594 -0.069)"/>
  </g>
</svg>
