<svg xmlns="http://www.w3.org/2000/svg" width="16.928" height="16.916" viewBox="0 0 16.928 16.916">
  <defs>
    <style>
      .cls-1 {
        fill: #98a7c8;
      }
    </style>
  </defs>
  <g id="ico_link" transform="translate(-1186.086 -510.171)">
    <path id="패스_8" data-name="패스 8" class="cls-1" d="M1186.086,657.493a1.461,1.461,0,0,0,.033-.388,6.525,6.525,0,0,1,.546-1.7,5.9,5.9,0,0,1,.824-1.106c.241-.247.481-.5.721-.745l.233-.234c.06-.057.126-.109.18-.171a.734.734,0,0,1,.629-.305.571.571,0,0,1,.43.432,8.765,8.765,0,0,0,.117,1.045,5.162,5.162,0,0,1,.228,1.082,5.04,5.04,0,0,1-.707.807,2.045,2.045,0,0,0-.538,1.28,1.9,1.9,0,0,0,.094,1.084,1.594,1.594,0,0,0,.372.667,1.209,1.209,0,0,0,.379.384,1.75,1.75,0,0,0,.7.389,1.837,1.837,0,0,0,1.047.109,1.922,1.922,0,0,0,1.179-.472c.7-.613,1.34-1.3,1.993-1.962a.783.783,0,0,0,.2-.2,2.467,2.467,0,0,0,.775-1.044.864.864,0,0,0,.112-.35,2.2,2.2,0,0,0-.3-1.827,2.656,2.656,0,0,0-.775-.781l-.1-.221a1.442,1.442,0,0,1,.363-1.079l.784-.766a.594.594,0,0,1,.724.09c.112.094.232.178.349.267l.433.448.573.777.154.271c.132.347.286.685.384,1.044a8.523,8.523,0,0,1,.145,1.078,5.407,5.407,0,0,1-.377,2.088l-.265.533-.357.549a12.105,12.105,0,0,1-.866.929c-.3.3-.6.614-.9.921a1.617,1.617,0,0,0-.276.279l-.763.744-.348.3-.75.493a7.666,7.666,0,0,1-1.234.437,5.57,5.57,0,0,1-1.919.064,8.839,8.839,0,0,1-1.049-.289,6.164,6.164,0,0,1-1.039-.567.579.579,0,0,0-.191-.14c-.319-.268-.6-.574-.892-.871a.277.277,0,0,0-.111-.174,8.384,8.384,0,0,1-.594-1.08,5.793,5.793,0,0,1-.323-1.59C1186.094,657.851,1186.09,657.672,1186.086,657.493Z" transform="translate(0 -135.708)"/>
    <path id="패스_9" data-name="패스 9" class="cls-1" d="M1318.675,515.44a1.365,1.365,0,0,0-.032.388,6.1,6.1,0,0,1-.557,1.737l-.451.7-.3.35c-.421.422-.844.842-1.26,1.268a.683.683,0,0,1-.562.24.63.63,0,0,1-.429-.426,4.883,4.883,0,0,0-.143-1.086c-.011-.069-.023-.137-.034-.206a3.38,3.38,0,0,1-.171-.836c.084-.227.29-.355.431-.537l.118-.119a2.569,2.569,0,0,0,.413-.544,1.872,1.872,0,0,0,.274-.734l.036-.194a2.305,2.305,0,0,0-.117-1.043,1.6,1.6,0,0,0-.373-.671,1.241,1.241,0,0,0-.359-.373,1.7,1.7,0,0,0-.722-.406,2.144,2.144,0,0,0-1.051-.124,2.314,2.314,0,0,0-1.428.695q-1.109,1.1-2.213,2.214a1.94,1.94,0,0,0-.506.788.743.743,0,0,0-.111.35,2.173,2.173,0,0,0,.267,1.745.5.5,0,0,0,.1.181,3.342,3.342,0,0,0,.715.677l.107.225a1.415,1.415,0,0,1-.43,1.126c-.248.231-.483.475-.724.714a.559.559,0,0,1-.687-.068c-.128-.1-.26-.2-.39-.3l-.419-.429c-.222-.275-.425-.564-.62-.859a.352.352,0,0,0-.125-.182,7.545,7.545,0,0,1-.377-1.085,8.163,8.163,0,0,1-.139-1.041,8.32,8.32,0,0,1,.079-1.048,9.612,9.612,0,0,1,.291-1.037l.266-.548.355-.538.693-.765.279-.278,1.847-1.85a1.982,1.982,0,0,0,.321-.277l.766-.5a7.813,7.813,0,0,1,1.192-.433,5.458,5.458,0,0,1,1.856-.08.769.769,0,0,0,.077,0,9.349,9.349,0,0,1,1.078.287,7.958,7.958,0,0,1,1,.536,1.08,1.08,0,0,0,.264.192c.288.256.552.535.815.815l.2.27a8.566,8.566,0,0,1,.554,1.037A5.8,5.8,0,0,1,1318.675,515.44Z" transform="translate(-115.662)"/>
  </g>
</svg>
