<svg xmlns="http://www.w3.org/2000/svg" width="30" height="30" viewBox="0 0 30 30">
  <defs>
    <style>
      .cls-1 {
        fill: #9aa4c7;
      }
    </style>
  </defs>
  <g id="ico_menu1" transform="translate(-746.915 -320.746)">
    <path id="패스_27" data-name="패스 27" class="cls-1" d="M760.012,484.281a12.389,12.389,0,0,1-1.85,1.039,18.319,18.319,0,0,1-1.853.481,8.866,8.866,0,0,1-3.348-.214,9.758,9.758,0,0,1-2.215-.963l-.867-.624-1.119-1.115a4.849,4.849,0,0,0-.543-.734,14.343,14.343,0,0,1-.907-1.916l-.347-1.508-.025-.343c.01-.384-.043-.764-.015-1.151a9.535,9.535,0,0,1,.556-2.614,10.232,10.232,0,0,1,1.05-1.862l.231-.319,1.529-1.6.394-.395,1.463-1.458.392-.39c.135-.121.28-.232.4-.365a.73.73,0,0,1,1.317.513,9.7,9.7,0,0,0,.276,2.085q0,.138.007.275l-.092.256-1.355,1.394a2.888,2.888,0,0,0-.559.555,7.569,7.569,0,0,0-1.236,1.3,4.546,4.546,0,0,0-1.028,3.773,2.944,2.944,0,0,0,.4,1.318,1.442,1.442,0,0,0,.277.535,4.049,4.049,0,0,0,1.579,1.586,3.2,3.2,0,0,0,.759.394,3.373,3.373,0,0,0,1.167.307,4.687,4.687,0,0,0,3.706-1,8.426,8.426,0,0,0,1.356-1.291l.579-.587a11.639,11.639,0,0,0,1.259-1.258l.6-.595a8.817,8.817,0,0,0,1.3-1.334,3.317,3.317,0,0,0,.632-.884,2.725,2.725,0,0,0,.393-.969,3.892,3.892,0,0,0,.149-1.855,3.665,3.665,0,0,0-.613-1.929,4.189,4.189,0,0,0-1.861-1.848c-.674-.479-.75-.678-.531-1.386.047-.152.1-.3.153-.453l.429-.631c.7-.757.807-.88,1.728-.34a.3.3,0,0,0,.065.02l1.254.939.676.682.867,1.179a10.254,10.254,0,0,1,.934,2.262c.126.5.155,1.007.256,1.507a12.54,12.54,0,0,1-.121,1.854l-.094.588-.421,1.255a13.044,13.044,0,0,1-1.162,1.925l-.263.339-1.5,1.52a1.739,1.739,0,0,0-.416.415c-.526.479-1.031.978-1.507,1.507a1.213,1.213,0,0,0-.347.347l-1.57,1.507Z" transform="translate(0 -135.123)"/>
    <path id="패스_28" data-name="패스 28" class="cls-1" d="M901.459,327.757q.018.238.036.476a10.148,10.148,0,0,1-.084,2.011,11.567,11.567,0,0,1-.464,1.751,11.815,11.815,0,0,1-1.051,1.868l-.274.347-1.46,1.5a1.956,1.956,0,0,0-.407.407q-.789.726-1.515,1.514a1.349,1.349,0,0,0-.339.338c-.156.148-.315.293-.469.444a.677.677,0,0,1-.8.189.712.712,0,0,1-.446-.7,11.052,11.052,0,0,0-.286-2.189,1.188,1.188,0,0,1,.085-.474l1.357-1.383a2.813,2.813,0,0,0,.56-.558A8.263,8.263,0,0,0,897.129,332a2.756,2.756,0,0,0,.631-1.019,2.2,2.2,0,0,0,.327-.9,3.838,3.838,0,0,0,.081-1.854,3.116,3.116,0,0,0-.347-1.233,1.626,1.626,0,0,0-.327-.624,4.11,4.11,0,0,0-1.583-1.606,1.657,1.657,0,0,0-.615-.315,2.955,2.955,0,0,0-1.315-.387,4.457,4.457,0,0,0-2.691.386.758.758,0,0,0-.331.157.613.613,0,0,0-.286.185l-.124.083a.559.559,0,0,0-.28.2h0a9.735,9.735,0,0,0-1.308,1.229l-.478.486-.139.131-1.3,1.313a2.986,2.986,0,0,0-.553.553,12.787,12.787,0,0,0-1.283,1.3,3.9,3.9,0,0,0-.632.9,2.741,2.741,0,0,0-.417,1.025,3.721,3.721,0,0,0-.145,1.854,3.594,3.594,0,0,0,.6,1.881,4.269,4.269,0,0,0,1.793,1.837l.163.105c.555.347.63.526.48,1.168-.043.185-.1.366-.156.549l-.4.648c-.119.119-.237.239-.358.356a.812.812,0,0,1-1.177.149c-.077-.045-.161-.078-.242-.117a12.341,12.341,0,0,1-1.3-.957l-.629-.616a11.514,11.514,0,0,1-.922-1.233,8.9,8.9,0,0,1-1.208-3.774,12.036,12.036,0,0,1,.115-1.853l.1-.647.453-1.273a14.22,14.22,0,0,1,1.106-1.853l.281-.343c.507-.485,1.014-.97,1.475-1.5a1.606,1.606,0,0,0,.457-.457,18.049,18.049,0,0,0,1.482-1.472l.373-.381,1.517-1.467.333-.257a12.167,12.167,0,0,1,1.916-1.068,14.467,14.467,0,0,1,1.857-.481,15.6,15.6,0,0,1,2.127-.05l1.636.372a12.624,12.624,0,0,1,1.863.882l.83.6,1.012,1.04.686.9a16.186,16.186,0,0,1,.85,1.83Z" transform="translate(-124.599)"/>
  </g>
</svg>
