<svg xmlns="http://www.w3.org/2000/svg" width="34.751" height="27.024" viewBox="0 0 34.751 27.024">
  <defs>
    <style>
      .cls-1 {
        fill: #9aa4c7;
      }
    </style>
  </defs>
  <g id="ico_menu4" transform="translate(-721.293 -350.384)">
    <path id="패스_17" data-name="패스 17" class="cls-1" d="M746.356,377.408H729.007c-.634-.04-1.271.02-1.9-.059l-.137-.026a3.287,3.287,0,0,1-1.833-1.416l-.18-.416a19.228,19.228,0,0,1-.344-1.963l-.269-1.906-.278-1.973c-.185-.621-.133-1.276-.269-1.9-.044-.639-.146-1.271-.25-1.9a14.9,14.9,0,0,0-.247-1.7l-.026-.279c-.007-.081-.01-.162-.023-.242-.106-.688-.107-.7-.807-.684a1.161,1.161,0,0,1-1.108-.447l-.04-.53c.006-.372.009-.745.018-1.117.014-.559.243-.788.8-.816a8.4,8.4,0,0,0,1.113-.032h1.9a6.909,6.909,0,0,0,1.185.017.255.255,0,0,0,.206-.112q.3-.366.6-.73a11.108,11.108,0,0,0,.925-1.084,12.129,12.129,0,0,0,.968-1.146,5.289,5.289,0,0,0,.653-.758l3.891-4.545c.107-.125.227-.24.321-.374a1.79,1.79,0,0,1,1.86-.856,1.953,1.953,0,0,1,.962.976l.014.778-.023.135a4.859,4.859,0,0,1-.627.877c-.315.358-.61.733-.914,1.1a1.607,1.607,0,0,0-.356.416,18.47,18.47,0,0,0-1.266,1.487,5.424,5.424,0,0,0-.645.753,11.566,11.566,0,0,0-.976,1.151l-1.565,1.822a.122.122,0,0,0-.082.122l.114-.011,2.517-.017a11.967,11.967,0,0,0,1.911,0q.984.042,1.969,0a11.892,11.892,0,0,0,1.91,0h1.9a12.779,12.779,0,0,0,1.982,0h1.9a11.852,11.852,0,0,0,1.91,0l.657.014.022.008.058.006-.028-.049-.063-.075-.557-.635a13.438,13.438,0,0,0-1.014-1.184,11.87,11.87,0,0,0-.977-1.149,5.435,5.435,0,0,0-.647-.754,18.493,18.493,0,0,0-1.263-1.485c-.141-.189-.25-.407-.484-.508.011-.15-.116-.218-.192-.315a11.57,11.57,0,0,1-1.177-1.5,2.279,2.279,0,0,1-.052-.987,1.888,1.888,0,0,1,.965-.967,1.8,1.8,0,0,1,1.8.766c1.4,1.685,2.843,3.339,4.268,5.005a5.333,5.333,0,0,0,.657.764,12.863,12.863,0,0,0,.965,1.14l.926,1.08c.2.242.4.483.594.728a.311.311,0,0,0,.275.116c.372-.008.743-.013,1.115-.019a11.861,11.861,0,0,0,1.91,0l1.338.045a.774.774,0,0,1,.578.84c-.006.359.008.718.013,1.077q-.018.264-.036.529a1.06,1.06,0,0,1-.962.452c-.881-.008-.881,0-.978.913l-.02.153-.257,1.83c-.1.631-.211,1.262-.254,1.9a17.421,17.421,0,0,0-.268,1.908c-.125.654-.208,1.313-.277,1.975l-.267,1.892a18.776,18.776,0,0,1-.344,1.971l-.183.42a3.166,3.166,0,0,1-1.966,1.441c-.633.078-1.27.022-1.9.061Zm4.22-9.665.266-1.893.269-1.975c.037-.231.071-.461.111-.691.03-.174-.014-.262-.214-.248-.257.018-.516.013-.774.018H727.1a.5.5,0,0,0-.069-.012c-.979-.037-.979-.036-.814.93l.268,1.967.272,1.906c.045.37.085.741.138,1.111.133.924.273,1.846.409,2.769a18.478,18.478,0,0,0,.26,1.909c0,.058.006.116.013.173.083.795.083.8.87.794.185,0,.371-.01.556-.016h17.351l1.968,0c.14.006.281.017.421.017.94,0,.94,0,1.034-.949a.147.147,0,0,0,0-.035c.1-.631.206-1.261.25-1.9a17.763,17.763,0,0,0,.275-1.974l.013-.137A17.147,17.147,0,0,0,750.576,367.744Z" transform="translate(0 0)"/>
    <path id="패스_18" data-name="패스 18" class="cls-1" d="M851.248,560.381q0-.95,0-1.9a17.664,17.664,0,0,1,.079-1.908,1.684,1.684,0,0,1,.44-.651,1.518,1.518,0,0,1,1.905.019,2.807,2.807,0,0,1,.422.634,18.7,18.7,0,0,1,.076,1.9v1.9a16.751,16.751,0,0,1-.084,1.97l-.423.615a1.561,1.561,0,0,1-1.891.015,2.159,2.159,0,0,1-.439-.626A16.351,16.351,0,0,1,851.248,560.381Z" transform="translate(-120.786 -190.734)"/>
    <path id="패스_19" data-name="패스 19" class="cls-1" d="M1043.1,555.889a1.533,1.533,0,0,1,1.805.024,1.969,1.969,0,0,1,.457.684,18.694,18.694,0,0,1,.075,1.891q0,.953,0,1.906a17.272,17.272,0,0,1-.084,1.972,2.507,2.507,0,0,1-.439.63,1.53,1.53,0,0,1-1.9-.042,2.243,2.243,0,0,1-.412-.59,16.517,16.517,0,0,1-.086-1.97v-1.9a17.8,17.8,0,0,1,.078-1.9A1.986,1.986,0,0,1,1043.1,555.889Z" transform="translate(-298.558 -190.746)"/>
    <path id="패스_20" data-name="패스 20" class="cls-1" d="M948.256,555.348a1.555,1.555,0,0,1,1.391,1c.1.627.006,1.262.074,1.891a12.026,12.026,0,0,0,0,1.918c-.076.651.041,1.31-.09,1.958a1.526,1.526,0,0,1-1.377.962,1.506,1.506,0,0,1-1.372-.967c-.02-.151-.049-.3-.06-.453-.034-.5.032-1.007-.036-1.508a14.859,14.859,0,0,0,.006-1.9c.011-.127.028-.254.031-.381a9.812,9.812,0,0,1,.059-1.536A1.513,1.513,0,0,1,948.256,555.348Z" transform="translate(-209.588 -190.505)"/>
  </g>
</svg>
