<svg xmlns="http://www.w3.org/2000/svg" width="21" height="21" viewBox="0 0 21 21">
  <defs>
    <style>
      .cls-1 {
        fill: #9aa4c7;
      }
    </style>
  </defs>
  <path id="ico_move" class="cls-1" d="M376.368,639.852l.043-.245a1.157,1.157,0,0,1,.322-.493,3.764,3.764,0,0,0,.518-.556l.419-.423c.306-.276.594-.569.871-.873l.47-.473q.456-.415.869-.872l.423-.251a1.068,1.068,0,0,1,1.006.248,1.862,1.862,0,0,1,.249.431c0,.728,0,1.455,0,2.183,0,.085-.043.215.115.21a9.181,9.181,0,0,0,1.262-.03l1.29,0a9.53,9.53,0,0,0,1.139.033c.347,0,.348,0,.347-.335,0-.381,0-.762-.007-1.144q0-.673,0-1.346,0-.648,0-1.3c0-.023-.01-.036-.035-.03h-.1a13.014,13.014,0,0,0-1.345,0l-.86-.018-.43-.244a1.148,1.148,0,0,1-.282-1,1.857,1.857,0,0,1,.277-.445,9.82,9.82,0,0,0,.9-.9l.4-.4a7.717,7.717,0,0,0,.88-.9,1.718,1.718,0,0,0,.467-.469c.165-.16.339-.312.492-.483a1.158,1.158,0,0,1,1.082-.348,2.21,2.21,0,0,1,.649.511,1.372,1.372,0,0,0,.352.317l.471.472a5.805,5.805,0,0,0,.87.872,1.517,1.517,0,0,0,.424.425,5.857,5.857,0,0,0,.871.872l.289.467a1.225,1.225,0,0,1-.174.863l-.11.138a1.758,1.758,0,0,1-.57.252l-.725.01h-1.338l-.1,0-.036.034,0,1.3q0,.671,0,1.343,0,.655-.009,1.31c0,.093,0,.185.132.167.45-.06.9-.008,1.353-.029a6.556,6.556,0,0,0,1.292.011c.41,0,.82-.007,1.23.006.158,0,.114-.086.114-.167v-1.3c0-.214,0-.429.009-.643a.974.974,0,0,1,.528-.871,1.031,1.031,0,0,1,.76-.078l.415.255a5.8,5.8,0,0,0,.87.871,1.814,1.814,0,0,0,.473.472l.869.873a1.534,1.534,0,0,0,.424.425.753.753,0,0,0,.2.236,2.947,2.947,0,0,1,.637.763l.047.289-.046.292a1.075,1.075,0,0,1-.29.456c-.2.2-.384.4-.576.6a1.913,1.913,0,0,0-.386.387,10.448,10.448,0,0,0-.908.91,2.473,2.473,0,0,0-.434.435,9.937,9.937,0,0,0-.862.861,1.528,1.528,0,0,1-.434.282,1.1,1.1,0,0,1-1.047-.285,1.663,1.663,0,0,1-.231-.436q-.008-.429-.016-.858,0-.649,0-1.3c.022-.123-.007-.193-.155-.189-.394.01-.788.01-1.182.013q-.649-.029-1.3,0h-1.337c-.171-.039-.148.074-.139.177q0,.647,0,1.295t0,1.3c0,.4,0,.8-.009,1.193,0,.1.02.174.143.157a5.39,5.39,0,0,0,1.346,0,6,6,0,0,1,.862.038l.43.245a1.126,1.126,0,0,1,.276,1,2.381,2.381,0,0,1-.274.439,10.44,10.44,0,0,0-.909.91,1.929,1.929,0,0,0-.385.386,10.43,10.43,0,0,0-.907.911,3.031,3.031,0,0,0-.481.481c-.143.137-.3.265-.427.413a1.1,1.1,0,0,1-1.2.353,9.063,9.063,0,0,1-.913-.812,2.651,2.651,0,0,0-.432-.435,11.363,11.363,0,0,0-.909-.912,1.264,1.264,0,0,0-.426-.388l-.866-.867-.281-.477c0-.048,0-.1-.01-.144a.98.98,0,0,1,1.065-1.115,1.071,1.071,0,0,0,.519-.029h1.29c.153.08.2.013.195-.136-.005-.4-.006-.81-.008-1.215q0-.647,0-1.294c0-.438,0-.876.009-1.314,0-.114-.022-.178-.156-.175-.445.01-.89.01-1.335.014h-1.29l-.194,0a7.162,7.162,0,0,0-.911,0c-.136-.018-.281-.046-.237.178q0,.648,0,1.3-.008.38-.017.761a1.335,1.335,0,0,1-.285.58,1.151,1.151,0,0,1-.992.238,2.559,2.559,0,0,1-.436-.28,10.182,10.182,0,0,0-.861-.865,1.538,1.538,0,0,0-.475-.434,8.693,8.693,0,0,0-.722-.723l-.142-.145c-.07-.194-.245-.294-.381-.429a8.623,8.623,0,0,1-.862-.961Z" transform="translate(-376.368 -629.371)"/>
</svg>
