<svg xmlns="http://www.w3.org/2000/svg" width="30" height="30" viewBox="0 0 30 30">
  <defs>
    <style>
      .cls-1 {
        fill: #9aa4c7;
      }
    </style>
  </defs>
  <g id="ico_menu3" transform="translate(-749.907 -328.045)">
    <path id="패스_15" data-name="패스 15" class="cls-1" d="M766.881,328.175l2.04.383a1.674,1.674,0,0,1,1.071,1.076q.019.9.039,1.8c-.042.767-.042.767.648,1.092.064.03.132.054.2.081a2.628,2.628,0,0,1,.484.3.984.984,0,0,0,1.512-.041c.159-.082.319-.162.477-.247a3.049,3.049,0,0,1,1.563-.582,1.64,1.64,0,0,1,1.093.57c.257.282.528.55.793.824.51.644,1,1.3,1.456,1.982a6.923,6.923,0,0,0,.586,1.055,3.74,3.74,0,0,0,.36.764l.683,1.972a1.531,1.531,0,0,1-.928,1.7c-.289.148-.57.312-.854.468-.984.54-.984.54-.854,1.64-.022.28-.03.562-.071.84a.432.432,0,0,0,.284.5c.479.251.934.546,1.42.784a1.568,1.568,0,0,1,1,1.766l-.691,1.969-.352.707-.655,1.2a18.19,18.19,0,0,1-1.527,2c-.481.546-.911,1.176-1.75,1.267a1.988,1.988,0,0,1-1.063-.307c-.316-.195-.652-.359-.979-.536-.164-.1-.337-.183-.49-.294a.458.458,0,0,0-.61.006c-.308.221-.644.4-.968.6-.977.465-.768.194-.768,1.144a13.374,13.374,0,0,1-.084,1.908,1.579,1.579,0,0,1-1.022.937l-2.048.4-1.964.131-1.977-.13-2.04-.391a1.621,1.621,0,0,1-1.03-.944,13.273,13.273,0,0,1-.083-1.906c0-.176.008-.352.011-.528,0-.114.02-.224-.135-.284a5.642,5.642,0,0,0-.737-.327c-.089-.187-.315-.2-.448-.336a1,1,0,0,0-1.526.008c-.2.109-.4.215-.6.326a2.621,2.621,0,0,1-1.444.52,2.056,2.056,0,0,1-1.249-.713,20.839,20.839,0,0,1-2.023-2.557l-.726-1.3a1.384,1.384,0,0,0-.436-.75,2.31,2.31,0,0,0-.068-.412c-.169-.467-.315-.943-.47-1.415a1.512,1.512,0,0,1,.881-1.7,6.965,6.965,0,0,1,.844-.459,1.241,1.241,0,0,0,.909-1.728q.036-.455.071-.909a.258.258,0,0,0-.131-.3c-.456-.241-.9-.5-1.36-.737-.8-.421-1.357-.826-1.215-1.872l.683-1.973a2.877,2.877,0,0,0,.371-.838,6.321,6.321,0,0,0,.636-1.072,15.871,15.871,0,0,1,1.578-2.067c.481-.51.879-1.156,1.708-1.22a2.307,2.307,0,0,1,1.185.375c.275.166.568.3.853.456.173.105.354.2.517.319a.433.433,0,0,0,.576-.014c.281-.2.588-.369.884-.55a1.676,1.676,0,0,1,.232-.1.8.8,0,0,0,.631-1.084,15.4,15.4,0,0,1,.075-1.909,1.652,1.652,0,0,1,1.036-.971l2.043-.383,1.97-.13Zm-1.973,26.917a10.014,10.014,0,0,0,1.878-.109c.173-.024.25-.067.246-.254-.015-.678-.013-1.356-.018-2.035a1.9,1.9,0,0,0,.008-.383c-.059-.329.1-.465.407-.568a10.087,10.087,0,0,0,1.506-.577,2.05,2.05,0,0,0,.736-.37,6.811,6.811,0,0,0,1.238-.893c.228-.175.464-.342.681-.529a.277.277,0,0,1,.381-.034c.288.174.59.325.886.485.329.191.657.384.987.573.712.407.713.406,1.165-.306a6.868,6.868,0,0,0,.837-1.283,7.146,7.146,0,0,0,.537-1.026c.271-.619.272-.619-.408-.9a6.556,6.556,0,0,0-1.064-.606c-.124-.074-.246-.152-.372-.222C773.9,345.7,773.9,345.7,774,345a7.427,7.427,0,0,0,.223-1.983,7.876,7.876,0,0,0-.214-1.9,1.621,1.621,0,0,0-.059-.376c-.113-.279.005-.419.259-.537s.472-.273.706-.413a6.482,6.482,0,0,0,1.03-.578c.149-.076.293-.163.448-.224.215-.084.211-.2.124-.385a10.072,10.072,0,0,0-.706-1.38,5.958,5.958,0,0,0-.9-1.35,3.129,3.129,0,0,1-.181-.261c-.139-.25-.3-.272-.549-.115-.454.288-.93.543-1.4.813a.3.3,0,0,0-.1.036,1.066,1.066,0,0,1-1.716-.107,5.985,5.985,0,0,0-1.285-.923,2.453,2.453,0,0,0-.765-.4,7.852,7.852,0,0,0-1.072-.416c-.616-.145-.983-.419-.839-1.089v-1.971c-.021-.109.111-.28-.131-.3a10.891,10.891,0,0,0-1.974-.171,17.739,17.739,0,0,0-1.923.131c-.183.018-.2.122-.2.268.009.681.011,1.363.015,2.045a1.961,1.961,0,0,0-.007.383c.054.314-.1.444-.392.541-.512.166-1.007.38-1.509.574a2.345,2.345,0,0,0-.766.394,4.863,4.863,0,0,0-1.205.868c-.217.167-.44.326-.647.5a.353.353,0,0,1-.48.047c-.272-.171-.565-.312-.848-.466-.361-.208-.721-.417-1.084-.623-.581-.331-.582-.331-.966.236a14.506,14.506,0,0,0-1.424,2.343c-.307.681-.307.681.4,1a6.236,6.236,0,0,0,1.028.575c.12.075.237.154.361.224.667.375.667.374.551,1.1a7.517,7.517,0,0,0-.216,1.913,7.407,7.407,0,0,0,.228,1.984c.088.7.087.7-.546,1.056-.126.07-.247.148-.371.222a8.821,8.821,0,0,0-1.1.617c-.148.075-.294.154-.445.224s-.151.147-.091.28a9.669,9.669,0,0,0,.708,1.407,6.7,6.7,0,0,0,.932,1.407c.058.088.121.173.173.264.137.24.285.284.543.117.43-.279.889-.515,1.336-.769a3.978,3.978,0,0,0,.6-.326.575.575,0,0,1,.909.063,2.375,2.375,0,0,0,.4.3.683.683,0,0,0,.281.215,5.656,5.656,0,0,0,1.1.776l.656.343a9.021,9.021,0,0,0,1.084.388c.632.143.967.449.827,1.109q0,.985,0,1.971c.023.1-.117.28.134.283A8.129,8.129,0,0,0,764.908,355.092Z" transform="translate(0 0)"/>
    <path id="패스_16" data-name="패스 16" class="cls-1" d="M883.095,468.472a6.489,6.489,0,0,1-3.225,1.514l-.8.04-1.024-.047a5.985,5.985,0,0,0-.955-.278,8.1,8.1,0,0,1-2.049-1.189,2.8,2.8,0,0,0-.485-.518,7.332,7.332,0,0,1-1.165-1.976l-.327-1.131q-.009-.456-.017-.913l.069-.954a.074.074,0,0,0,0-.07l.015-.146a7.119,7.119,0,0,1,1.418-2.779l.571-.587A8.057,8.057,0,0,1,877.1,458.3l1.011-.259.95-.081.737.064,1.241.287a7.628,7.628,0,0,1,2.05,1.2l.491.516A7.152,7.152,0,0,1,884.75,462l.26,1.015q.038.479.075.957-.013.453-.027.906a.1.1,0,0,0-.045.117c0,.05-.008.1-.012.15a7.088,7.088,0,0,1-1.43,2.85Zm-1.991-2.3.081-.081a2.805,2.805,0,0,0,.87-2.113,2.991,2.991,0,1,0-2.991,3.012A2.717,2.717,0,0,0,881.1,466.17Z" transform="translate(-114.156 -120.956)"/>
  </g>
</svg>
