<svg xmlns="http://www.w3.org/2000/svg" xmlns:xlink="http://www.w3.org/1999/xlink" width="144" height="143.193" viewBox="0 0 144 143.193">
  <defs>
    <style>
      .cls-1 {
        fill: url(#linear-gradient);
      }

      .cls-2 {
        fill: url(#linear-gradient-2);
      }

      .cls-3 {
        fill: #f2cdca;
      }

      .cls-4 {
        clip-path: url(#clip-path);
      }

      .cls-11, .cls-5 {
        mix-blend-mode: soft-light;
      }

      .cls-11, .cls-13, .cls-19, .cls-21, .cls-27, .cls-33, .cls-5 {
        isolation: isolate;
      }

      .cls-11, .cls-6 {
        fill: #fff;
      }

      .cls-7 {
        clip-path: url(#clip-path-2);
      }

      .cls-8 {
        fill: url(#linear-gradient-5);
      }

      .cls-9 {
        fill: #bfc8d6;
      }

      .cls-10 {
        fill: #d8dee8;
      }

      .cls-11 {
        opacity: 0.48;
      }

      .cls-12 {
        fill: url(#linear-gradient-6);
      }

      .cls-13 {
        fill: #97a6b7;
      }

      .cls-13, .cls-19, .cls-27, .cls-33 {
        opacity: 0.3;
      }

      .cls-13, .cls-19, .cls-21, .cls-27, .cls-33 {
        mix-blend-mode: multiply;
      }

      .cls-14 {
        fill: url(#linear-gradient-7);
      }

      .cls-15 {
        fill: url(#linear-gradient-8);
      }

      .cls-16 {
        fill: url(#linear-gradient-9);
      }

      .cls-17 {
        fill: url(#linear-gradient-10);
      }

      .cls-18 {
        fill: url(#linear-gradient-11);
      }

      .cls-19 {
        fill: url(#linear-gradient-12);
      }

      .cls-20 {
        fill: url(#linear-gradient-13);
      }

      .cls-21 {
        opacity: 0.4;
        fill: url(#linear-gradient-14);
      }

      .cls-22 {
        fill: url(#linear-gradient-15);
      }

      .cls-23 {
        fill: url(#linear-gradient-16);
      }

      .cls-24 {
        fill: url(#linear-gradient-17);
      }

      .cls-25 {
        fill: url(#linear-gradient-18);
      }

      .cls-26, .cls-27 {
        fill: url(#linear-gradient-19);
      }

      .cls-28 {
        fill: url(#linear-gradient-21);
      }

      .cls-29 {
        fill: url(#linear-gradient-22);
      }

      .cls-30 {
        fill: url(#linear-gradient-23);
      }

      .cls-31 {
        fill: url(#linear-gradient-24);
      }

      .cls-32 {
        fill: url(#linear-gradient-25);
      }

      .cls-33 {
        fill: url(#linear-gradient-26);
      }

      .cls-34 {
        fill: url(#linear-gradient-27);
      }

      .cls-35 {
        fill: url(#linear-gradient-28);
      }

      .cls-36 {
        fill: url(#linear-gradient-29);
      }
    </style>
    <linearGradient id="linear-gradient" x1="0.846" y1="0.131" x2="0.142" y2="0.634" gradientUnits="objectBoundingBox">
      <stop offset="0.004" stop-color="#e38ddd"/>
      <stop offset="1" stop-color="#9571f6"/>
    </linearGradient>
    <linearGradient id="linear-gradient-2" x1="0.644" y1="0.09" x2="0.34" y2="1.042" gradientUnits="objectBoundingBox">
      <stop offset="0" stop-color="#aa80f9"/>
      <stop offset="0.996" stop-color="#6165d7"/>
    </linearGradient>
    <clipPath id="clip-path">
      <path id="패스_90" data-name="패스 90" class="cls-1" d="M2176.55,1051.822a41.243,41.243,0,0,1-2.127-22.068c2.026-10.27,7.17-12.476,11.5-23.523,6.18-15.769-1.737-26.8,5.023-31.771a11.1,11.1,0,0,1,11.94-.374c9.536,6.343,7.905,35.352-6.528,47.113-6.528,5.319-12.385,4.9-17.195,11.667C2174.914,1038.845,2175.508,1046.535,2176.55,1051.822Z" transform="translate(-2173.742 -972.523)"/>
    </clipPath>
    <clipPath id="clip-path-2">
      <path id="패스_96" data-name="패스 96" class="cls-2" d="M1880.118,1422.539c-.962-4.849-1.669-12.448,2.082-19.384,6.543-12.1,19.288-8.563,30.959-21.676,9.414-10.576,6.089-18.456,16.665-25.622,1.77-1.2,11.116-7.788,18.337-4.231,4.069,2,5.658,6.337,5.957,7.15,4.51,12.29-7.521,32.143-23.728,41.565-9.312,5.414-12.422,3.841-28.906,10.335A93.857,93.857,0,0,0,1880.118,1422.539Z" transform="translate(-1879.352 -1350.583)"/>
    </clipPath>
    <linearGradient id="linear-gradient-5" x1="0.214" y1="-0.751" x2="-0.999" y2="0.806" xlink:href="#linear-gradient"/>
    <linearGradient id="linear-gradient-6" y1="0.5" x2="1" y2="0.5" gradientUnits="objectBoundingBox">
      <stop offset="0.494" stop-color="#ebeff2"/>
      <stop offset="1" stop-color="#fff"/>
    </linearGradient>
    <linearGradient id="linear-gradient-7" x1="0.329" y1="0.554" x2="-0.255" y2="0.738" gradientUnits="objectBoundingBox">
      <stop offset="0" stop-color="#fcb148"/>
      <stop offset="0.052" stop-color="#fdb946"/>
      <stop offset="0.142" stop-color="#fec144"/>
      <stop offset="0.318" stop-color="#ffc444"/>
      <stop offset="0.485" stop-color="#fdb946"/>
      <stop offset="0.775" stop-color="#f99c4c"/>
      <stop offset="0.866" stop-color="#f8924f"/>
      <stop offset="1" stop-color="#f8924f"/>
    </linearGradient>
    <linearGradient id="linear-gradient-8" x1="0.727" y1="0.007" x2="0.207" y2="1.135" gradientUnits="objectBoundingBox">
      <stop offset="0" stop-color="#ffdb44"/>
      <stop offset="1" stop-color="#feef06"/>
    </linearGradient>
    <linearGradient id="linear-gradient-9" x1="0.636" y1="1.231" x2="0.531" y2="0.666" xlink:href="#linear-gradient-7"/>
    <linearGradient id="linear-gradient-10" x1="0.409" y1="0.31" x2="0.858" y2="1.247" xlink:href="#linear-gradient-7"/>
    <linearGradient id="linear-gradient-11" x1="0" y1="0.5" x2="1" y2="0.5" xlink:href="#linear-gradient-8"/>
    <linearGradient id="linear-gradient-12" x1="0.464" y1="0.369" x2="1.215" y2="1.306" xlink:href="#linear-gradient-7"/>
    <linearGradient id="linear-gradient-13" x1="0.278" y1="1.028" x2="0.771" y2="0.051" gradientUnits="objectBoundingBox">
      <stop offset="0.004" stop-color="#6165d7"/>
      <stop offset="1" stop-color="#aa80f9"/>
    </linearGradient>
    <linearGradient id="linear-gradient-14" x1="0.405" y1="0.935" x2="0.732" y2="0.104" xlink:href="#linear-gradient-13"/>
    <linearGradient id="linear-gradient-15" x1="-30.122" y1="0.268" x2="-29.86" y2="1.66" gradientUnits="objectBoundingBox">
      <stop offset="0" stop-color="#ffc444"/>
      <stop offset="0.996" stop-color="#f36f56"/>
    </linearGradient>
    <linearGradient id="linear-gradient-16" x1="12.129" y1="-8.998" x2="12.344" y2="-7.192" xlink:href="#linear-gradient-15"/>
    <linearGradient id="linear-gradient-17" x1="2.401" y1="-0.328" x2="2.792" y2="1.187" gradientUnits="objectBoundingBox">
      <stop offset="0" stop-color="#ff9085"/>
      <stop offset="1" stop-color="#fb6fbb"/>
    </linearGradient>
    <linearGradient id="linear-gradient-18" x1="-23.874" y1="2.261" x2="-23.874" y2="-7.281" xlink:href="#linear-gradient-15"/>
    <linearGradient id="linear-gradient-19" x1="-3.727" y1="0.108" x2="-3.898" y2="1.072" gradientUnits="objectBoundingBox">
      <stop offset="0" stop-color="#311944"/>
      <stop offset="1" stop-color="#893976"/>
    </linearGradient>
    <linearGradient id="linear-gradient-21" x1="-10.778" y1="1.366" x2="-11.767" y2="-2.607" xlink:href="#linear-gradient-17"/>
    <linearGradient id="linear-gradient-22" x1="47.182" y1="-57.255" x2="47.182" y2="-67.358" xlink:href="#linear-gradient-15"/>
    <linearGradient id="linear-gradient-23" x1="67.261" y1="-25.302" x2="65.225" y2="-28.083" xlink:href="#linear-gradient-17"/>
    <linearGradient id="linear-gradient-24" x1="-4.803" y1="0.532" x2="-7.215" y2="0.475" xlink:href="#linear-gradient-19"/>
    <linearGradient id="linear-gradient-25" x1="-1.535" y1="-0.387" x2="-1.301" y2="0.92" xlink:href="#linear-gradient-17"/>
    <linearGradient id="linear-gradient-26" x1="2.833" y1="-0.262" x2="3.296" y2="1.504" xlink:href="#linear-gradient-17"/>
    <linearGradient id="linear-gradient-27" x1="-6.171" y1="0.365" x2="-6.823" y2="1.225" xlink:href="#linear-gradient-15"/>
    <linearGradient id="linear-gradient-28" x1="-4.641" y1="0.252" x2="-4.293" y2="1.822" xlink:href="#linear-gradient-17"/>
    <linearGradient id="linear-gradient-29" x1="-1.165" y1="1.03" x2="-0.631" y2="-0.052" gradientUnits="objectBoundingBox">
      <stop offset="0" stop-color="#444b8c"/>
      <stop offset="0.996" stop-color="#26264f"/>
    </linearGradient>
  </defs>
  <g id="img_sub3" transform="translate(-499.527 -425.063)">
    <path id="패스_84" data-name="패스 84" class="cls-3" d="M568.845,427.112c-14.558,5.784-15.953,20.569-29.061,21.838-11.422,1.106-15.763-9.6-23.777-7.679-12.208,2.921-19.883,32-14.98,55.914,5.063,24.69,26.334,57.513,61.574,59.753,39.565,2.515,69.5-35.251,71.329-68.392.2-3.584,1.365-33.614-21.613-51.354C611.169,436.3,588.526,419.294,568.845,427.112Z" transform="translate(0 0)"/>
    <g id="그룹_138" data-name="그룹 138" transform="translate(562.376 452.094)">
      <g id="그룹_131" data-name="그룹 131" transform="translate(19.975)">
        <g id="그룹_130" data-name="그룹 130">
          <path id="패스_85" data-name="패스 85" class="cls-1" d="M2176.55,1051.822a41.243,41.243,0,0,1-2.127-22.068c2.026-10.27,7.17-12.476,11.5-23.523,6.18-15.769-1.737-26.8,5.023-31.771a11.1,11.1,0,0,1,11.94-.374c9.536,6.343,7.905,35.352-6.528,47.113-6.528,5.319-12.385,4.9-17.195,11.667C2174.914,1038.845,2175.508,1046.535,2176.55,1051.822Z" transform="translate(-2173.742 -972.523)"/>
          <g id="그룹_129" data-name="그룹 129" class="cls-4">
            <g id="그룹_128" data-name="그룹 128" class="cls-5" transform="translate(1.168 -2.692)">
              <path id="패스_86" data-name="패스 86" class="cls-6" d="M2197.557,986.887l-.172-.038a39.974,39.974,0,0,1,2.043-6.534c1.986-4.842,4.259-7.539,7.135-10.953a92.544,92.544,0,0,0,6.411-8.312c4.534-6.7,5.933-9.045,7.13-12.783a36.558,36.558,0,0,0,1.186-17.2,35.643,35.643,0,0,0-5.031-12.934l.148-.094a35.81,35.81,0,0,1,5.055,13,36.727,36.727,0,0,1-1.191,17.282c-1.2,3.759-2.606,6.112-7.151,12.828a92.675,92.675,0,0,1-6.422,8.327c-2.867,3.4-5.132,6.089-7.107,10.906A39.772,39.772,0,0,0,2197.557,986.887Z" transform="translate(-2197.385 -918.042)"/>
              <path id="패스_87" data-name="패스 87" class="cls-6" d="M2429.93,1052.115l-.007-.145c-.268-5.384-3.824-8.762-6.759-10.647a23.606,23.606,0,0,0-6.382-2.834l.042-.171a23.8,23.8,0,0,1,6.435,2.856c2.944,1.89,6.5,5.265,6.832,10.638a19.628,19.628,0,0,0,4.924-4.672,17.6,17.6,0,0,0,3.094-14.373l.172-.035a17.768,17.768,0,0,1-3.129,14.518,19.434,19.434,0,0,1-5.1,4.791Z" transform="translate(-2405.94 -1027.065)"/>
              <path id="패스_88" data-name="패스 88" class="cls-6" d="M2455.127,1456.313a18.159,18.159,0,0,1-6.317-1.12l-.068-.029.017-.072a15.5,15.5,0,0,0-1.442-11.5,12.622,12.622,0,0,0-3.205-3.742l.1-.144a12.817,12.817,0,0,1,3.257,3.8,15.65,15.65,0,0,1,1.478,11.551c.831.322,9.008,3.276,15.63-2.227l.113.135A14.66,14.66,0,0,1,2455.127,1456.313Z" transform="translate(-2431.919 -1413.931)"/>
              <path id="패스_89" data-name="패스 89" class="cls-6" d="M2377.182,1666.892a14.853,14.853,0,0,1-3.445-.387,10.086,10.086,0,0,1-3.922-1.753l-.048-.041.023-.059c2.174-5.448-1.382-14.139-1.418-14.226l.163-.067c.036.087,3.593,8.781,1.443,14.3.553.428,5.783,4.157,15.207.369l.066.163A21.614,21.614,0,0,1,2377.182,1666.892Z" transform="translate(-2359.924 -1614.17)"/>
            </g>
          </g>
        </g>
      </g>
      <g id="그룹_135" data-name="그룹 135" transform="translate(5.428 18.683)">
        <g id="그룹_134" data-name="그룹 134">
          <path id="패스_91" data-name="패스 91" class="cls-2" d="M1880.118,1422.539c-.962-4.849-1.669-12.448,2.082-19.384,6.543-12.1,19.288-8.563,30.959-21.676,9.414-10.576,6.089-18.456,16.665-25.622,1.77-1.2,11.116-7.788,18.337-4.231,4.069,2,5.658,6.337,5.957,7.15,4.51,12.29-7.521,32.143-23.728,41.565-9.312,5.414-12.422,3.841-28.906,10.335A93.857,93.857,0,0,0,1880.118,1422.539Z" transform="translate(-1879.352 -1350.583)"/>
          <g id="그룹_133" data-name="그룹 133" class="cls-7">
            <g id="그룹_132" data-name="그룹 132" class="cls-5" transform="translate(-0.646 -4.608)">
              <path id="패스_92" data-name="패스 92" class="cls-6" d="M1866.453,1339.805l-.173-.03c2.053-11.73,6.4-19.706,12.932-23.706a19.95,19.95,0,0,1,8.511-2.732,21.818,21.818,0,0,0,9.93-3.436c3.839-2.492,5.169-4.816,6.854-7.759a45.948,45.948,0,0,1,7.726-10.385,48.969,48.969,0,0,1,9.048-7.389,23.3,23.3,0,0,0,7.163-6.518c3.9-5.46,5.8-12.363,5.669-20.516l.176,0c.136,8.192-1.782,15.13-5.7,20.621a23.441,23.441,0,0,1-7.209,6.562,48.81,48.81,0,0,0-9.02,7.366,45.794,45.794,0,0,0-7.7,10.349c-1.7,2.963-3.036,5.3-6.91,7.819a21.97,21.97,0,0,1-10,3.462,19.811,19.811,0,0,0-8.444,2.708C1872.821,1320.192,1868.5,1328.127,1866.453,1339.805Z" transform="translate(-1866.28 -1257.332)"/>
              <path id="패스_93" data-name="패스 93" class="cls-6" d="M2929.7,1375.233l.033-.113c.048-.164,4.762-16.507-1.41-23l.128-.121c1.8,1.9,3.8,5.882,3.094,14.09a52.671,52.671,0,0,1-1.61,8.97,31.553,31.553,0,0,0,19.237-6.6,29.809,29.809,0,0,0,6.391-6.584l.148.1a30,30,0,0,1-6.426,6.624,31.731,31.731,0,0,1-19.467,6.639Z" transform="translate(-2875.841 -1347.318)"/>
              <path id="패스_94" data-name="패스 94" class="cls-6" d="M2715.792,1659.929c-.894,0-1.74-.03-2.531-.081a37.009,37.009,0,0,1-10.522-2.134l-.07-.029.018-.073c2.06-8.508-.379-20.443-.4-20.562l.172-.036c.025.12,2.457,12.023.42,20.565a38.525,38.525,0,0,0,33.164-3.7l.1.148A37.305,37.305,0,0,1,2715.792,1659.929Z" transform="translate(-2660.97 -1618.251)"/>
              <path id="패스_95" data-name="패스 95" class="cls-6" d="M2374.9,1984.036c-14.779,0-23.408-5.805-23.5-5.868l-.076-.052.057-.074c6.153-8.021,3.246-20.858,3.216-20.986l.171-.04c.03.129,2.938,12.967-3.19,21.058.953.617,10.579,6.551,26.387,5.7l.009.176Q2376.392,1984.038,2374.9,1984.036Z" transform="translate(-2327.351 -1922.44)"/>
            </g>
          </g>
        </g>
      </g>
      <g id="그룹_137" data-name="그룹 137" transform="translate(0 57.505)">
        <g id="그룹_136" data-name="그룹 136">
          <path id="패스_97" data-name="패스 97" class="cls-8" d="M1769.521,2169.395a52.659,52.659,0,0,1,12.9-7.3c10.5-4.1,15.433-2.039,19.784-6.67,4.5-4.8,1.344-9.275,6.748-14.641.454-.451,6.262-6.069,11.737-4.221,3.83,1.293,5.442,5.545,6.2,7.541,2.934,7.744,1.755,19.724-6.41,25.876-7.741,5.833-17.853,3.494-21.064,2.729-5.633-1.342-7.026-3.477-12.748-4.672A32.41,32.41,0,0,0,1769.521,2169.395Z" transform="translate(-1769.521 -2136.185)"/>
        </g>
      </g>
    </g>
    <g id="그룹_143" data-name="그룹 143" transform="translate(502.036 481.537)">
      <g id="그룹_141" data-name="그룹 141" transform="translate(0 0)">
        <g id="그룹_140" data-name="그룹 140">
          <path id="패스_98" data-name="패스 98" class="cls-9" d="M755.951,2965.9l-138.068-1.193v3.529a1.875,1.875,0,0,0,1.418,1.917l39.042,6.949a5.411,5.411,0,0,0,1.4.065l94.708-7.923a1.785,1.785,0,0,0,1.5-1.872Z" transform="translate(-614.544 -2895.705)"/>
          <g id="그룹_139" data-name="그룹 139">
            <path id="패스_99" data-name="패스 99" class="cls-9" d="M640.849,1632.873l-87.7,6.456a2.658,2.658,0,0,1-2.845-2.742v-65.305a2.9,2.9,0,0,1,2.845-2.951h87.7a2.519,2.519,0,0,1,2.338,2.668v59.035A2.754,2.754,0,0,1,640.849,1632.873Z" transform="translate(-550.307 -1568.33)"/>
            <path id="패스_100" data-name="패스 100" class="cls-6" d="M669.145,1632.873l-87.7,6.456a2.658,2.658,0,0,1-2.845-2.742v-65.305a2.9,2.9,0,0,1,2.845-2.951h87.7a2.519,2.519,0,0,1,2.338,2.668v59.035A2.754,2.754,0,0,1,669.145,1632.873Z" transform="translate(-577.205 -1568.33)"/>
            <path id="패스_101" data-name="패스 101" class="cls-10" d="M739.793,1701.645l-81.68,5.608A2.179,2.179,0,0,1,655.8,1705v-57.175a2.377,2.377,0,0,1,2.315-2.419l81.68-.352a2.063,2.063,0,0,1,1.929,2.186v52.076A2.254,2.254,0,0,1,739.793,1701.645Z" transform="translate(-650.585 -1641.264)"/>
            <path id="패스_102" data-name="패스 102" class="cls-6" d="M1547.307,1583.354a1.014,1.014,0,1,1-1.009-1.1A1.061,1.061,0,0,1,1547.307,1583.354Z" transform="translate(-1496.118 -1581.568)"/>
            <path id="패스_103" data-name="패스 103" class="cls-11" d="M581.448,1639.328,668.7,1632.9l.444-.033a2.354,2.354,0,0,0,1.544-.782c-6.279-.344-10.179-2.572-12.694-4.874-5.052-4.624-4.176-9.183-9.624-12.223-6.8-3.792-12.138,1.013-17.295-3.728-3.126-2.874-1.591-5.017-5.438-9.312-4.26-4.757-7.034-3.158-11.316-7.439-5.414-5.413-2.706-9.625-7.37-13.511-5.657-4.715-11.759-.351-17.144-4.873a13.772,13.772,0,0,1-4.263-7.8h-4.1a2.9,2.9,0,0,0-2.845,2.951v65.305A2.658,2.658,0,0,0,581.448,1639.328Z" transform="translate(-577.205 -1568.329)"/>
          </g>
          <path id="패스_104" data-name="패스 104" class="cls-12" d="M710.676,2866.8l-92.793,6.8,40.459,7.2a5.39,5.39,0,0,0,1.4.065l96.208-8.049-43.8-5.967A7.09,7.09,0,0,0,710.676,2866.8Z" transform="translate(-614.544 -2802.611)"/>
          <path id="패스_105" data-name="패스 105" class="cls-10" d="M891.7,2895.408l77.2-5.742,23.894,3.231-76.537,6.137Z" transform="translate(-874.826 -2824.369)"/>
        </g>
      </g>
      <g id="그룹_142" data-name="그룹 142" transform="translate(33.605 10.206)">
        <path id="패스_106" data-name="패스 106" class="cls-13" d="M1271.457,1786.447c-2.646-8.5-11.155-13.4-19-10.956s-12.068,11.314-9.422,19.81,11.155,13.4,19,10.956S1274.1,1794.943,1271.457,1786.447Zm-12.305,10.373.054,2.318-2.228.052-.05-2.159a9.138,9.138,0,0,1-3.887-.887l.62-2.675a8.029,8.029,0,0,0,3.8.912c1.3-.03,2.17-.551,2.149-1.46-.02-.864-.76-1.392-2.455-1.922-2.451-.762-4.137-1.86-4.188-4.065-.046-2,1.326-3.6,3.747-4.135l-.05-2.159,2.228-.052.046,2a8.189,8.189,0,0,1,3.314.673l-.6,2.584a7.543,7.543,0,0,0-3.291-.7c-1.478.034-1.94.682-1.925,1.318.017.75.824,1.209,2.773,1.891,2.727.892,3.847,2.117,3.895,4.162C1263.147,1794.544,1261.756,1796.3,1259.152,1796.82Z" transform="translate(-1241.625 -1774.863)"/>
        <path id="패스_107" data-name="패스 107" class="cls-13" d="M1260.905,2525.894a2.065,2.065,0,0,1-1.935,2.054l-26.846,1.476a2.114,2.114,0,0,1-2.344-2.005v-4.444a2.352,2.352,0,0,1,2.356-2.2l26.818-.817a1.875,1.875,0,0,1,1.951,1.886Z" transform="translate(-1229.78 -2483.132)"/>
      </g>
    </g>
    <g id="그룹_146" data-name="그룹 146" transform="translate(538.28 448.195)">
      <path id="패스_108" data-name="패스 108" class="cls-14" d="M1349,960.521c0,17.921-14.013,32.018-31.923,31.468-18.639-.572-34.316-16.67-34.316-35.934s15.676-33.248,34.316-31.307C1334.987,926.613,1349,942.6,1349,960.521Z" transform="translate(-1282.761 -923.023)"/>
      <path id="패스_109" data-name="패스 109" class="cls-15" d="M1446.936,929.251c0,17.921-14.013,32.018-31.923,31.468-18.639-.572-34.315-16.67-34.315-35.934s15.676-33.248,34.315-31.307C1432.923,895.344,1446.936,911.331,1446.936,929.251Z" transform="translate(-1375.857 -893.299)"/>
      <path id="패스_110" data-name="패스 110" class="cls-16" d="M1476.673,958.881c0,17.132-13.408,30.586-30.518,30.032-17.774-.575-32.7-15.938-32.7-34.293s14.923-31.706,32.7-29.885C1463.265,926.487,1476.673,941.749,1476.673,958.881Z" transform="translate(-1407 -923.023)"/>
      <path id="패스_111" data-name="패스 111" class="cls-17" d="M1497.845,980.037c0,16.567-12.974,29.561-29.511,29.006-17.156-.576-31.544-15.414-31.544-33.122s14.387-30.606,31.544-28.868C1484.871,948.727,1497.845,963.47,1497.845,980.037Z" transform="translate(-1429.179 -944.247)"/>
      <g id="그룹_145" data-name="그룹 145" transform="translate(17.736 17.531)">
        <g id="그룹_144" data-name="그룹 144">
          <path id="패스_112" data-name="패스 112" class="cls-18" d="M1679.49,1250.038a4.7,4.7,0,0,1,0,1.854q-.093.464-.162.9t-.162.9l-.046.186q-.233.928-.44,1.877t-.44,1.877h3.106a6.8,6.8,0,0,1,1.6.185,3,3,0,0,1,1.414.835,1.686,1.686,0,0,1,.487.765,3.14,3.14,0,0,1,.162,1,4.73,4.73,0,0,1-.162,1.182,1.974,1.974,0,0,1-.44.9,2.51,2.51,0,0,1-.927.649,4.249,4.249,0,0,1-1.112.3,7.869,7.869,0,0,1-.95.07h-4.659q-.139.649-.278,1.252t-.278,1.159q-.556,2.318-1.159,5.1t-1.252,5.1q-.232.789-.487,1.576a13.509,13.509,0,0,1-.626,1.576,5.735,5.735,0,0,1-.765,1.228,2.829,2.829,0,0,1-1,.788,2.206,2.206,0,0,1-1.182.186,3.082,3.082,0,0,1-1.368-.58,4.614,4.614,0,0,1-1.646-2.179q-.533-1.391-1.089-2.549a9.839,9.839,0,0,1-.556-1.437q-.372-1.112-.788-2.433t-.811-2.55a17.481,17.481,0,0,0-.672-1.831q-.417,1.02-.834,2.318t-.788,2.549q-.371,1.252-.672,2.248t-.44,1.46q-.371.927-.811,2.04a7.457,7.457,0,0,1-1.066,1.9,2.954,2.954,0,0,1-1.506,1.043,2.571,2.571,0,0,1-2.086-.533,2.968,2.968,0,0,1-1.3-1.576q-.233-.649-.464-1.252a8.317,8.317,0,0,1-.371-1.252l-.927-3.476-1.9-7.463q-.278-1.113-.556-2.364h-2.271a14.51,14.51,0,0,1-2.179.023,2.854,2.854,0,0,1-1.9-.858,2.723,2.723,0,0,1-1.066-2.086,3.076,3.076,0,0,1,.44-1.553,2.51,2.51,0,0,1,1.182-1.089,4.894,4.894,0,0,1,1.947-.348q1.019.024,2.086-.023h.232q-.232-1.066-.44-2.387t-.579-3.361a7.42,7.42,0,0,1-.116-.95,3.576,3.576,0,0,1,.07-.9,1.949,1.949,0,0,1,.649-1.205,1.752,1.752,0,0,1,.556-.371,4.616,4.616,0,0,1,.7-.232,3.653,3.653,0,0,1,1.159-.185,2.219,2.219,0,0,1,1.159.371,1.755,1.755,0,0,1,.649.6l.556.973q.092.325.185.58c.062.17.123.348.185.533q.092.324.139.579c.03.17.062.332.093.487q.231,1.437.533,2.781t.672,2.689h6.675q.278-.88.556-1.622a4.434,4.434,0,0,1,.626-1.182,1.5,1.5,0,0,1,.858-.556,2.415,2.415,0,0,1,1.3.162,2.326,2.326,0,0,1,1.159,1.229q.463.951.881,1.97h6.3q.324-1.2.626-2.364t.579-2.318l.232-.788a1.746,1.746,0,0,0,.116-.487,3.133,3.133,0,0,1,.116-.579q.092-.278.185-.533t.185-.58q.092-.231.209-.487a2.3,2.3,0,0,1,.3-.487,1.274,1.274,0,0,1,.325-.371,2.446,2.446,0,0,1,.371-.232,2.346,2.346,0,0,1,1.113-.371,3.654,3.654,0,0,1,1.159.185,3.128,3.128,0,0,1,1.344.6A2.007,2.007,0,0,1,1679.49,1250.038Zm-22.714,20.211q.324-1.158.811-2.967t1-3.708h-3.43q.185.881.394,1.854t.417,1.877q.209.9.417,1.669T1656.777,1270.249Zm12.516-.881q.139-.463.3-1.159t.324-1.483q.162-.788.348-1.622t.371-1.53h-3.106q.51,1.808.95,3.43A13.734,13.734,0,0,0,1669.292,1269.368Z" transform="translate(-1641.665 -1248.045)"/>
        </g>
      </g>
      <path id="패스_113" data-name="패스 113" class="cls-19" d="M1462.993,987.206c1-9.848,10.047-14.016,8.866-23.075-.728-5.583-4.959-10.288-9.68-13.962-14.318,1.5-25.389,13.357-25.389,28.863,0,17.708,14.387,32.546,31.543,33.122a29.773,29.773,0,0,0,4.875-.238C1466.395,1005.136,1462.137,995.666,1462.993,987.206Z" transform="translate(-1429.179 -947.359)"/>
    </g>
    <g id="그룹_147" data-name="그룹 147" transform="translate(510.347 426.855)">
      <path id="패스_114" data-name="패스 114" class="cls-20" d="M811.061,498.014v.14a59.811,59.811,0,0,0-4.73-5.339c-.024-.06-.066-.119-.09-.178a31.512,31.512,0,0,0-3.011-5.559,30.684,30.684,0,0,0-4.81-5.5c-.227-.224-.49-.421-.733-.633-.124-.1-.249-.21-.375-.313l-.184-.157c-.065-.052-.131-.1-.2-.15q-.391-.3-.784-.6l-.2-.15-.206-.14c-.136-.094-.273-.189-.409-.282-.538-.39-1.119-.727-1.686-1.084-.289-.173-.591-.332-.885-.5-.145-.082-.294-.166-.442-.247l-.456-.227a28.556,28.556,0,0,0-7.79-2.6l-1.021-.168c-.341-.047-.687-.077-1.026-.117l-.514-.058-.516-.028-.516-.031c-.171-.009-.341-.026-.514-.023l-1.03-.007c-.084,0-.175-.005-.253,0l-.229.012L778,474.1l-.455.023c-.04,0-.068,0-.121.005l-.467.035-.624.044-.467.035-.079.005-.028,0s-.163,0,.11.005l-1.009.149c-.166.026-.334.042-.5.079l-.495.1-.495.1-.247.049c-.082.016-.163.04-.243.059-.324.082-.647.163-.969.247-.162.035-.32.091-.477.138l-.472.149-.472.142-.462.17c-.308.115-.615.217-.914.339s-.6.252-.892.379a25.628,25.628,0,0,0-6.265,3.941l-.339.283-.322.3c-.213.2-.434.39-.636.594-.009.007-.016.018-.024.025-.4.409-.8.794-1.151,1.217-.094.1-.187.208-.278.313l-.14.154-.129.164c-.173.213-.345.428-.516.64-.042.052-.087.1-.129.157l-.117.164c-.08.11-.159.22-.238.327-.154.22-.322.423-.46.65a24.331,24.331,0,0,0-2.663,5.165,23.614,23.614,0,0,0-1.18,4.606c-.023.173-.045.343-.068.511s-.052.329-.059.491c-.026.325-.052.635-.079.93s-.017.589-.03.86c-.005.136-.014.269-.016.4s.009.259.01.381c0,.247.007.479.01.7a.881.881,0,0,0,.012.135l.016.119c.007.077.018.066.025.136s.012.087.018.087h11.511l-6.994,7.755-16.26,17.783L718.472,499.8H730.7a1.9,1.9,0,0,0,.056-.374c.047-.355.1-.7.154-1.123.032-.21.059-.406.093-.631.017-.11.033-.215.051-.331s.031-.236.054-.336c.086-.423.175-.869.269-1.345.051-.236.1-.477.152-.726s.122-.5.189-.759c.133-.516.262-1.058.423-1.616s.35-1.13.533-1.728c.089-.3.206-.6.315-.9l.339-.925a44.189,44.189,0,0,1,3.978-7.933,43.568,43.568,0,0,1,6.533-7.97c.317-.323.666-.619,1-.929.171-.152.341-.306.512-.46l.261-.231.266-.22c.358-.292.72-.588,1.081-.883l.273-.22.283-.21.57-.421c.747-.572,1.549-1.088,2.347-1.619.4-.259.818-.5,1.233-.75.2-.122.413-.245.621-.371l.64-.346a41.408,41.408,0,0,1,11.065-4.125l1.469-.29c.49-.091.988-.154,1.481-.229l.741-.1.747-.073.745-.072c.248-.023.495-.051.745-.06.5-.023.995-.082,1.493-.1.122-.005.248-.052.372-.052h.374l.743.042.743.024c.248,0,.5.033.743.045l1.478.089c.336.005.115.009.2.01l.038.005.079.009.154.021.311.039.619.077.311.038.154.019.19.026.784.115.783.119.388.061c.128.021.241.049.364.073.477.1.955.2,1.432.3.238.047.472.115.706.177l.7.187.7.187.691.219c.458.149.918.289,1.367.449l1.341.5a38.413,38.413,0,0,1,9.541,5.466c.175.135.348.271.521.406s.336.282.5.425c.332.283.666.556.986.846.631.593,1.261,1.161,1.836,1.777.147.15.29.3.437.451l.215.224.206.233q.412.467.813.927l.2.231.192.238c.124.159.252.316.376.474.248.316.509.617.733.944a38.523,38.523,0,0,1,3.23,5.157c.434.831.82,1.658,1.161,2.474a36.469,36.469,0,0,1,2.158,6.98c.047.266.1.526.145.783s.1.505.129.755c.066.5.133.976.194,1.436s.081.906.119,1.327c.016.21.037.414.049.617s.049.4.058.588C811,497.311,811.061,497.677,811.061,498.014Z" transform="translate(-718.472 -461.33)"/>
      <path id="패스_115" data-name="패스 115" class="cls-21" d="M1622.093,682.911v.14a59.83,59.83,0,0,0-4.73-5.338c-.024-.06-.066-.119-.09-.178a31.5,31.5,0,0,0-3.011-5.559,30.682,30.682,0,0,0-4.81-5.5c-.227-.224-.49-.422-.733-.633-.124-.1-.25-.21-.375-.313l-.184-.157c-.065-.052-.131-.1-.2-.15q-.39-.3-.783-.6l-.2-.15-.206-.14c-.136-.094-.273-.189-.409-.281-.538-.39-1.119-.727-1.686-1.084-.289-.173-.591-.332-.885-.5-.145-.082-.294-.166-.442-.247l-.457-.227a28.557,28.557,0,0,0-7.79-2.6l-1.021-.168c-.341-.047-.687-.077-1.026-.117l-.514-.058-.516-.028-.516-.031c-.171-.009-.341-.026-.514-.023l-1.03-.007c-.084,0-.175-.005-.253,0l-.229.012-.458.024-.455.023c-.04,0-.068,0-.121.005l-.467.035-.624.044-.467.035-.079.005-.028,0s-.163,0,.11.005l-1.009.149c-.166.026-.334.042-.5.079l-.495.1-.495.1-.247.049c-.082.016-.163.04-.243.059-.323.082-.647.163-.969.247-.163.035-.32.091-.478.138l-.472.149-.472.142-.462.17c-.308.115-.615.217-.915.339s-.6.252-.892.38a25.627,25.627,0,0,0-6.265,3.941l-.339.283-.322.3c-.213.2-.434.39-.637.594-.009.007-.016.018-.024.025a30.277,30.277,0,0,1,46.342.472c.434.831.82,1.658,1.161,2.474a36.472,36.472,0,0,1,2.158,6.98c.047.266.1.526.145.783s.1.505.129.755c.067.5.133.976.194,1.436s.081.906.119,1.327c.016.21.037.414.049.617s.049.4.058.588C1622.032,682.208,1622.093,682.574,1622.093,682.911Z" transform="translate(-1529.504 -646.227)"/>
    </g>
    <g id="그룹_148" data-name="그룹 148" transform="translate(499.675 493.69)">
      <path id="패스_116" data-name="패스 116" class="cls-22" d="M1134.239,1857.285a2.528,2.528,0,0,1-.793-1.045c-.209-.537-.062-.777-.324-1.112a1.333,1.333,0,0,0-1.48-.4.6.6,0,0,0-.294.233c-.208.35.253.958.621,1.281a5.546,5.546,0,0,0,.685.432,2.827,2.827,0,0,1,.937,1.189Z" transform="translate(-1100.224 -1852.645)"/>
      <path id="패스_117" data-name="패스 117" class="cls-23" d="M879.27,1815.963a2.533,2.533,0,0,0,1.138-.653c.4-.413.36-.691.733-.9a1.333,1.333,0,0,1,1.519.208.6.6,0,0,1,.18.329c.054.4-.607.783-1.072.937a5.58,5.58,0,0,1-.8.131,2.827,2.827,0,0,0-1.327.729Z" transform="translate(-860.652 -1814.265)"/>
      <path id="패스_118" data-name="패스 118" class="cls-24" d="M707.741,1835.52c.2.974-.848,1.84-1.607,2.69-1.523,1.706-3.117,4.75-2.532,7.362a5.676,5.676,0,0,0,2.792,3.7c1.558.787,2.491.071,4.111,1.006.12.069,2.169,1.284,2.228,2.923.073,2.022-2.9,4.174-5.445,4.338-4.655.3-10.264-5.889-10-12.032.284-6.687,7.47-12,9.537-11.1A1.7,1.7,0,0,1,707.741,1835.52Z" transform="translate(-687.652 -1833.323)"/>
      <path id="패스_119" data-name="패스 119" class="cls-25" d="M928.8,3259.16l.167,1.694-.789-.143-.53-1.592Z" transform="translate(-906.637 -3187.719)"/>
      <path id="패스_120" data-name="패스 120" class="cls-26" d="M853.675,2626.473a42.63,42.63,0,0,0,.9,7.685,34.828,34.828,0,0,1,.906,4.215c.325,3.4-.772,3.889-.973,7.735a23.423,23.423,0,0,0,1.351,8.908,24.329,24.329,0,0,0,1.1,2.666c.389.339.984.209,1.612.081.231-3.851.52-7.476.751-11.327l2.237-17.381Z" transform="translate(-836.322 -2586.335)"/>
      <path id="패스_121" data-name="패스 121" class="cls-27" d="M858.572,2657.762c.231-3.851.52-7.476.751-11.327l2.237-17.381-7.885-2.581c.005.2.016.392.023.587,3.687,3.2,4.409,5.739,4.373,7.469-.044,2.1-1.191,3.139-.967,6.181.16,2.176.814,2.559.814,4.522,0,2.528-1.085,3.949-1.614,5.41a9.144,9.144,0,0,0,.294,6.256c.13.294.252.557.361.782C857.349,2658.021,857.945,2657.89,858.572,2657.762Z" transform="translate(-836.322 -2586.335)"/>
      <path id="패스_122" data-name="패스 122" class="cls-28" d="M929.827,3278.117c-.374-.463-.716-.429-.779-.743a.641.641,0,0,1,.337-.654.872.872,0,0,1,.789.165c.585.4.41,1,.963,1.27a1.5,1.5,0,0,1,.473.295c.078.076.272.266.223.393-.057.146-.409.133-.744.122a1.467,1.467,0,0,1-.794-.146C930.031,3278.644,930.115,3278.475,929.827,3278.117Z" transform="translate(-907.962 -3204.404)"/>
      <path id="패스_123" data-name="패스 123" class="cls-29" d="M924.375,2995.8l-1.476.577-.43-.677,1.154-.775Z" transform="translate(-901.717 -2936.582)"/>
      <path id="패스_124" data-name="패스 124" class="cls-30" d="M911.494,3006.353c.087-.588-.171-.817.018-1.076a.639.639,0,0,1,.709-.2c.332.132.4.588.415.691.1.7-.454.978-.28,1.57a1.5,1.5,0,0,1,.1.547c0,.109-.011.38-.137.43-.146.058-.376-.21-.594-.464-.262-.305-.393-.458-.431-.682C911.245,3006.86,911.427,3006.807,911.494,3006.353Z" transform="translate(-891.088 -2946.197)"/>
      <path id="패스_125" data-name="패스 125" class="cls-31" d="M945.1,2572.355a40.75,40.75,0,0,1,4.035,13.331,7.686,7.686,0,0,1-.36,4.4c-2.024,4.365-9.087,4.653-10.16,4.684l-1.059-2.169a10.848,10.848,0,0,1,3.725-4.1c1.493-.939,2.077-.738,2.45-1.369,1.5-2.532-6.579-8.016-5.373-11.666C938.775,2574.2,940.381,2572.918,945.1,2572.355Z" transform="translate(-916.057 -2534.892)"/>
      <path id="패스_126" data-name="패스 126" class="cls-32" d="M525.612,2160.9c2.971.51,5.232,1.041,6.242,2.6,1.066,1.643-.629,2.88-1.09,6.486-.706,5.52,2.468,7.582,1.555,13.14a14.076,14.076,0,0,1-.619,2.4,5.686,5.686,0,0,1-2.347,2.917,14.708,14.708,0,0,1-2.972,1.437c-3.012,1.054-4.5.441-8.55.673-6.629.379-7.621,2.3-10.616,1.119-3.027-1.195-5.217-4.423-4.575-5.8.384-.826,1.6-.31,3.337-1.324,2.242-1.307,1.865-3.092,3.684-4.622,2.612-2.2,5.125.022,7.36-1.89,2.26-1.934,2.53-6.636,1.569-9.436-.628-1.829-.639-3.817-1.1-5.694a1.206,1.206,0,0,1,.028-.686c.37-1.078,2.344-1.285,3.835-1.428A17.03,17.03,0,0,1,525.612,2160.9Z" transform="translate(-502.527 -2143.591)"/>
      <path id="패스_127" data-name="패스 127" class="cls-33" d="M515.92,2486.039c.918-.611.421-2.345,1.78-3.266,1.262-.854,2.245.263,4.1-.307,2.385-.731,2.26-3.027,4.545-3.76,1.643-.527,2.139.522,4.509.568a9.425,9.425,0,0,0,7.433-3.44,8.446,8.446,0,0,0,1.555-3.254,13.661,13.661,0,0,1,.83,7,14.174,14.174,0,0,1-.864,3.049,4.223,4.223,0,0,1-1.5,1.873,14.852,14.852,0,0,1-3.575,1.835c-3.012,1.053-4.5.441-8.55.673-6.629.379-7.621,2.3-10.616,1.119a8.6,8.6,0,0,1-4.253-3.768C513.939,2486.27,515.254,2486.483,515.92,2486.039Z" transform="translate(-510.884 -2440.048)"/>
      <path id="패스_128" data-name="패스 128" class="cls-34" d="M934.152,2060.582a8.053,8.053,0,0,1,.87,2.615c.052,1.078-1.165,1-1.165,1l.046.68a1.475,1.475,0,0,0,.962,1.285l.48.177s-3.134.671-4.846-.538l.493-.048a1.474,1.474,0,0,0,1.323-1.318l.03-.291S931.8,2060.782,934.152,2060.582Z" transform="translate(-909.351 -2048.41)"/>
      <path id="패스_129" data-name="패스 129" class="cls-35" d="M972.454,1898.578c-.465.879.308,2,.8,3.029.993,2.06,1.686,5.425.4,7.774a5.676,5.676,0,0,1-3.7,2.787c-1.714.327-2.414-.618-4.229-.167-.134.033-2.438.636-2.948,2.2-.628,1.924,1.636,4.812,4.037,5.672,4.391,1.573,11.49-2.83,12.933-8.807,1.571-6.506-3.872-13.59-6.107-13.3A1.7,1.7,0,0,0,972.454,1898.578Z" transform="translate(-939.934 -1893.632)"/>
      <path id="패스_130" data-name="패스 130" class="cls-36" d="M556.961,2016.02c-.162-.013-.3-.219-.407-.158s-.1.363,0,.574a.759.759,0,0,0,.294.315,1.988,1.988,0,0,0-.351.794,2.75,2.75,0,0,0,.439,1.772c.776,1.653-.431,4.266-1.757,5.585-1.077,1.073-1.58.641-2.223,1.517-1.252,1.7.476,3.579-.171,5.874-.984,3.49-6.494,4.527-6.722,4.568l-.244.041c-2.472.393-6.218.988-8.856-1.041a7.694,7.694,0,0,1-2.73-6.486,7.517,7.517,0,0,1,2.118-4.832,6.861,6.861,0,0,1,4.484-2.1c1.273-.011,1.53.437,2.5.16a5.222,5.222,0,0,0,2.664-2.344c.937-1.383.556-1.678,1.231-2.359,1.321-1.333,2.871-.286,4.282-1.463,1.391-1.159.552-2.732,1.895-3.736,1.385-1.035,4.035-.674,4.6.559C558.494,2014.319,557.458,2016.061,556.961,2016.02Z" transform="translate(-532.649 -2002.32)"/>
    </g>
  </g>
</svg>
