<svg xmlns="http://www.w3.org/2000/svg" width="90" height="92" viewBox="0 0 90 92">
  <defs>
    <style>
      .cls-1 {
        opacity: 0.48;
      }

      .cls-2 {
        fill: #d4d5fc;
      }

      .cls-3 {
        fill: none;
        stroke: #455281;
        stroke-linejoin: round;
        stroke-width: 4px;
      }
    </style>
  </defs>
  <g id="img_chat1" transform="translate(-1154 -2886)">
    <g id="그룹_2" data-name="그룹 2" class="cls-1" transform="translate(1154 2886)">
      <g id="그룹_117" data-name="그룹 117" transform="translate(0 0)">
        <path id="패스_67" data-name="패스 67" class="cls-2" d="M-808.117,159.607s-26.681.607-31.933,23.271,4.2,62.123,40.127,60.1,48.32-18.617,48.32-36.222S-744.88,151.108-808.117,159.607Z" transform="translate(841.396 -158.386)"/>
        <ellipse id="타원_13" data-name="타원 13" class="cls-2" cx="19.257" cy="2.777" rx="19.257" ry="2.777" transform="translate(26.061 86.447)"/>
      </g>
    </g>
    <g id="그룹_149" data-name="그룹 149" transform="translate(-210.598 2022.713)">
      <path id="패스_131" data-name="패스 131" class="cls-3" d="M1386.4,920.83h10.819l1.1,9.681-3.723,2.83a44.1,44.1,0,0,0,11.468,19.809l4.021-1.369,8.191,5.986-4.84,9.383S1384.466,951.511,1386.4,920.83Z" transform="translate(0 -32.083)"/>
      <path id="패스_132" data-name="패스 132" class="cls-3" d="M1454.191,886.215s12.957-10.426,27.106-1.787c0,0,14.6,7.6,9.383,26.213,0,0-3.872,11.021-13.553,14.6" transform="translate(-54.683 0)"/>
      <line id="선_12" data-name="선 12" class="cls-3" y1="4.17" transform="translate(1414.402 881.003)"/>
      <line id="선_13" data-name="선 13" class="cls-3" x2="4.104" transform="translate(1433.019 903.119)"/>
      <path id="패스_133" data-name="패스 133" class="cls-3" d="M1530.787,926.957v13.181l7.149,7.968" transform="translate(-116.385 -37.019)"/>
    </g>
  </g>
</svg>
