<svg xmlns="http://www.w3.org/2000/svg" width="115.271" height="113.392" viewBox="0 0 115.271 113.392">
  <defs>
    <style>
      .cls-1, .cls-2, .cls-3, .cls-5 {
        fill: none;
        stroke: #455281;
        stroke-width: 4px;
      }

      .cls-1, .cls-2 {
        stroke-miterlimit: 10;
      }

      .cls-2, .cls-3 {
        stroke-linecap: round;
      }

      .cls-3, .cls-5 {
        stroke-linejoin: round;
      }

      .cls-4 {
        fill: #fff;
      }

      .cls-6 {
        fill: #455281;
      }
    </style>
  </defs>
  <g id="img_mall2" transform="translate(-1074.862 -374.043)">
    <path id="패스_433" data-name="패스 433" class="cls-1" d="M1104.532,383.2a12.615,12.615,0,0,0,5.6-1.528s6.75-1.909,8.661,1.528l-6.494,16.047" transform="translate(27.535 5.071)"/>
    <path id="패스_434" data-name="패스 434" class="cls-1" d="M1104.532,389.255s27.126,2.8,27.762,28.527v25.342" transform="translate(27.535 13.148)"/>
    <path id="패스_435" data-name="패스 435" class="cls-1" d="M1091.094,400.043s-1.4,4.329-1.018,6.622l.475,30.308" transform="translate(13.084 23.883)"/>
    <path id="패스_436" data-name="패스 436" class="cls-2" d="M1146.332,422.266s-9.042-11.46-25.342-2.8l-15.155-.217s-4.838.345-5.221,4.675c0,0-1.145,6.622,5.349,7.133h15.664" transform="translate(23.558 39.991)"/>
    <path id="패스_437" data-name="패스 437" class="cls-3" d="M1116.01,427.681l-19.706-8.052s-5.858-2.42-7.9,2.292c0,0-1.909,4.713,2.292,6.369l23.178,14.389h62.785" transform="translate(11.058 42.756)"/>
    <path id="패스_438" data-name="패스 438" class="cls-3" d="M1141.732,419.008h-18.243v23.671" transform="translate(46.401 42.756)"/>
    <rect id="사각형_303" data-name="사각형 303" class="cls-4" width="3.916" height="3.916" transform="translate(1174.952 476.712)"/>
    <path id="패스_439" data-name="패스 439" class="cls-5" d="M1118.121,376.043h-32.664a8.594,8.594,0,0,0-8.6,8.6v17a8.6,8.6,0,0,0,8.6,8.6h11.4l14.559,10.147a.455.455,0,0,0,.712-.409l-.784-9.738h6.782a8.6,8.6,0,0,0,8.6-8.6v-17A8.6,8.6,0,0,0,1118.121,376.043Z" transform="translate(0 0)"/>
    <g id="그룹_313" data-name="그룹 313" transform="translate(1087.187 383.753)">
      <path id="패스_440" data-name="패스 440" class="cls-6" d="M1082.436,382.674a1.123,1.123,0,0,1-.309-.862,2.642,2.642,0,0,1,.1-.517.967.967,0,0,1,.263-.441,2.022,2.022,0,0,1,1.125-.551c.4-.05.828-.088,1.293-.12.365-.016.692-.02.981-.014s.613.014.982.014c.557,0,1.169.008,1.832.024s1.287.04,1.877.072a5.873,5.873,0,0,1,.72.094,1.933,1.933,0,0,1,.646.251,1.509,1.509,0,0,1,.465.455,1.371,1.371,0,0,1,.206.684,2.314,2.314,0,0,1-.134.91,3.756,3.756,0,0,1-.417.824,5.57,5.57,0,0,1-.587.742q-.323.35-.61.636-.527.551-1.2,1.173t-1.2,1.173a8.8,8.8,0,0,1,1.808.429,5.083,5.083,0,0,1,1.542.864,3.952,3.952,0,0,1,1.067,1.377,4.559,4.559,0,0,1,.4,1.975,5.128,5.128,0,0,1-.443,2.131,5.246,5.246,0,0,1-1.233,1.712,5.68,5.68,0,0,1-1.869,1.137,6.64,6.64,0,0,1-2.368.4,8.229,8.229,0,0,1-1.187-.094,8.921,8.921,0,0,1-1.257-.287,6.519,6.519,0,0,1-1.183-.493,3.767,3.767,0,0,1-.971-.728,2.738,2.738,0,0,1-.489-.684,2.148,2.148,0,0,1-.24-.812,1.311,1.311,0,0,1,.156-.768,1.165,1.165,0,0,1,.67-.513,1.774,1.774,0,0,1,.694-.1,2.082,2.082,0,0,1,.646.154c.206.09.411.19.611.3s.4.223.586.335a4.273,4.273,0,0,0,1.854.646,3.069,3.069,0,0,0,1.9-.457,1.926,1.926,0,0,0,.768-.776,1.793,1.793,0,0,0,.2-.946,1.942,1.942,0,0,0-.313-.91,2.221,2.221,0,0,0-.752-.718,3.056,3.056,0,0,0-1.006-.359c-.367-.064-.736-.128-1.1-.193a6.948,6.948,0,0,1-1.053-.261,1.959,1.959,0,0,1-.862-.575,1,1,0,0,1-.263-.982,2.914,2.914,0,0,1,.539-1.029,8.094,8.094,0,0,1,.886-.958q.491-.455.778-.768c.11-.11.244-.245.4-.4s.293-.319.431-.479a5.2,5.2,0,0,0,.357-.467,1.342,1.342,0,0,0,.206-.419c.046-.128.024-.219-.072-.275a.8.8,0,0,0-.359-.1,4.538,4.538,0,0,0-.467,0c-.167.008-.3.012-.4.012h-1.6c-.225,0-.473,0-.742.01a7.173,7.173,0,0,1-.826-.022,5.48,5.48,0,0,1-.816-.132A1.485,1.485,0,0,1,1082.436,382.674Z" transform="translate(-1082.037 -379.648)"/>
      <path id="패스_441" data-name="패스 441" class="cls-6" d="M1093.732,387.65a6.568,6.568,0,0,1-1.594.192,3.937,3.937,0,0,1-1.592-.335,2.112,2.112,0,0,1-.994-.85,5.254,5.254,0,0,1-.61-1.209,5.5,5.5,0,0,1-.156-1.556,11.108,11.108,0,0,1,.18-1.532,3.267,3.267,0,0,1,.7-1.329,2.737,2.737,0,0,1,1.219-.874,4.307,4.307,0,0,1,1.125-.229,11.188,11.188,0,0,1,1.125-.01,4.368,4.368,0,0,1,.993.2,2.685,2.685,0,0,1,.874.491,2.334,2.334,0,0,1,.635.812,3,3,0,0,1,.277.984,8.456,8.456,0,0,1,.034,1.855,8.844,8.844,0,0,1-.347,1.808,2.367,2.367,0,0,1-.754,1.018A3.557,3.557,0,0,1,1093.732,387.65Zm-.888-1.8a.9.9,0,0,0,.323-.1,1.164,1.164,0,0,0,.251-.192,1.354,1.354,0,0,0,.4-.9c.022-.357.034-.688.034-.994a4.1,4.1,0,0,0-.1-.848.88.88,0,0,0-.5-.658,1.954,1.954,0,0,0-.742-.227,1.191,1.191,0,0,0-.719.154,1.152,1.152,0,0,0-.527.469,2.443,2.443,0,0,0-.215.634c-.016.176-.028.4-.036.68a4.951,4.951,0,0,0,.048.828,1.948,1.948,0,0,0,.254.73.808.808,0,0,0,.6.393c.126.018.273.034.441.048A1.613,1.613,0,0,0,1092.844,385.854Zm9.433-4.431a1.77,1.77,0,0,1-.192.984,9.133,9.133,0,0,1-.5.886c-.223.415-.445.83-.67,1.245s-.445.83-.67,1.245q-.907,1.628-1.808,3.232t-1.808,3.256q-.383.694-.754,1.4t-.778,1.424c-.143.239-.3.509-.467.814a5.2,5.2,0,0,1-.575.838,2.442,2.442,0,0,1-.728.6,1.5,1.5,0,0,1-.936.146.854.854,0,0,1-.551-.313,1.036,1.036,0,0,1-.24-.6,2.243,2.243,0,0,1,.263-1.053q.264-.5.527-.982c.224-.431.459-.86.706-1.281s.491-.842.732-1.257q.907-1.655,1.82-3.28t1.82-3.28q.332-.67.716-1.341t.742-1.317c.13-.223.263-.455.407-.7a6.227,6.227,0,0,1,.481-.68,3.331,3.331,0,0,1,.574-.565,1.623,1.623,0,0,1,.716-.309.951.951,0,0,1,.768.142.913.913,0,0,1,.405.7Zm.265,16.689a7.714,7.714,0,0,1-1.534.215,3.464,3.464,0,0,1-1.509-.313,2.586,2.586,0,0,1-1.053-.874,4.268,4.268,0,0,1-.671-1.231,4.628,4.628,0,0,1-.167-1.532,13.531,13.531,0,0,1,.194-1.558,3.327,3.327,0,0,1,.682-1.327,2.5,2.5,0,0,1,1.207-.85,4.225,4.225,0,0,1,1.125-.227,5.852,5.852,0,0,1,1.125.034,3.784,3.784,0,0,1,1.006.182,2.693,2.693,0,0,1,.886.491,1.788,1.788,0,0,1,.359.443,3.7,3.7,0,0,1,.288.575,5.147,5.147,0,0,1,.2.611,3.584,3.584,0,0,1,.11.575,8.069,8.069,0,0,1,.058,1.676,5.919,5.919,0,0,1-.371,1.6,1.849,1.849,0,0,1-.764,1.02A4.3,4.3,0,0,1,1102.542,398.113Zm-.91-1.8a.911.911,0,0,0,.6-.263,1.444,1.444,0,0,0,.443-.862,4.553,4.553,0,0,0,.06-.96,3.662,3.662,0,0,0-.132-.874,1.08,1.08,0,0,0-.537-.728,1.58,1.58,0,0,0-.744-.2,1.537,1.537,0,0,0-.742.156,1.093,1.093,0,0,0-.491.455,1.569,1.569,0,0,0-.179.646,6.659,6.659,0,0,0-.072.694,3.817,3.817,0,0,0,.036.8,1.985,1.985,0,0,0,.251.718.824.824,0,0,0,.6.4,2.111,2.111,0,0,0,.441.058A1.783,1.783,0,0,0,1101.633,396.317Z" transform="translate(-1075.326 -379.907)"/>
    </g>
    <g id="그룹_314" data-name="그룹 314" transform="translate(1112.24 419.683)">
      <path id="패스_442" data-name="패스 442" class="cls-6" d="M1129.11,399.736a4.315,4.315,0,0,1,0,1.692c-.058.281-.106.557-.15.824s-.092.543-.148.824l-.042.17q-.213.847-.4,1.714t-.4,1.714h2.833a6.235,6.235,0,0,1,1.461.168,2.745,2.745,0,0,1,1.291.762,1.538,1.538,0,0,1,.445.7,2.88,2.88,0,0,1,.148.91,4.353,4.353,0,0,1-.148,1.077,1.81,1.81,0,0,1-.4.826,2.314,2.314,0,0,1-.846.593,3.919,3.919,0,0,1-1.016.273,7.242,7.242,0,0,1-.868.064h-4.25c-.084.4-.169.776-.253,1.141s-.17.72-.253,1.059q-.509,2.113-1.059,4.653t-1.141,4.653q-.213.718-.445,1.436a12.339,12.339,0,0,1-.571,1.44,5.289,5.289,0,0,1-.7,1.119,2.564,2.564,0,0,1-.91.718,2.012,2.012,0,0,1-1.079.17,2.78,2.78,0,0,1-1.247-.529,4.191,4.191,0,0,1-1.5-1.987q-.487-1.269-.993-2.326a8.85,8.85,0,0,1-.509-1.313c-.225-.674-.465-1.417-.72-2.219s-.5-1.58-.74-2.326a16.326,16.326,0,0,0-.611-1.672q-.383.931-.762,2.115c-.253.79-.495,1.564-.718,2.326s-.431,1.446-.615,2.053-.317,1.049-.4,1.331q-.341.847-.74,1.861a6.721,6.721,0,0,1-.976,1.734,2.666,2.666,0,0,1-1.373.952,2.34,2.34,0,0,1-1.9-.485,2.707,2.707,0,0,1-1.185-1.439q-.213-.593-.423-1.143a7.616,7.616,0,0,1-.339-1.141l-.846-3.172-1.734-6.809q-.254-1.018-.509-2.159h-2.071a13.205,13.205,0,0,1-1.99.022,2.6,2.6,0,0,1-1.733-.782,2.487,2.487,0,0,1-.972-1.9,2.8,2.8,0,0,1,.4-1.419,2.284,2.284,0,0,1,1.08-.994,4.46,4.46,0,0,1,1.778-.317c.618.014,1.251.008,1.9-.02h.211q-.213-.976-.4-2.179t-.531-3.067a6.665,6.665,0,0,1-.1-.868,3.334,3.334,0,0,1,.064-.824,1.78,1.78,0,0,1,.593-1.1,1.586,1.586,0,0,1,.507-.337,4.161,4.161,0,0,1,.634-.213,3.344,3.344,0,0,1,1.058-.168,2.046,2.046,0,0,1,1.057.337,1.59,1.59,0,0,1,.591.551l.509.888c.058.2.112.375.17.529s.112.317.167.487c.058.2.1.373.13.529s.054.3.084.445q.209,1.311.487,2.538c.184.818.385,1.636.611,2.454h6.093q.251-.805.507-1.48a4.067,4.067,0,0,1,.571-1.079,1.369,1.369,0,0,1,.784-.507,2.188,2.188,0,0,1,1.185.148,2.118,2.118,0,0,1,1.055,1.119c.281.579.551,1.179.8,1.8h5.752c.2-.734.387-1.452.573-2.159s.359-1.409.529-2.115l.209-.718a1.6,1.6,0,0,0,.108-.445,2.751,2.751,0,0,1,.105-.529c.056-.17.112-.331.17-.487s.112-.331.17-.529c.056-.14.118-.287.188-.445a2.1,2.1,0,0,1,.277-.443,1.176,1.176,0,0,1,.3-.339,2.381,2.381,0,0,1,.337-.211,2.173,2.173,0,0,1,1.016-.337,3.351,3.351,0,0,1,1.057.168,2.893,2.893,0,0,1,1.229.551A1.855,1.855,0,0,1,1129.11,399.736Zm-20.728,18.441q.3-1.057.74-2.707t.91-3.384h-3.13c.112.537.233,1.1.359,1.692s.253,1.163.381,1.714.255,1.057.381,1.522S1108.269,417.867,1108.382,418.177Zm11.42-.8q.126-.422.275-1.057c.1-.423.2-.874.3-1.353s.2-.974.317-1.48.223-.974.337-1.4H1118.2q.464,1.649.866,3.13A12.512,12.512,0,0,0,1119.8,417.373Z" transform="translate(-1094.594 -397.916)"/>
    </g>
  </g>
</svg>
