<svg xmlns="http://www.w3.org/2000/svg" xmlns:xlink="http://www.w3.org/1999/xlink" width="610" height="643.691" viewBox="0 0 610 643.691">
  <defs>
    <style>
      .cls-1, .cls-10, .cls-19, .cls-9 {
        fill: none;
      }

      .cls-2 {
        fill: #d4d5fc;
      }

      .cls-20, .cls-3 {
        fill: #fff;
      }

      .cls-4 {
        fill: #001433;
      }

      .cls-5 {
        fill: #ffb199;
      }

      .cls-6 {
        fill: #ff4545;
      }

      .cls-7 {
        fill: #003154;
      }

      .cls-8 {
        fill: #ed9174;
      }

      .cls-9 {
        stroke: #dd6457;
        stroke-width: 0.848px;
      }

      .cls-10, .cls-19, .cls-9 {
        stroke-miterlimit: 10;
      }

      .cls-10 {
        stroke: #001433;
        stroke-width: 1.697px;
      }

      .cls-11 {
        fill: #a52323;
      }

      .cls-12 {
        fill: #ffa94d;
      }

      .cls-13 {
        fill: #e8883f;
      }

      .cls-14 {
        fill: #d25984;
      }

      .cls-15 {
        fill: #e4a040;
      }

      .cls-16 {
        fill: #5ba1e1;
      }

      .cls-17 {
        fill: #68af52;
      }

      .cls-18 {
        clip-path: url(#clip-path);
      }

      .cls-19 {
        stroke: #fff;
        stroke-width: 0.977px;
      }

      .cls-20 {
        opacity: 0.5;
      }
    </style>
    <clipPath id="clip-path">
      <circle id="타원_10" data-name="타원 10" class="cls-1" cx="26.398" cy="26.398" r="26.398" transform="translate(0 37.333) rotate(-45)"/>
    </clipPath>
  </defs>
  <g id="img_mb" transform="translate(-29.453 -21.076)">
    <g id="BACKGROUND" transform="translate(29.453 42.6)">
      <g id="그룹_46" data-name="그룹 46" transform="translate(0 0)">
        <g id="그룹_45" data-name="그룹 45">
          <path id="패스_1" data-name="패스 1" class="cls-2" d="M255.014,44.935S74.175,49.042,38.577,202.387s28.478,420.33,271.971,406.638,327.5-125.961,327.5-245.078S683.617-12.568,255.014,44.935Z" transform="translate(-29.453 -36.675)"/>
          <ellipse id="타원_1" data-name="타원 1" class="cls-2" cx="129.473" cy="18.669" rx="129.473" ry="18.669" transform="translate(177.69 584.828)"/>
        </g>
      </g>
    </g>
    <g id="OBJECTS" transform="translate(85.584 21.766)">
      <g id="그룹_78" data-name="그룹 78" transform="translate(88.422 81.775)">
        <g id="그룹_48" data-name="그룹 48">
          <path id="패스_2" data-name="패스 2" class="cls-3" d="M408.73,522.64a23.357,23.357,0,0,1-20.541,25.872L209.727,569.063a23.364,23.364,0,0,1-25.892-20.525L135.516,129.507a23.357,23.357,0,0,1,20.541-25.874L334.519,83.082a23.367,23.367,0,0,1,25.892,20.527Z" transform="translate(-131.667 -79.235)"/>
          <g id="그룹_47" data-name="그룹 47">
            <path id="패스_3" data-name="패스 3" class="cls-4" d="M208.234,573.962a27,27,0,0,1-27.017-23.95L132.9,130.978a27.049,27.049,0,0,1,23.786-29.963L335.146,80.464a27.406,27.406,0,0,1,2.965-.179,27,27,0,0,1,27.018,23.948l48.319,419.035a27.078,27.078,0,0,1-23.787,29.962L211.2,573.781A27.75,27.75,0,0,1,208.234,573.962Zm129.922-486.3a20.1,20.1,0,0,0-2.165.131L157.53,108.346a19.667,19.667,0,0,0-17.295,21.787l48.319,419.034a19.629,19.629,0,0,0,19.635,17.414,20.086,20.086,0,0,0,2.165-.131L388.816,545.9a19.688,19.688,0,0,0,17.3-21.785L357.793,105.08A19.63,19.63,0,0,0,338.157,87.664Z" transform="translate(-132.717 -80.285)"/>
            <path id="패스_4" data-name="패스 4" class="cls-4" d="M166.782,100.167l.837,7.254A14.6,14.6,0,0,0,183.8,120.26l103.016-11.871a14.608,14.608,0,0,0,12.838-16.182l-.837-7.254Z" transform="translate(-119.178 -78.43)"/>
          </g>
        </g>
        <g id="그룹_77" data-name="그룹 77" transform="translate(36.861 44.323)">
          <g id="그룹_54" data-name="그룹 54" transform="translate(15.553 164.799)">
            <g id="그룹_49" data-name="그룹 49" transform="translate(115.915 179.048)">
              <path id="패스_5" data-name="패스 5" class="cls-5" d="M269,370.368s-21.318,21.318-14.466,75.373,9.9,65.475,9.9,65.475,63.192,14.34,15.988-3.489c0,0,20.556-112.235,12.181-138.121S269,370.368,269,370.368Z" transform="translate(-253.173 -358.296)"/>
              <path id="패스_6" data-name="패스 6" class="cls-6" d="M261.916,471.509s36.054,8.618,38.932,5.1-16.224-9.259-16.224-9.259,1.919,3.519-4.8,2.879-19.19-3.837-19.19-3.837Z" transform="translate(-250.206 -315.335)"/>
            </g>
            <g id="그룹_53" data-name="그룹 53">
              <g id="그룹_50" data-name="그룹 50">
                <path id="패스_7" data-name="패스 7" class="cls-7" d="M318.11,297.795c-22.845-45.692-45.692-67.625-45.692-67.625l-48.434,10.966,2.742,15.537s-29.243,27.415-26.5,69.451,12.794,72.194,12.794,72.194-24.318,23.351-42.8,61.884l3.424,29.712a19.634,19.634,0,0,0,19.635,17.426,20.07,20.07,0,0,0,2.165-.131l29.261-3.372c12.049-31.512,29.2-77.748,34.916-100.037,7.942-30.97,7.6-55.719,7.376-61.674l9.074,191.44s30.157,18.277,58.485,0C334.559,533.565,345.527,352.626,318.11,297.795Z" transform="translate(-170.224 -230.17)"/>
              </g>
              <g id="그룹_52" data-name="그룹 52">
                <g id="그룹_51" data-name="그룹 51" transform="translate(0 196.372)">
                  <path id="패스_8" data-name="패스 8" class="cls-4" d="M232.981,415.375a161.783,161.783,0,0,1-33.716-32.1c-3.217-4.076-6.27-8.354-9.392-12.58a244.357,244.357,0,0,0-19.649,33.66l3.424,29.712a19.634,19.634,0,0,0,19.635,17.426,20.07,20.07,0,0,0,2.165-.131l29.261-3.372c3.527-9.223,7.49-19.708,11.476-30.484C235.108,416.818,234.038,416.114,232.981,415.375Z" transform="translate(-170.224 -370.693)"/>
                </g>
                <path id="패스_9" data-name="패스 9" class="cls-4" d="M211.426,256.682c10.355,4.243,22.279,4.807,33.285,3.682a99.353,99.353,0,0,0,30.771-8.041c-10.783-14.884-18.354-22.154-18.354-22.154l-48.434,10.967,2.742,15.535Z" transform="translate(-154.934 -230.17)"/>
                <path id="패스_10" data-name="패스 10" class="cls-4" d="M293.5,283.388a112.45,112.45,0,0,1-24.656,23.239c-9.285,6.409-19.255,11.677-29.283,16.825l8.956,188.962s30.157,18.277,58.485,0C307,512.415,317.155,344.9,293.5,283.388Z" transform="translate(-142.667 -209.019)"/>
              </g>
            </g>
          </g>
          <g id="그룹_59" data-name="그룹 59" transform="translate(37.372 5.364)">
            <g id="그룹_57" data-name="그룹 57">
              <path id="패스_11" data-name="패스 11" class="cls-4" d="M215.328,123.256s30.463-15.84,41.43-1.219,2.437,36.15,11.779,46.711,17.872,39.8-21.121,49.96S215.328,123.256,215.328,123.256Z" transform="translate(-174.305 -115.841)"/>
              <g id="그룹_56" data-name="그룹 56" transform="translate(0 13.617)">
                <g id="그룹_55" data-name="그룹 55" transform="translate(0 36.182)">
                  <path id="패스_12" data-name="패스 12" class="cls-5" d="M281.678,202.474c-18.125-16.079-28.765-1.734-34.1-4.226-6.091-2.842-1.219-20.308-1.219-20.308s-30.463-49.96-25.182-12.592-6.9,34.932-18.684,38.181-16.653,16.653-16.653,16.653l13.4,17.872,69.946-7.682C273.414,221.1,277.535,211.782,281.678,202.474Z" transform="translate(-185.838 -151.476)"/>
                  <path id="패스_13" data-name="패스 13" class="cls-8" d="M212.477,177.2A49.543,49.543,0,0,0,225.8,187.257a32.063,32.063,0,0,0,8.84,2.978,54.611,54.611,0,0,1,1.842-12.295s-30.463-49.96-25.182-12.592C211.936,169.852,212.316,173.772,212.477,177.2Z" transform="translate(-175.963 -151.476)"/>
                </g>
                <path id="패스_14" data-name="패스 14" class="cls-5" d="M206.241,158.985s-4.062-29.04,24.37-33.1,28.432,34.525,26.4,45.491c-1.481,8-12.186,33.916-36.962,11.983A44.246,44.246,0,0,1,206.241,158.985Z" transform="translate(-177.809 -125.585)"/>
              </g>
            </g>
            <g id="그룹_58" data-name="그룹 58" transform="translate(42.985 34.216)">
              <path id="패스_15" data-name="패스 15" class="cls-3" d="M221.707,159.8l22.517.5S236.07,171.58,221.707,159.8Z" transform="translate(-214.568 -132.585)"/>
              <path id="패스_16" data-name="패스 16" class="cls-9" d="M232.746,147.891c.013,3.83,1,8.042,4.206,10.47-2.272.594-2.766,1.186-5.038,1.779" transform="translate(-210.511 -137.318)"/>
              <path id="패스_17" data-name="패스 17" class="cls-10" d="M233.4,145.531s5.63-8,12.151.593" transform="translate(-209.921 -139.602)"/>
              <path id="패스_18" data-name="패스 18" class="cls-10" d="M234.387,146.155s-9.261-13.248-17.789.2" transform="translate(-216.598 -140.325)"/>
              <path id="패스_19" data-name="패스 19" class="cls-4" d="M222.283,149.46c0,1.882-.6,3.408-1.335,3.408s-1.333-1.526-1.333-3.408.6-3.407,1.333-3.407S222.283,147.578,222.283,149.46Z" transform="translate(-215.399 -138.049)"/>
              <ellipse id="타원_2" data-name="타원 2" class="cls-4" cx="1.102" cy="2.815" rx="1.102" ry="2.815" transform="translate(24.78 8.893)"/>
            </g>
          </g>
          <g id="그룹_76" data-name="그룹 76">
            <g id="그룹_70" data-name="그룹 70" transform="translate(126.023)">
              <g id="그룹_61" data-name="그룹 61" transform="translate(0 84.478)">
                <path id="패스_20" data-name="패스 20" class="cls-8" d="M264.606,194.4c-.147-.184-.292-.359-.437-.541-2.137,3.586-4.437,7.082-6.576,10.539-2.967,4.79-5.692,9.726-8.316,14.723,21.828,24.113,45.471,43.752,51.885,30.924C308.066,236.237,287.757,223.646,264.606,194.4Z" transform="translate(-249.276 -163.947)"/>
                <g id="그룹_60" data-name="그룹 60" transform="translate(35.357)">
                  <path id="패스_21" data-name="패스 21" class="cls-5" d="M290.394,190.586s-11.087,32.274-14.318,40.755c-6.5,17.06,9.756,45.477,17.812,22.515,8.183-23.327,11.027-41.606,10.559-58.474,0,0,4.632-2.261,5.3-14.716s-16.692-7.04-16.692-7.04l-1.938,5.2Z" transform="translate(-274.578 -172.454)"/>
                  <path id="패스_22" data-name="패스 22" class="cls-8" d="M300.214,202.706c.405-5.279.177-4.556-.266-7.324,0,0,4.632-2.261,5.3-14.716s-16.692-7.04-16.692-7.04l-1.938,5.2-.722,11.758s5.6-.333,5.58,4.533C294.2,209.777,299.4,204.127,300.214,202.706Z" transform="translate(-270.079 -172.454)"/>
                </g>
              </g>
              <g id="그룹_69" data-name="그룹 69" transform="translate(15.726)">
                <g id="그룹_64" data-name="그룹 64" transform="translate(21.415 64.185)">
                  <g id="그룹_62" data-name="그룹 62">
                    <path id="패스_23" data-name="패스 23" class="cls-6" d="M275.854,163.3s2.884,9.016,6.219,10.695,13.765,31.785,19.146,32.114,11.854-9.094,11.854-9.094L300.3,173.148s7.879-8.357,2.8-13.58S275.854,163.3,275.854,163.3Z" transform="translate(-275.854 -157.933)"/>
                    <path id="패스_24" data-name="패스 24" class="cls-11" d="M304.44,166.167a6.4,6.4,0,0,0-1.346-6.6c-5.082-5.222-27.24,3.731-27.24,3.731a39.682,39.682,0,0,0,3.663,8.046A234.629,234.629,0,0,0,304.44,166.167Z" transform="translate(-275.854 -157.933)"/>
                  </g>
                  <g id="그룹_63" data-name="그룹 63" transform="translate(9.167 10.931)">
                    <path id="패스_25" data-name="패스 25" class="cls-5" d="M285.288,189.772s-3.211-11.045-2.845-13.685,5.116-6.645,7.131-6.112,5.559,2.8,5.218,5.029-4.944.514-4.944.514l-1.449,3.6s8.477,1.954,7.251,11.909S286.747,196,285.288,189.772Z" transform="translate(-282.414 -164.096)"/>
                    <path id="패스_26" data-name="패스 26" class="cls-5" d="M293.6,173.494s2.823-7.926,5.928-7.736.2,6.26.2,6.26,3.123-3.28,3.966-1.145-.756,5.97-.756,5.97,2.469-2.163,2.243,1.526-5.444,9.385-6.733,8.148,2.81-7.7,2.81-7.7-3.737,6.945-5.442,6.146,3.146-9.989,3.146-9.989-5.64,9.373-7.078,7.433S293.6,173.494,293.6,173.494Z" transform="translate(-278.802 -165.755)"/>
                  </g>
                </g>
                <g id="그룹_66" data-name="그룹 66" transform="translate(0 10.407)">
                  <path id="패스_27" data-name="패스 27" class="cls-12" d="M321.849,119.449l-46.59,36.758s2.037,20.785,10.451,26.469l57.81-10.555Z" transform="translate(-254.676 -119.449)"/>
                  <g id="그룹_65" data-name="그룹 65" transform="translate(0 34.691)">
                    <path id="패스_28" data-name="패스 28" class="cls-12" d="M273.536,148.324s-13.4,3.656-13,10.56,3.208,19.357,21.527,13.4C298.313,167.008,273.536,148.324,273.536,148.324Z" transform="translate(-260.53 -142.664)"/>
                    <path id="패스_29" data-name="패스 29" class="cls-6" d="M279.928,144.274s1.388,20.151,9.448,28.536l-13.965,3.115s-11.515-7.188-9.02-24.816Z" transform="translate(-258.341 -144.274)"/>
                  </g>
                </g>
                <g id="그룹_68" data-name="그룹 68" transform="translate(66.223)">
                  <path id="패스_30" data-name="패스 30" class="cls-12" d="M315.58,147.959c6.351,17.144,15.154,29.688,19.659,28.019s3.01-16.92-3.341-34.064-15.154-29.688-19.659-28.019S309.229,130.816,315.58,147.959Z" transform="translate(-307.235 -111.309)"/>
                  <path id="패스_31" data-name="패스 31" class="cls-11" d="M312.3,129.246s9.626-.752,12.415,7.309-3.425,14.939-3.425,14.939S312.533,138.622,312.3,129.246Z" transform="translate(-306.178 -105.156)"/>
                  <g id="그룹_67" data-name="그룹 67">
                    <path id="패스_32" data-name="패스 32" class="cls-6" d="M335.067,179.258h0c-6.952,0-15.6-14.946-21.089-29.758-4.272-11.527-10.165-34.135-1.9-37.2a4.915,4.915,0,0,1,1.7-.3c6.952,0,15.6,14.947,21.09,29.758,4.271,11.527,10.164,34.135,1.9,37.2A4.877,4.877,0,0,1,335.067,179.258Zm-21.291-62.381c-1.5.91-2.311,11.813,4.772,30.931,6.555,17.694,14.124,26.576,16.519,26.576h.022c1.479-.907,2.289-11.811-4.793-30.928C323.74,125.757,316.171,116.876,313.776,116.876Z" transform="translate(-307.918 -112.002)"/>
                  </g>
                </g>
              </g>
            </g>
            <g id="그룹_73" data-name="그룹 73" transform="translate(0 119.806)">
              <g id="그룹_71" data-name="그룹 71">
                <path id="패스_33" data-name="패스 33" class="cls-5" d="M193.216,197.735S158.693,236.321,159.1,249.32s50.772,39.8,57.676,38.179,5.688-9.747,5.688-9.747L187.937,249.32l30.869-36.555Z" transform="translate(-159.094 -197.735)"/>
                <path id="패스_34" data-name="패스 34" class="cls-8" d="M183.408,236.336a72.07,72.07,0,0,0,8.724,3.837l23.147-27.409-25.59-15.029s-11.962,13.372-21.722,27.024A55.431,55.431,0,0,0,183.408,236.336Z" transform="translate(-155.568 -197.735)"/>
              </g>
              <g id="그룹_72" data-name="그룹 72" transform="translate(28.35 70.526)">
                <path id="패스_35" data-name="패스 35" class="cls-5" d="M179.382,254.965S207.9,271.909,214.4,269.473s8.123-10.562,8.123-10.562,24.37,10.967,2.03-3.654c0,0,23.965,7.31,0-3.25,0,0,28.371.945-.968-3.658,0,0-5.082-2.109-11.622,9.751Z" transform="translate(-179.382 -248.203)"/>
                <path id="패스_36" data-name="패스 36" class="cls-5" d="M209.285,255.653s2.918,8.883,4.187,9.264c2.188.657-1.142-10.785-1.142-10.785Z" transform="translate(-167.498 -245.847)"/>
              </g>
            </g>
            <g id="그룹_75" data-name="그룹 75" transform="translate(15.033 97.181)">
              <path id="패스_37" data-name="패스 37" class="cls-12" d="M210.875,192.188s10.56,17.872,34.525,13,21.933-23.558,21.933-23.558,15.435-1.219,22.746,5.686,15.028,14.216,15.028,14.216-6.9,17.06-17.465,22.339c0,0,7.921,17.465,1.015,35.337,0,0-30.665,15.435-68.846,11.374l-13.4-34.12-6.5,8.937s-18.277-.812-30.056-21.527C169.852,223.869,193.41,190.969,210.875,192.188Z" transform="translate(-169.852 -181.545)"/>
              <g id="그룹_74" data-name="그룹 74" transform="translate(37.742 6.35)">
                <path id="패스_38" data-name="패스 38" class="cls-13" d="M258.963,186.089a47.691,47.691,0,0,1-3.724,13.274c-1.632,3.733-3.563,7.311-5.546,10.864a58.4,58.4,0,0,1,5.868,9.743q.438.9.859,1.818c10.271-5.563,16.956-22.064,16.956-22.064S266.085,192.816,258.963,186.089Z" transform="translate(-175.863 -186.089)"/>
                <path id="패스_39" data-name="패스 39" class="cls-13" d="M253.023,232.686a223.594,223.594,0,0,1-36.472-2.471A50.217,50.217,0,0,1,196.86,223l12.216,31.1c38.181,4.061,68.846-11.374,68.846-11.374a42.917,42.917,0,0,0,2.8-14.2A101.7,101.7,0,0,1,253.023,232.686Z" transform="translate(-196.86 -171.417)"/>
              </g>
            </g>
          </g>
          <path id="패스_40" data-name="패스 40" class="cls-7" d="M246.449,122.028s8.935,17.06-8.53,28.839c-14.015,9.451-10.56,26-8.935,44.272s-.813,28.839-12.186,30.463-21.527-4.061-31.681,6.5c0,0-17.872-8.123-11.374-28.839s26.808-26,26-60.113S242.387,108.624,246.449,122.028Z" transform="translate(-153.838 -111.279)"/>
        </g>
      </g>
      <g id="그룹_112" data-name="그룹 112">
        <g id="그룹_82" data-name="그룹 82" transform="translate(28.646 95.452)">
          <g id="그룹_81" data-name="그룹 81">
            <g id="그룹_80" data-name="그룹 80">
              <g id="그룹_79" data-name="그룹 79">
                <circle id="타원_3" data-name="타원 3" class="cls-14" cx="44.26" cy="44.26" r="44.26"/>
                <path id="패스_41" data-name="패스 41" class="cls-14" d="M152.162,133.278l12.989,30.309L130.513,147.71Z" transform="translate(-74.065 -72.981)"/>
              </g>
            </g>
          </g>
          <path id="패스_42" data-name="패스 42" class="cls-3" d="M129.527,151.24l-1.07-.567a86.2,86.2,0,0,1-11.9-7.884c-8.228-6.54-12.45-12.809-12.548-18.631a14.66,14.66,0,0,1,14.395-14.887l.1,0a14.467,14.467,0,0,1,10.4,4.141,14.591,14.591,0,0,1,10.309-4.487h.035a14.7,14.7,0,0,1,14.881,14.384v.011c.1,5.9-3.91,12.331-11.917,19.114a84.234,84.234,0,0,1-11.635,8.213Z" transform="translate(-84.598 -82.662)"/>
        </g>
        <g id="그룹_88" data-name="그룹 88" transform="translate(329.898 387.803)">
          <g id="그룹_84" data-name="그룹 84">
            <g id="그룹_83" data-name="그룹 83">
              <rect id="사각형_26" data-name="사각형 26" class="cls-14" width="190.853" height="70.856" rx="7.568"/>
              <path id="패스_43" data-name="패스 43" class="cls-14" d="M320.082,348v26.183l14.8-27.321Z" transform="translate(-299.236 -280.697)"/>
            </g>
          </g>
          <g id="그룹_87" data-name="그룹 87" transform="translate(9.269 13.499)">
            <g id="그룹_85" data-name="그룹 85" transform="translate(0)">
              <circle id="타원_4" data-name="타원 4" class="cls-3" cx="19.565" cy="19.565" r="19.565" transform="translate(0 6.295) rotate(-9.258)"/>
              <circle id="타원_5" data-name="타원 5" class="cls-3" cx="19.565" cy="19.565" r="19.565" transform="translate(0 6.295) rotate(-9.258)"/>
            </g>
            <g id="그룹_86" data-name="그룹 86" transform="translate(51.54 3.42)">
              <path id="패스_44" data-name="패스 44" class="cls-3" d="M460.744,315.325a3.7,3.7,0,0,1-3.7,3.7H352.38a3.7,3.7,0,0,1-3.7-3.7h0a3.7,3.7,0,0,1,3.7-3.7H457.044a3.7,3.7,0,0,1,3.7,3.7Z" transform="translate(-348.68 -311.623)"/>
              <path id="패스_45" data-name="패스 45" class="cls-3" d="M460.744,325.92a3.7,3.7,0,0,1-3.7,3.7H352.38a3.7,3.7,0,0,1-3.7-3.7h0a3.7,3.7,0,0,1,3.7-3.7H457.044a3.7,3.7,0,0,1,3.7,3.7Z" transform="translate(-348.68 -307.412)"/>
              <path id="패스_46" data-name="패스 46" class="cls-3" d="M460.744,336.515a3.7,3.7,0,0,1-3.7,3.7H352.38a3.7,3.7,0,0,1-3.7-3.7h0a3.7,3.7,0,0,1,3.7-3.7H457.044a3.7,3.7,0,0,1,3.7,3.7Z" transform="translate(-348.68 -303.201)"/>
            </g>
          </g>
        </g>
        <g id="그룹_90" data-name="그룹 90" transform="translate(0 395.906)">
          <path id="패스_47" data-name="패스 47" class="cls-15" d="M154.559,305.314H80.8A11.176,11.176,0,0,0,69.62,316.491V348.9A11.176,11.176,0,0,0,80.8,360.077H151.3l14.431,15.088V316.491A11.176,11.176,0,0,0,154.559,305.314Z" transform="translate(-69.62 -305.314)"/>
          <g id="그룹_89" data-name="그룹 89" transform="translate(13.271 19.419)">
            <path id="패스_48" data-name="패스 48" class="cls-3" d="M93.926,326.614a7.4,7.4,0,1,1-7.4-7.4A7.4,7.4,0,0,1,93.926,326.614Z" transform="translate(-79.117 -319.21)"/>
            <path id="패스_49" data-name="패스 49" class="cls-3" d="M113.521,326.614a7.4,7.4,0,1,1-7.4-7.4A7.406,7.406,0,0,1,113.521,326.614Z" transform="translate(-71.329 -319.21)"/>
            <path id="패스_50" data-name="패스 50" class="cls-3" d="M133.115,326.614a7.4,7.4,0,1,1-7.405-7.4A7.405,7.405,0,0,1,133.115,326.614Z" transform="translate(-63.542 -319.21)"/>
          </g>
        </g>
        <g id="그룹_95" data-name="그룹 95" transform="translate(359.217 224.341)">
          <g id="그룹_93" data-name="그룹 93">
            <g id="그룹_92" data-name="그룹 92">
              <g id="그룹_91" data-name="그룹 91">
                <circle id="타원_6" data-name="타원 6" class="cls-16" cx="38.966" cy="38.966" r="38.966" transform="translate(2.259)"/>
                <path id="패스_51" data-name="패스 51" class="cls-16" d="M337.7,220.425l-11.436,26.683,30.5-13.977Z" transform="translate(-326.265 -167.34)"/>
              </g>
            </g>
          </g>
          <g id="그룹_94" data-name="그룹 94" transform="translate(21.256 12.889)">
            <rect id="사각형_27" data-name="사각형 27" class="cls-3" width="9.742" height="35.222" rx="2.681" transform="translate(0 12.24)"/>
            <path id="패스_52" data-name="패스 52" class="cls-3" d="M380.85,218.088v-2.035a3.391,3.391,0,0,0-3.392-3.392h-.917a3.387,3.387,0,0,0,2.809-3.333v-2.036a3.391,3.391,0,0,0-3.392-3.392H360.6v-8.494a3.747,3.747,0,0,0-3.748-3.747h-2.247a3.747,3.747,0,0,0-3.748,3.747v39.969a3.747,3.747,0,0,0,3.748,3.747h17.985c.021,0,.039-.006.059-.006h3.12a3.391,3.391,0,0,0,3.392-3.392V233.69a3.384,3.384,0,0,0-2.823-3.334V230.3h1.118a3.392,3.392,0,0,0,3.392-3.392v-2.035a3.393,3.393,0,0,0-3.392-3.393A3.391,3.391,0,0,0,380.85,218.088Z" transform="translate(-337.746 -191.661)"/>
          </g>
        </g>
        <g id="그룹_100" data-name="그룹 100" transform="translate(401.613 91.823)">
          <g id="그룹_99" data-name="그룹 99">
            <g id="그룹_98" data-name="그룹 98">
              <g id="그룹_97" data-name="그룹 97">
                <g id="그룹_96" data-name="그룹 96">
                  <circle id="타원_7" data-name="타원 7" class="cls-14" cx="44.26" cy="44.26" r="44.26" transform="translate(2.566)"/>
                  <path id="패스_53" data-name="패스 53" class="cls-14" d="M369.474,130.679l-12.99,30.309,34.638-15.876Z" transform="translate(-356.484 -70.382)"/>
                </g>
              </g>
            </g>
          </g>
          <path id="패스_54" data-name="패스 54" class="cls-3" d="M403.613,115.42l16.28,2.618-11.981,11.329,2.541,16.292-14.477-7.893-14.71,7.451L384.3,129.01l-11.632-11.687,16.352-2.124,7.521-14.674Z" transform="translate(-350.052 -82.367)"/>
        </g>
        <g id="그룹_104" data-name="그룹 104" transform="translate(472.773 276.026)">
          <g id="그룹_103" data-name="그룹 103">
            <g id="그룹_101" data-name="그룹 101">
              <path id="패스_55" data-name="패스 55" class="cls-17" d="M443.041,289.018A35.632,35.632,0,0,1,432,287.273L437.627,270a17.677,17.677,0,0,0,10.8.011l5.593,17.285A35.575,35.575,0,0,1,443.041,289.018Zm28.794-14.637-14.673-10.713a17.342,17.342,0,0,0,3.347-10.252l18.167.038A35.393,35.393,0,0,1,471.835,274.382Zm-57.627-.057a35.371,35.371,0,0,1-6.8-20.941l18.167-.109v.109A17.334,17.334,0,0,0,428.9,263.64Zm43-31.17a17.632,17.632,0,0,0-8.714-6.376l5.658-17.263a35.928,35.928,0,0,1,17.77,12.985Zm-28.262-.087-14.651-10.739a35.919,35.919,0,0,1,17.848-12.879l5.553,17.3A17.621,17.621,0,0,0,428.942,243.068Z" transform="translate(-407.406 -219.45)"/>
            </g>
            <g id="그룹_102" data-name="그룹 102" transform="translate(8.151 6.451)">
              <path id="패스_56" data-name="패스 56" class="cls-17" d="M440.722,279.031A27.483,27.483,0,1,1,468.2,251.549,27.514,27.514,0,0,1,440.722,279.031Zm0-40.991a13.508,13.508,0,1,0,13.508,13.509A13.524,13.524,0,0,0,440.722,238.04Z" transform="translate(-413.239 -224.066)"/>
            </g>
          </g>
        </g>
        <g id="그룹_111" data-name="그룹 111" transform="translate(171.001)">
          <rect id="사각형_28" data-name="사각형 28" class="cls-16" width="279.908" height="70.856" rx="7.568" transform="translate(0.132 2.334)"/>
          <g id="그룹_110" data-name="그룹 110" transform="translate(0)">
            <g id="그룹_106" data-name="그룹 106" transform="translate(73.4 24.06)">
              <g id="그룹_105" data-name="그룹 105">
                <path id="패스_57" data-name="패스 57" class="cls-15" d="M266.907,49.928l11.962,1.924-8.8,8.324,1.867,11.971-10.637-5.8-10.808,5.475,2.229-11.909-8.547-8.587,12.015-1.56,5.526-10.782Z" transform="translate(-244.17 -38.984)"/>
                <path id="패스_58" data-name="패스 58" class="cls-15" d="M295.891,49.928l11.962,1.924-8.8,8.324,1.867,11.971-10.637-5.8-10.808,5.475L281.7,59.913l-8.547-8.587,12.015-1.56,5.526-10.782Z" transform="translate(-232.651 -38.984)"/>
                <path id="패스_59" data-name="패스 59" class="cls-15" d="M324.876,49.928l11.962,1.924-8.8,8.324L329.9,72.147l-10.637-5.8-10.808,5.475,2.229-11.909-8.547-8.587,12.015-1.56,5.526-10.782Z" transform="translate(-221.131 -38.984)"/>
                <path id="패스_60" data-name="패스 60" class="cls-15" d="M353.86,49.928l11.962,1.924-8.8,8.324,1.867,11.971-10.637-5.8-10.808,5.475,2.229-11.909-8.547-8.587,12.015-1.56,5.526-10.782Z" transform="translate(-209.612 -38.984)"/>
                <path id="패스_61" data-name="패스 61" class="cls-15" d="M382.845,49.928l11.962,1.924L386,60.176l1.867,11.971-10.637-5.8-10.808,5.475,2.229-11.909-8.547-8.587,12.015-1.56,5.526-10.782Z" transform="translate(-198.093 -38.984)"/>
              </g>
            </g>
            <g id="그룹_109" data-name="그룹 109">
              <g id="그룹_108" data-name="그룹 108">
                <g id="그룹_107" data-name="그룹 107" class="cls-18">
                  <circle id="타원_8" data-name="타원 8" class="cls-3" cx="18.889" cy="18.889" r="18.889" transform="translate(18.444 46.891)"/>
                  <circle id="타원_9" data-name="타원 9" class="cls-3" cx="13.427" cy="13.427" r="13.427" transform="translate(21.923 20.549) rotate(-9.245)"/>
                </g>
              </g>
              <circle id="타원_11" data-name="타원 11" class="cls-19" cx="26.398" cy="26.398" r="26.398" transform="translate(0 37.333) rotate(-45)"/>
            </g>
            <path id="패스_62" data-name="패스 62" class="cls-20" d="M357.276,34.429a2.269,2.269,0,0,1-2.269,2.269H248.784a2.269,2.269,0,0,1-2.269-2.269h0a2.269,2.269,0,0,1,2.269-2.269H355.006a2.269,2.269,0,0,1,2.269,2.269Z" transform="translate(-169.838 -17.636)"/>
          </g>
        </g>
      </g>
      <g id="그룹_115" data-name="그룹 115" transform="translate(4.069 240.816)">
        <g id="그룹_114" data-name="그룹 114" transform="translate(0)">
          <g id="그룹_113" data-name="그룹 113">
            <circle id="타원_12" data-name="타원 12" class="cls-17" cx="35.775" cy="35.775" r="35.775" transform="translate(0 9.612) rotate(-7.72)"/>
            <path id="패스_63" data-name="패스 63" class="cls-17" d="M126.464,229.567l13.695,22.865-29.468-8.955Z" transform="translate(-57.366 -180.141)"/>
          </g>
        </g>
      </g>
      <g id="그룹_116" data-name="그룹 116" transform="translate(23.907 260.53)">
        <path id="패스_64" data-name="패스 64" class="cls-3" d="M115.776,208.306H98.515a11.786,11.786,0,0,0-11.787,11.786v17.262A11.786,11.786,0,0,0,98.515,249.14h17.261a11.786,11.786,0,0,0,11.787-11.786V220.092A11.786,11.786,0,0,0,115.776,208.306Zm8.027,29.352a7.825,7.825,0,0,1-7.824,7.824H98.313a7.825,7.825,0,0,1-7.824-7.824V219.991a7.825,7.825,0,0,1,7.824-7.824h17.666a7.825,7.825,0,0,1,7.824,7.824Z" transform="translate(-86.728 -208.306)"/>
        <path id="패스_65" data-name="패스 65" class="cls-3" d="M104.352,215.407a10.6,10.6,0,1,0,10.6,10.6A10.594,10.594,0,0,0,104.352,215.407Zm0,17.464A6.868,6.868,0,1,1,111.221,226,6.868,6.868,0,0,1,104.352,232.871Z" transform="translate(-83.934 -205.484)"/>
        <path id="패스_66" data-name="패스 66" class="cls-3" d="M109.876,213.352a2.469,2.469,0,1,0,2.468,2.469A2.469,2.469,0,0,0,109.876,213.352Z" transform="translate(-78.509 -206.301)"/>
      </g>
    </g>
  </g>
</svg>
