<svg xmlns="http://www.w3.org/2000/svg" width="141.914" height="143.193" viewBox="0 0 141.914 143.193">
  <defs>
    <style>
      .cls-1 {
        fill: #f5f5f5;
      }

      .cls-2 {
        fill: #e0e0e0;
      }

      .cls-3 {
        fill: #ebebeb;
      }

      .cls-4 {
        fill: #ff725e;
      }

      .cls-5, .cls-8 {
        opacity: 0.3;
      }

      .cls-6 {
        fill: #263238;
      }

      .cls-7 {
        opacity: 0.1;
      }

      .cls-7, .cls-8 {
        isolation: isolate;
      }

      .cls-9 {
        opacity: 0.4;
      }

      .cls-10 {
        fill: #ffbe9d;
      }

      .cls-11 {
        fill: #fff;
      }

      .cls-12 {
        fill: #eb996e;
      }

      .cls-13 {
        fill: #455a64;
      }

      .cls-14 {
        fill: #fafafa;
      }
    </style>
  </defs>
  <g id="img_sub2" transform="translate(-46.732 -40.686)">
    <g id="freepik--background-complete--inject-2" transform="translate(46.732 40.686)">
      <path id="패스_444" data-name="패스 444" class="cls-1" d="M260.385,385.466c-5.83-2.76-8.154-9.32-8.975-15.431a6.684,6.684,0,0,1-.1-3.044,2.088,2.088,0,0,1,2.333-1.495c.815.227,1.292,1.045,1.836,1.691a5.971,5.971,0,0,0,2.76,1.867,2.294,2.294,0,0,0,2.117-.162c.791-.632.676-1.857.514-2.864q-.5-2.8-.974-5.607a9.545,9.545,0,0,1-.2-3.044,3.14,3.14,0,0,1,1.606-2.448,1.934,1.934,0,0,1,2.563.876,9.594,9.594,0,0,1,.243,1.248,1.078,1.078,0,0,0,.788.9c.416.051.778-.3,1.031-.653a13.663,13.663,0,0,0,1.792-4.041,18.852,18.852,0,0,1,1.61-4.133,5.584,5.584,0,0,1,3.345-2.705,3.286,3.286,0,0,1,3.72,1.66c.6,1.356.02,2.942-.676,4.248a22.886,22.886,0,0,1-3.953,5.255,1.885,1.885,0,0,0-.643.974c-.1.71.646,1.272,1.353,1.38a11.936,11.936,0,0,0,2.4-.135,2.305,2.305,0,0,1,2.137.856c.585.96-.095,2.188-.822,3.044a19.619,19.619,0,0,1-5.15,4.261,6.581,6.581,0,0,0-1.948,1.39,1.894,1.894,0,0,0-.237,2.239,1.927,1.927,0,0,0,2.2.443,14.057,14.057,0,0,0,2.07-1.217c1.3-.758,3.1-.967,4.2.081a3.233,3.233,0,0,1,.815,2.766,7.415,7.415,0,0,1-1.106,2.749,19.7,19.7,0,0,1-7.3,7.224,13.507,13.507,0,0,1-9.347,1.836" transform="translate(-182.025 -242.964)"/>
      <path id="패스_445" data-name="패스 445" class="cls-2" d="M281.17,382.593a91.619,91.619,0,0,1,1.941-10.338l.649-2.682c.213-.883.426-1.755.676-2.594a45.967,45.967,0,0,1,1.779-4.735c.639-1.481,1.3-2.868,1.924-4.156s1.238-2.479,1.84-3.537a36.2,36.2,0,0,1,3.206-4.789c.423-.534.764-.937,1-1.207.112-.129.2-.23.267-.308s.095-.1.1-.1a1.009,1.009,0,0,1-.081.112l-.257.318c-.223.277-.555.676-.967,1.228a38.458,38.458,0,0,0-3.148,4.812c-.592,1.062-1.194,2.252-1.816,3.541s-1.272,2.675-1.9,4.156a45.544,45.544,0,0,0-1.759,4.735c-.26.835-.47,1.691-.676,2.584l-.649,2.685a93.687,93.687,0,0,0-1.951,10.315" transform="translate(-201.887 -244.17)"/>
      <path id="패스_446" data-name="패스 446" class="cls-2" d="M284.441,382.559a1.951,1.951,0,0,1-.172-.416c-.1-.267-.233-.676-.389-1.153-.311-.981-.7-2.35-1.116-3.859s-.822-2.871-1.15-3.842c-.162-.487-.3-.883-.392-1.15a2.485,2.485,0,0,1-.132-.429,1.984,1.984,0,0,1,.2.4c.118.26.271.649.45,1.13.362.967.785,2.323,1.207,3.838s.778,2.841,1.062,3.869c.132.467.24.859.338,1.174A2.53,2.53,0,0,1,284.441,382.559Z" transform="translate(-201.834 -259.763)"/>
      <path id="패스_447" data-name="패스 447" class="cls-2" d="M303.55,390.13a2.556,2.556,0,0,1-.507.152c-.338.085-.8.206-1.383.375-1.167.338-2.76.839-4.494,1.481s-3.28,1.3-4.4,1.8c-.555.247-1,.46-1.305.605a2.96,2.96,0,0,1-.484.21,2.528,2.528,0,0,1,.45-.277c.3-.166.734-.4,1.282-.676,1.092-.534,2.634-1.207,4.373-1.853a45.687,45.687,0,0,1,4.528-1.431c.588-.156,1.069-.257,1.4-.321A2.9,2.9,0,0,1,303.55,390.13Z" transform="translate(-208.379 -271.954)"/>
      <path id="패스_448" data-name="패스 448" class="cls-2" d="M263.247,418.978a.886.886,0,0,1-.115-.145l-.3-.43c-.26-.379-.622-.93-1.059-1.62-.879-1.38-2.029-3.324-3.27-5.489s-2.367-4.116-3.223-5.509l-1.015-1.654-.271-.45a.639.639,0,0,1-.085-.162,1.287,1.287,0,0,1,.115.142c.071.1.183.257.3.433.26.375.622.927,1.062,1.62.876,1.38,2.029,3.321,3.27,5.485s2.367,4.116,3.22,5.512l1.015,1.65c.108.179.2.338.271.45A.623.623,0,0,1,263.247,418.978Z" transform="translate(-183.846 -280.816)"/>
      <path id="패스_449" data-name="패스 449" class="cls-2" d="M297.787,424.18a.632.632,0,0,1-.159.1l-.47.25-1.745.91c-1.474.771-3.5,1.857-5.729,3.044s-4.264,2.273-5.749,3.01c-.744.369-1.353.676-1.772.856l-.507.223a.8.8,0,0,1-.176.068.724.724,0,0,1,.159-.1l.473-.25,1.745-.913c1.471-.768,3.493-1.853,5.725-3.044s4.268-2.269,5.749-3.006c.744-.369,1.353-.676,1.772-.856l.487-.223A.676.676,0,0,1,297.787,424.18Z" transform="translate(-202.092 -294.489)"/>
      <path id="패스_450" data-name="패스 450" class="cls-3" d="M142.9,247.256s-4.018.558-1.762,9.358a105.2,105.2,0,0,0,4.17,13.338s.3,1.992-1.305,1.931-4.883-1.353-6,.369c-1.15,1.8-.142,3.964,2.367,6.233s7.859,7.44,8.34,7.91.832,1.437-.271,1.569-8.921-.785-9.131,2.952,7.849,8.9,8.718,9.486,1.015,1.035.812,1.542-2.793-.051-5.029-.223-4.86.027-4.8,2.191,4.292,7.643,16.635,11.715l5.847,1.512,4.319-4.254c8.691-9.669,9.642-16.524,8.617-18.431s-3.382-.774-5.255.484-3.835,3.044-4.254,2.705-.528-.8-.061-1.742,4.894-9.425,2.851-12.563-8.373,1.535-9.388,1.965-1.2-.592-1.015-1.228,2.246-7.778,3.307-11.008.859-5.6-1.035-6.591c-1.826-.95-4.021,1.809-5.387,2.661s-2.09-1.015-2.09-1.015a105.487,105.487,0,0,0-3.01-13.646c-2.415-8.759-6.267-7.19-6.267-7.19" transform="translate(-106.825 -177.345)"/>
      <path id="패스_451" data-name="패스 451" class="cls-2" d="M175.934,334.18c-1.748-6.426-4.667-17.924-7.22-27.8s-4.873-18.773-6.591-25.218c-.859-3.22-1.556-5.824-2.029-7.633-.237-.9-.423-1.6-.551-2.076l-.142-.541c-.03-.122-.041-.186-.041-.186s.024.057.061.179.088.308.156.538c.139.48.338,1.173.588,2.066.507,1.8,1.224,4.4,2.1,7.616,1.748,6.425,4.092,15.357,6.645,25.208s5.448,21.36,7.166,27.805" transform="translate(-121.271 -192.933)"/>
      <path id="패스_452" data-name="패스 452" class="cls-2" d="M152.27,327.26a2.2,2.2,0,0,1,.386.206c.24.142.585.358,1.015.629.842.544,1.989,1.326,3.236,2.208l3.186,2.273.971.676a1.927,1.927,0,0,1,.338.267,2.119,2.119,0,0,1-.389-.206c-.24-.142-.585-.358-1.015-.632-.835-.551-1.972-1.353-3.219-2.232l-3.2-2.249-.974-.676A1.98,1.98,0,0,1,152.27,327.26Z" transform="translate(-116.579 -230.345)"/>
      <path id="패스_453" data-name="패스 453" class="cls-2" d="M180.718,323.874c-.044-.027,1.461-2.459,3.358-5.431s3.477-5.36,3.521-5.333-1.461,2.462-3.362,5.435S180.762,323.894,180.718,323.874Z" transform="translate(-135.406 -220.98)"/>
      <path id="패스_454" data-name="패스 454" class="cls-2" d="M190.3,374.985a1.793,1.793,0,0,1,.321-.311l.91-.8c.768-.676,1.826-1.61,2.956-2.685s2.124-2.08,2.834-2.814c.338-.338.615-.639.842-.869a2.356,2.356,0,0,1,.338-.308,1.772,1.772,0,0,1-.271.355c-.183.22-.457.531-.8.91-.676.761-1.664,1.786-2.8,2.861s-2.2,2-3,2.651c-.4.338-.724.582-.954.754A2.063,2.063,0,0,1,190.3,374.985Z" transform="translate(-141.748 -256.778)"/>
      <path id="패스_455" data-name="패스 455" class="cls-2" d="M161.05,379.89a1.691,1.691,0,0,1,.4.1l1.072.338c.9.287,2.141.7,3.507,1.157s2.6.893,3.49,1.214l1.052.385a1.835,1.835,0,0,1,.375.166,1.558,1.558,0,0,1-.4-.095l-1.072-.338c-.9-.287-2.141-.7-3.507-1.16s-2.6-.893-3.49-1.211l-1.052-.389A1.54,1.54,0,0,1,161.05,379.89Z" transform="translate(-122.39 -265.177)"/>
      <path id="패스_456" data-name="패스 456" class="cls-2" d="M164.43,420.94a2.686,2.686,0,0,1,.511.128l1.373.419c1.157.362,2.749.872,4.508,1.451s3.345,1.106,4.491,1.5l1.353.473a3.48,3.48,0,0,1,.49.2,2.664,2.664,0,0,1-.514-.128l-1.373-.419c-1.157-.362-2.749-.872-4.508-1.451s-3.345-1.109-4.488-1.5l-1.353-.477A2.912,2.912,0,0,1,164.43,420.94Z" transform="translate(-124.627 -292.344)"/>
      <path id="패스_457" data-name="패스 457" class="cls-2" d="M201.24,412.856a3.021,3.021,0,0,1,.4-.4l1.119-1.052c.944-.889,2.242-2.124,3.639-3.527s2.631-2.705,3.517-3.652l1.048-1.123a3.584,3.584,0,0,1,.4-.4,2.993,2.993,0,0,1-.338.446c-.23.281-.575.676-1.015,1.163-.862.974-2.08,2.293-3.483,3.7s-2.705,2.628-3.679,3.493c-.487.429-.883.778-1.163,1.015A3.393,3.393,0,0,1,201.24,412.856Z" transform="translate(-148.988 -280.273)"/>
      <path id="패스_458" data-name="패스 458" class="cls-1" d="M76.827,67.2l-3.3-1.015a2.94,2.94,0,0,1-3.761,1.924A2.8,2.8,0,0,1,67.712,65.6a3.084,3.084,0,0,1,1.065-2.614c.849-.751,2.337-1.207,4.437-.122l2.323-7.44L72.275,54.41l-1.353,4.359a6.675,6.675,0,0,0-6.524,4.8c-1.5,4.826,2.472,7.3,4.325,7.876C70.131,71.881,75.071,73.044,76.827,67.2Z" transform="translate(-58.204 -49.769)"/>
      <rect id="사각형_304" data-name="사각형 304" class="cls-1" width="3.24" height="3.47" transform="translate(14.513 3.093) rotate(-72.67)"/>
      <path id="패스_459" data-name="패스 459" class="cls-3" d="M128.476,61.162l1.322-.338a1.16,1.16,0,0,1,.819-1.421l.037-.009a1.109,1.109,0,0,1,1.217.409,1.22,1.22,0,0,1,.186,1.092,1.479,1.479,0,0,1-1.461.974l.788,2.979,1.305-.338-.46-1.745a2.634,2.634,0,0,0,1.173-2.976,2.459,2.459,0,0,0-3.1-1.731A2.319,2.319,0,0,0,128.476,61.162Z" transform="translate(-100.745 -52.128)"/>
      <rect id="사각형_305" data-name="사각형 305" class="cls-3" width="1.379" height="1.287" transform="translate(31.073 13.174) rotate(-15.005)"/>
      <path id="패스_460" data-name="패스 460" class="cls-3" d="M451.54,165.222l1.285.463a1.163,1.163,0,0,1,1.5-.687l.027.01a1.1,1.1,0,0,1,.764,1.015,1.227,1.227,0,0,1-.467,1.015,1.481,1.481,0,0,1-1.755-.034l-1.052,2.9,1.272.46.616-1.691a2.642,2.642,0,0,0,2.661-1.779,2.458,2.458,0,0,0-1.569-3.186A2.327,2.327,0,0,0,451.54,165.222Z" transform="translate(-314.641 -121.96)"/>
      <rect id="사각형_306" data-name="사각형 306" class="cls-3" width="1.282" height="1.373" transform="translate(136.551 49.727) rotate(-70.09)"/>
      <path id="패스_461" data-name="패스 461" class="cls-1" d="M47.249,197.6l2.705-1.048a2.479,2.479,0,0,1,1.478-3.24,2.367,2.367,0,0,1,2.672.585,2.615,2.615,0,0,1,.656,2.276c-.169.94-.913,2.029-2.871,2.4l2.367,6.131,2.705-1.035-1.387-3.592a5.654,5.654,0,0,0,1.8-6.588c-1.539-3.977-5.475-3.524-6.987-2.939C49.217,191,45.348,192.818,47.249,197.6Z" transform="translate(-46.732 -139.617)"/>
      <rect id="사각형_307" data-name="사각형 307" class="cls-1" width="2.925" height="2.733" transform="translate(8.012 66.353) rotate(-21.07)"/>
      <path id="패스_462" data-name="패스 462" class="cls-1" d="M440.085,232.779l-1.928.741a1.757,1.757,0,0,1-1.048,2.3,1.691,1.691,0,0,1-1.894-.413,1.85,1.85,0,0,1-.463-1.613,2.208,2.208,0,0,1,2.029-1.691l-1.657-4.359-1.907.734.981,2.547a3.987,3.987,0,0,0-1.272,4.667,3.714,3.714,0,0,0,4.948,2.083A3.548,3.548,0,0,0,440.085,232.779Z" transform="translate(-302.128 -164.481)"/>
      <rect id="사각형_308" data-name="사각형 308" class="cls-1" width="2.073" height="1.934" transform="translate(130.016 61.304) rotate(-21.07)"/>
    </g>
    <g id="freepik--Plant--inject-2" transform="translate(49.252 124.993)">
      <path id="패스_463" data-name="패스 463" class="cls-4" d="M67.188,388.905c.338-1.245-.5-2.492-1.41-3.382a9.279,9.279,0,0,1-2.482-2.9c-.771-1.934.264-4.437-1.048-6.05-.774-.947-2.161-1.265-2.848-2.279a5.149,5.149,0,0,1-.619-1.809,18.37,18.37,0,0,0-4.576-8.563,15.969,15.969,0,0,0,1.8,8.252,10.237,10.237,0,0,1,1.353,3.135c.287,1.836-.741,3.72-.287,5.533.517,2.063,2.834,3.446,2.942,5.57.095,1.8-1.471,3.382-1.353,5.167a4.806,4.806,0,0,0,.808,2.131,7.131,7.131,0,0,0,6.52,3.849l3.788.132Z" transform="translate(-54.183 -338.915)"/>
      <g id="그룹_317" data-name="그룹 317" class="cls-5" transform="translate(0 25.005)">
        <path id="패스_464" data-name="패스 464" d="M67.188,388.905c.338-1.245-.5-2.492-1.41-3.382a9.279,9.279,0,0,1-2.482-2.9c-.771-1.934.264-4.437-1.048-6.05-.774-.947-2.161-1.265-2.848-2.279a5.149,5.149,0,0,1-.619-1.809,18.37,18.37,0,0,0-4.576-8.563,15.969,15.969,0,0,0,1.8,8.252,10.237,10.237,0,0,1,1.353,3.135c.287,1.836-.741,3.72-.287,5.533.517,2.063,2.834,3.446,2.942,5.57.095,1.8-1.471,3.382-1.353,5.167a4.806,4.806,0,0,0,.808,2.131,7.131,7.131,0,0,0,6.52,3.849l3.788.132Z" transform="translate(-54.183 -363.92)"/>
      </g>
      <path id="패스_465" data-name="패스 465" class="cls-6" d="M98.865,372.279a3.047,3.047,0,0,0,1.045-.02,6.508,6.508,0,0,0,1.228-.311,5.261,5.261,0,0,0,1.522-.832,2.1,2.1,0,0,0,.626-.835,3.936,3.936,0,0,0,.176-1.13,11.062,11.062,0,0,1,.091-1.224,3.313,3.313,0,0,1,.46-1.217,9.206,9.206,0,0,0,1.427-2.594,9.026,9.026,0,0,0-.1-3.318,7.142,7.142,0,0,1,.088-3.558c.426-1.19,1.238-2.256,1.654-3.588a18,18,0,0,0,.308-4.231,5.582,5.582,0,0,1,.494-2.1c.3-.676.73-1.3,1.062-2.005a14.558,14.558,0,0,0,.974-4.63c.091-.8.179-1.606.271-2.418a12.016,12.016,0,0,1,.423-2.425,21.74,21.74,0,0,1,.906-2.344,8.148,8.148,0,0,0,.44-1.221,12.319,12.319,0,0,0,.122-1.305,15.5,15.5,0,0,0-.1-2.621c-.1-.873-.26-1.738-.355-2.614v-.152l-.02-.172-.152.074a5.852,5.852,0,0,0-2.029,1.721,9.355,9.355,0,0,0-1.255,2.31,28.339,28.339,0,0,0-1.177,4.958,13.666,13.666,0,0,1-1.556,4.579c-.416.676-.92,1.292-1.353,1.948a5.334,5.334,0,0,0-.94,2.158c-.227,1.6.656,3.01.473,4.43a4.9,4.9,0,0,1-.676,1.965c-.338.605-.747,1.167-1.133,1.728a11.08,11.08,0,0,0-1.015,1.748,5.506,5.506,0,0,0-.467,1.9c-.091,1.278.088,2.489,0,3.632a8.365,8.365,0,0,1-.937,3.115c-.457.93-.967,1.772-1.393,2.59-.213.406-.413.8-.575,1.207a6.054,6.054,0,0,0-.338,1.2,7.5,7.5,0,0,0-.027,2.161,5.447,5.447,0,0,0,1.082,2.756,2.725,2.725,0,0,0,.308.338,1.537,1.537,0,0,0,.247.21c.142.1.216.152.216.152a4.717,4.717,0,0,1-.734-.724,5.462,5.462,0,0,1-1.015-2.739,7.472,7.472,0,0,1,.047-2.131,5.762,5.762,0,0,1,.338-1.167,12.422,12.422,0,0,1,.578-1.19c.429-.812.944-1.65,1.41-2.587a8.455,8.455,0,0,0,.967-3.169c.1-1.167-.074-2.384.02-3.629a5.435,5.435,0,0,1,.457-1.836,11.049,11.049,0,0,1,1.015-1.711c.386-.561.795-1.123,1.146-1.742a5.079,5.079,0,0,0,.724-2.046c.183-1.512-.693-2.925-.467-4.417a5.184,5.184,0,0,1,.91-2.063c.429-.646.937-1.261,1.353-1.955a13.614,13.614,0,0,0,1.593-4.653,27.743,27.743,0,0,1,1.17-4.921,9.1,9.1,0,0,1,1.221-2.246,5.609,5.609,0,0,1,1.951-1.65l-.172-.1a.5.5,0,0,0,.017.156c.095.886.254,1.752.338,2.618a14.988,14.988,0,0,1,.1,2.58,12.669,12.669,0,0,1-.115,1.265,7.619,7.619,0,0,1-.426,1.18,22.337,22.337,0,0,0-.913,2.367,12.279,12.279,0,0,0-.426,2.462c-.088.815-.179,1.623-.267,2.421a14.609,14.609,0,0,1-.947,4.559c-.338.676-.744,1.322-1.059,2.012a5.787,5.787,0,0,0-.507,2.181,18.245,18.245,0,0,1-.291,4.183c-.4,1.292-1.217,2.367-1.633,3.588a7.539,7.539,0,0,0-.081,3.646,8.461,8.461,0,0,1,.122,3.253,10.179,10.179,0,0,1-1.393,2.56,3.448,3.448,0,0,0-.47,1.268,10.661,10.661,0,0,0-.081,1.238,3.782,3.782,0,0,1-.162,1.1,1.99,1.99,0,0,1-.585.795,5.209,5.209,0,0,1-1.485.839,6.547,6.547,0,0,1-1.214.338,4.642,4.642,0,0,1-.768.074C98.956,372.279,98.865,372.279,98.865,372.279Z" transform="translate(-82.511 -313.428)"/>
      <path id="패스_466" data-name="패스 466" class="cls-6" d="M114.533,332.1a.406.406,0,0,0-.037.115l-.081.338c-.074.3-.166.751-.308,1.312s-.49,1.2-.785,1.978a28.229,28.229,0,0,0-.9,2.685c-.291,1.015-.544,2.131-.815,3.334a14.028,14.028,0,0,1-1.211,3.7,20.249,20.249,0,0,0-.937,1.921,8.809,8.809,0,0,0-.544,2.171,44.379,44.379,0,0,1-.818,4.582c-.758,3.1-1.481,6.057-2.141,8.749s-1.282,5.1-1.8,7.136-.9,3.659-1.187,4.819c-.132.555-.237.991-.311,1.312-.03.139-.057.25-.078.338a.628.628,0,0,0,0,.118.445.445,0,0,0,.044-.112c.024-.091.057-.2.1-.338.085-.315.2-.751.355-1.3.3-1.15.734-2.783,1.265-4.8s1.15-4.447,1.843-7.122,1.4-5.651,2.161-8.756a42.125,42.125,0,0,0,.8-4.6,8.747,8.747,0,0,1,.528-2.12c.267-.676.609-1.282.92-1.9a13.813,13.813,0,0,0,1.211-3.754c.267-1.194.5-2.323.781-3.331s.568-1.907.859-2.685a20.569,20.569,0,0,0,.751-2c.139-.582.2-1.015.264-1.326.023-.14.043-.253.061-.338S114.539,332.1,114.533,332.1Z" transform="translate(-86.214 -317.856)"/>
      <path id="패스_467" data-name="패스 467" class="cls-4" d="M77.755,348.848c2.472-1.471,3.182-5.935,2.151-8.62s-2.837-5.14-3.115-8c-.216-2.2.507-4.461,0-6.611-.693-2.9-3.527-5.154-3.493-8.14.017-1.674.971-3.25.893-4.924-.091-2.049-1.667-3.679-2.641-5.485-1.495-2.77-1.593-6.04-2.1-9.131S67.755,291.505,65,289.98c-.406,2.634-1.1,4.44-.883,8.008.081,1.282,1.569,3.72,1.772,6.544.122,1.691.2,3.362.308,5.039a16.122,16.122,0,0,0,.791,4.829c.45,1.173,1.17,2.239,1.5,3.449.626,2.276-.2,4.735.308,7.048.429,1.955,1.782,3.635,2.06,5.617.386,2.783-1.414,5.678-.494,8.333.46,1.319,1.542,2.367,1.85,3.737.24,1.055-.02,2.174.2,3.233.338,1.711,3.605,3.044,5.347,2.932" transform="translate(-60.732 -289.98)"/>
      <path id="패스_468" data-name="패스 468" class="cls-6" d="M68.8,297.67a.782.782,0,0,0,0,.149c0,.112.034.254.054.433.057.382.122.94.25,1.664s.514,1.542.812,2.53.629,2.117.906,3.382.521,2.675.768,4.187a17.108,17.108,0,0,0,1.268,4.735c.338.788.737,1.579,1.015,2.425a10.937,10.937,0,0,1,.521,2.672,53.53,53.53,0,0,0,.727,5.749c.758,3.9,1.478,7.619,2.134,11S78.573,343,79.1,345.56s.96,4.6,1.261,6.04l.338,1.64c.041.176.071.315.1.423a.827.827,0,0,0,.041.145.609.609,0,0,0,0-.149c-.02-.112-.044-.25-.074-.43-.074-.392-.179-.947-.311-1.65-.284-1.444-.676-3.507-1.187-6.053s-1.116-5.6-1.789-8.972-1.353-7.1-2.114-11a53.967,53.967,0,0,1-.73-5.749,11.1,11.1,0,0,0-.538-2.726c-.3-.859-.7-1.654-1.045-2.438a17.189,17.189,0,0,1-1.272-4.677c-.257-1.5-.5-2.919-.8-4.19s-.615-2.408-.947-3.382-.7-1.8-.849-2.506-.22-1.275-.291-1.65c-.034-.176-.061-.318-.081-.429A1.134,1.134,0,0,0,68.8,297.67Z" transform="translate(-63.856 -295.069)"/>
    </g>
    <g id="freepik--speech-bubble--inject-2" transform="translate(161.035 45.221)">
      <path id="패스_469" data-name="패스 469" class="cls-4" d="M411.6,80.477h-1.353a1.147,1.147,0,0,1-1.139,1.154h-.034a1.089,1.089,0,0,1-1.055-.7,1.2,1.2,0,0,1,.095-1.089,1.462,1.462,0,0,1,1.637-.561V76.24h-1.329v1.779a2.6,2.6,0,0,0-1.863,2.536,2.419,2.419,0,0,0,2.523,2.425A2.288,2.288,0,0,0,411.6,80.477Z" transform="translate(-399.174 -68.751)"/>
      <rect id="사각형_309" data-name="사각형 309" class="cls-4" width="1.349" height="1.261" transform="translate(9.238 5.612)"/>
      <path id="패스_470" data-name="패스 470" class="cls-6" d="M404.526,64.023a1.13,1.13,0,0,0,0-.172v-.5a2.894,2.894,0,0,0-.017-.369c-.017-.135-.037-.284-.061-.44s-.047-.338-.074-.517l-.142-.575a9.383,9.383,0,0,0-1.217-2.79,9.838,9.838,0,0,0-7.4-4.525,9.978,9.978,0,0,0-1.353-.027,3.447,3.447,0,0,0-.676.044l-.7.1a10.029,10.029,0,0,0-2.746.937,10.7,10.7,0,0,0-2.465,1.8,10.264,10.264,0,0,0-1.857,2.584,9.378,9.378,0,0,0-1,3.148,6.38,6.38,0,0,0-.071.842,7.111,7.111,0,0,0-.017.849,9.98,9.98,0,0,0,1.64,5.09v-.1c-.47,1.173-.933,2.327-1.387,3.449l-.081.206.213-.061,3.686-1.015-.088-.02a9.868,9.868,0,0,0,4.221,1.846,8.79,8.79,0,0,0,2.158.132,6.561,6.561,0,0,0,1.038-.1l.5-.078c.166-.03.338-.081.487-.118a9.865,9.865,0,0,0,5.621-3.852,9.416,9.416,0,0,0,1.207-2.289c.064-.179.125-.338.183-.514s.088-.338.125-.49.078-.308.112-.45.044-.281.064-.413c.03-.26.078-.49.088-.676s0-.365,0-.507v-.413a.364.364,0,0,0,0,.1,1.59,1.59,0,0,1-.024.308c-.024.129-.02.308-.034.5s-.064.426-.1.676a9.807,9.807,0,0,1-7.274,7.846c-.159.037-.318.085-.48.115l-.5.074a6.715,6.715,0,0,1-1.015.091,9.01,9.01,0,0,1-2.117-.139,9.759,9.759,0,0,1-4.122-1.816l-.041-.034h-.051l-3.69,1.015.128.145,1.39-3.446.02-.054-.03-.051a9.73,9.73,0,0,1-1.393-3.311,9.91,9.91,0,0,1-.21-1.664,6.775,6.775,0,0,1,.017-.829,5.519,5.519,0,0,1,.068-.822A9.148,9.148,0,0,1,386,59.671a10.183,10.183,0,0,1,1.809-2.53,10.439,10.439,0,0,1,2.415-1.762,9.732,9.732,0,0,1,2.689-.93l.676-.1c.227-.034.453-.03.676-.047a10.091,10.091,0,0,1,1.322.024,9.733,9.733,0,0,1,7.315,4.4,9.368,9.368,0,0,1,1.238,2.746l.152.568c.03.179.057.338.085.507s.047.3.071.44.017.257.027.365a4.889,4.889,0,0,0,.037.5A.572.572,0,0,0,404.526,64.023Z" transform="translate(-384.723 -54.096)"/>
    </g>
    <g id="freepik--question-mark--inject-2" transform="translate(71.892 58.404)">
      <path id="패스_471" data-name="패스 471" class="cls-4" d="M145.062,129.7h19.53s0-16.4,17.041-16.689c8.85-.156,13.439,5.644,15.306,10.085a17.505,17.505,0,0,1-1.393,15.82c-3.311,5.462-10.447,10.95-23.609,8.63l-.125,43.514h19.314v-25.8s27.085-7,27.085-36.862c0-28.56-23.095-34.728-35.509-35.127-6.906-.22-9.408-.517-17.951.7C153.865,95.53,144.832,108.171,145.062,129.7Z" transform="translate(-136.965 -93.077)"/>
      <rect id="사각형_310" data-name="사각형 310" class="cls-4" width="19.601" height="18.306" transform="translate(34.792 107.056)"/>
      <rect id="사각형_311" data-name="사각형 311" class="cls-7" width="19.601" height="18.306" transform="translate(34.792 107.056)"/>
      <path id="패스_472" data-name="패스 472" class="cls-7" d="M145.062,129.7h19.53s0-16.4,17.041-16.689c8.85-.156,13.439,5.644,15.306,10.085a17.505,17.505,0,0,1-1.393,15.82c-3.311,5.462-10.447,10.95-23.609,8.63l-.125,43.514h19.314v-25.8s27.085-7,27.085-36.862c0-28.56-23.095-34.728-35.509-35.127-6.906-.22-9.408-.517-17.951.7C153.865,95.53,144.832,108.171,145.062,129.7Z" transform="translate(-136.965 -93.077)"/>
      <path id="패스_473" data-name="패스 473" class="cls-4" d="M121.133,129.97h19.533s0-16.4,17.041-16.689a15.8,15.8,0,0,1,15.3,10.085,17.494,17.494,0,0,1-1.39,15.82c-3.311,5.462-10.572,10.426-23.734,8.116V191.33H167.2v-25.8s27.085-7,27.085-36.862c0-28.56-25.614-35.191-36.575-35.191C149.327,93.49,120.764,95.516,121.133,129.97Z" transform="translate(-121.13 -93.344)"/>
      <path id="패스_474" data-name="패스 474" class="cls-8" d="M121.133,129.97h19.533s0-16.4,17.041-16.689a15.8,15.8,0,0,1,15.3,10.085,17.494,17.494,0,0,1-1.39,15.82c-3.311,5.462-10.572,10.426-23.734,8.116V191.33H167.2v-25.8s27.085-7,27.085-36.862c0-28.56-25.614-35.191-36.575-35.191C149.327,93.49,120.764,95.516,121.133,129.97Z" transform="translate(-121.13 -93.344)"/>
      <rect id="사각형_312" data-name="사각형 312" class="cls-4" width="19.601" height="18.306" transform="translate(26.703 107.056)"/>
      <rect id="사각형_313" data-name="사각형 313" class="cls-8" width="19.601" height="18.306" transform="translate(26.703 107.056)"/>
      <path id="패스_475" data-name="패스 475" class="cls-6" d="M197.921,151.871a1.671,1.671,0,0,1-.291,0c-.193,0-.47-.064-.832-.068a16.872,16.872,0,0,0-3.064.129,21.723,21.723,0,0,0-4.42,1.038,18.879,18.879,0,0,0-2.462,1.062,13.014,13.014,0,0,0-2.411,1.559,11.911,11.911,0,0,0-1.972,2.083,20.416,20.416,0,0,0-1.478,2.239,20.022,20.022,0,0,0-1.748,4.187,17.008,17.008,0,0,0-.588,3.01c-.041.358-.051.643-.061.832a1.523,1.523,0,0,1-.027.291,1.607,1.607,0,0,1,0-.291c0-.193,0-.477.03-.839a15.573,15.573,0,0,1,.538-3.044,19.479,19.479,0,0,1,1.725-4.234,20.292,20.292,0,0,1,1.485-2.262,11.829,11.829,0,0,1,2-2.114,13.105,13.105,0,0,1,2.442-1.579,18.972,18.972,0,0,1,2.479-1.082,21.235,21.235,0,0,1,4.461-1.015,15.557,15.557,0,0,1,3.081-.071,7.326,7.326,0,0,1,.832.1A2.086,2.086,0,0,1,197.921,151.871Z" transform="translate(-159.138 -131.846)"/>
      <path id="패스_476" data-name="패스 476" class="cls-6" d="M258.27,110s-.024-.024-.064-.074-.1-.139-.169-.237l-.646-.913c-.139-.2-.287-.423-.463-.656l-.609-.741-.7-.856c-.254-.3-.551-.585-.849-.9s-.6-.649-.947-.971-.714-.649-1.092-.987c-.189-.169-.375-.338-.578-.517l-.629-.5c-.43-.338-.856-.676-1.319-1.015a42.532,42.532,0,0,0-6.4-3.781l-1.782-.8-1.769-.676c-.578-.24-1.167-.409-1.735-.6s-1.123-.382-1.691-.514l-1.617-.423c-.524-.139-1.045-.223-1.542-.338a14.062,14.062,0,0,0-1.447-.274l-1.353-.2c-.856-.145-1.64-.176-2.323-.243-.338-.027-.676-.064-.957-.078l-.8-.02-1.116-.037h-.389a.318.318,0,0,1,.1,0h2.215c.294,0,.616.041.96.064.676.057,1.474.081,2.33.22l1.353.183c.47.054.95.176,1.451.267s1.015.186,1.552.338l1.623.419c.561.129,1.116.338,1.691.511a14.277,14.277,0,0,1,1.738.6l1.779.676,1.792.808a41.474,41.474,0,0,1,6.425,3.808c.467.338.893.7,1.322,1.035l.629.457c.2.169.389.338.578.521l1.089,1.015c.338.338.643.676.944.984s.588.609.842.91l.676.862.6.751c.172.237.318.467.453.676.264.4.47.707.616.93l.159.247A.392.392,0,0,1,258.27,110Z" transform="translate(-190.058 -93.456)"/>
      <path id="패스_477" data-name="패스 477" class="cls-6" d="M277.6,266a1.049,1.049,0,0,1-.145.2l-.467.551c-.193.247-.436.541-.737.869s-.622.714-1.015,1.113-.812.845-1.288,1.3-.994.923-1.546,1.417a42.235,42.235,0,0,1-7.9,5.448c-.656.338-1.275.676-1.874.937s-1.157.528-1.671.744-.988.4-1.4.555-.774.287-1.072.382l-.676.22a1.192,1.192,0,0,1-.243.068,1.215,1.215,0,0,1,.23-.1l.676-.25c.294-.1.649-.24,1.059-.409s.883-.338,1.39-.578,1.069-.467,1.654-.761,1.211-.605,1.863-.947c1.288-.71,2.678-1.542,4.082-2.5a45.917,45.917,0,0,0,3.788-2.925c.551-.487,1.079-.944,1.549-1.4s.91-.876,1.3-1.275.73-.768,1.035-1.092.555-.609.758-.845l.473-.538A1.541,1.541,0,0,1,277.6,266Z" transform="translate(-211.428 -207.52)"/>
      <path id="패스_478" data-name="패스 478" class="cls-6" d="M256.171,330.795c-.051,0-.091-5.431-.091-12.131s.041-12.134.091-12.134.088,5.431.088,12.134S256.219,330.795,256.171,330.795Z" transform="translate(-210.442 -234.344)"/>
      <path id="패스_479" data-name="패스 479" class="cls-6" d="M258.378,426.778c-.051,0-.088-3.811-.088-8.512s.037-8.515.088-8.515.088,3.811.088,8.515S258.425,426.778,258.378,426.778Z" transform="translate(-211.905 -302.657)"/>
    </g>
    <g id="freepik--Character--inject-2" transform="translate(136.015 51.253)">
      <path id="패스_480" data-name="패스 480" class="cls-4" d="M315.29,186.754c-.338.676.923,1.231,1.65,1.451a6.639,6.639,0,0,0,2.269.156,6.525,6.525,0,0,0,2.929-.649,4.674,4.674,0,0,0,1.765-1.978,13.919,13.919,0,0,0,.9-2.533S316.808,183.721,315.29,186.754Z" transform="translate(-313.714 -145.571)"/>
      <g id="그룹_318" data-name="그룹 318" class="cls-9" transform="translate(1.519 37.629)">
        <path id="패스_481" data-name="패스 481" d="M315.29,186.754c-.338.676.923,1.231,1.65,1.451a6.639,6.639,0,0,0,2.269.156,6.525,6.525,0,0,0,2.929-.649,4.674,4.674,0,0,0,1.765-1.978,13.919,13.919,0,0,0,.9-2.533S316.808,183.721,315.29,186.754Z" transform="translate(-315.233 -183.2)"/>
      </g>
      <path id="패스_482" data-name="패스 482" class="cls-4" d="M381.121,182.712a7.671,7.671,0,0,0,4.511,1.414,3.188,3.188,0,0,0,2.147-.676c.26-.24.457-.544.724-.774.183-.156.4-.274.568-.44a.727.727,0,0,0,.247-.643,1.328,1.328,0,0,0-.467-.744,5.846,5.846,0,0,0-3.067-.477,10.558,10.558,0,0,0-3.094.605,3.59,3.59,0,0,0-2.09,1.42" transform="translate(-356.975 -143.693)"/>
      <g id="그룹_319" data-name="그룹 319" class="cls-9" transform="translate(23.625 36.674)">
        <path id="패스_483" data-name="패스 483" d="M389.318,181.6a1.4,1.4,0,0,0-.6-.676,5.4,5.4,0,0,0-2.935-.544,10.559,10.559,0,0,0-3.094.605,3.59,3.59,0,0,0-2.09,1.42l.521.315a7.671,7.671,0,0,0,4.511,1.414,3.189,3.189,0,0,0,2.147-.676c.26-.24.457-.544.724-.774.183-.156.4-.274.568-.44A.727.727,0,0,0,389.318,181.6Z" transform="translate(-380.6 -180.376)"/>
      </g>
      <path id="패스_484" data-name="패스 484" class="cls-4" d="M319.283,165.49l16.858.223a.22.22,0,0,0,.219-.22.214.214,0,0,0-.009-.064l-1.978-6.168s.291-3.084.693-6.791c.612-5.631,1.427-12.709,1.437-12.689-1.153-3.233-7.957-3.781-7.957-3.781l-7.755.46L320.52,136l-2.232,1.038a10.184,10.184,0,0,0-1.4.791c-1.474.984-5.025,3.247-5.675,5.766-1.5,5.834,1.038,12.344,1.038,12.344l1.63-1.275a11.429,11.429,0,0,1,1.292-.862l3.267,8.756a1.546,1.546,0,0,0-.71,1.123,1.729,1.729,0,0,0,1.552,1.806" transform="translate(-310.74 -114.333)"/>
      <g id="그룹_320" data-name="그룹 320" class="cls-5" transform="translate(13.573 32.096)">
        <path id="패스_485" data-name="패스 485" d="M353.078,175.579a31.135,31.135,0,0,0-.034-8.739c-.933,2.367-.9,5.073-1.89,7.42a3.186,3.186,0,0,0-.264.781.876.876,0,0,0,.223.764c.271.247.676.112,1.035.071a4.048,4.048,0,0,0,.93-.3" transform="translate(-350.875 -166.84)"/>
      </g>
      <g id="그룹_321" data-name="그룹 321" class="cls-9" transform="translate(9.344 45.346)">
        <path id="패스_486" data-name="패스 486" d="M338.583,208.163c1.353.47,2.793-.406,4.224-.561a10.716,10.716,0,0,1,2.834.267,21.26,21.26,0,0,0,5.749.142,2.209,2.209,0,0,0,.845-.22,1.015,1.015,0,0,0,.443-.839c-3.186-.338-6.368-.521-9.554-.849a5.966,5.966,0,0,0-2.388.078,5.66,5.66,0,0,0-2.367,1.8" transform="translate(-338.37 -206.019)"/>
      </g>
      <path id="패스_487" data-name="패스 487" class="cls-4" d="M385.4,157.867c-1.376-3.1-6.229-11.677-6.229-11.677L375.41,150.9l.876,9.249s1.985-2.215,7.535-2.259a2.706,2.706,0,0,1,2.063,1.089Z" transform="translate(-353.54 -121.077)"/>
      <path id="패스_488" data-name="패스 488" class="cls-6" d="M336.086,167.855a25.07,25.07,0,0,1-1.1-4.1,13.424,13.424,0,0,1,.632,2.029A13.09,13.09,0,0,1,336.086,167.855Z" transform="translate(-326.789 -132.705)"/>
      <path id="패스_489" data-name="패스 489" class="cls-6" d="M374.568,158.27a2.225,2.225,0,0,1,.338.294,9.82,9.82,0,0,1,.839.92,8.932,8.932,0,0,1,1.8,3.673,6.93,6.93,0,0,1,.1,2.266c-.085.693-.216,1.3-.3,1.816s-.142.933-.169,1.224a2.256,2.256,0,0,1-.047.45,2.025,2.025,0,0,1-.02-.457,11,11,0,0,1,.115-1.238c.071-.517.189-1.133.267-1.813a7,7,0,0,0-.118-2.212,9.327,9.327,0,0,0-1.721-3.632C375.028,158.73,374.541,158.3,374.568,158.27Z" transform="translate(-352.982 -129.072)"/>
      <path id="패스_490" data-name="패스 490" class="cls-6" d="M347.1,215.644a1.443,1.443,0,0,1-.369.108,3.288,3.288,0,0,1-.44.085c-.172.024-.369.061-.588.071a8.465,8.465,0,0,1-1.549,0,10.012,10.012,0,0,1-1.86-.372,10.164,10.164,0,0,1-1.745-.747,8.926,8.926,0,0,1-1.282-.869c-.176-.135-.318-.277-.446-.4a3.857,3.857,0,0,1-.315-.318,1.322,1.322,0,0,1-.24-.3c.024-.024.385.382,1.079.913a9.75,9.75,0,0,0,1.282.825,10.753,10.753,0,0,0,1.718.72,10.616,10.616,0,0,0,1.826.379,9.989,9.989,0,0,0,1.522.047C346.566,215.745,347.1,215.617,347.1,215.644Z" transform="translate(-328.96 -165.232)"/>
      <path id="패스_491" data-name="패스 491" class="cls-6" d="M377.661,215.32a1.177,1.177,0,0,1,.132.494,3.039,3.039,0,0,1-.091,1.231,2.138,2.138,0,0,1-.676,1.048c-.247.206-.436.271-.446.254s.149-.129.362-.338a2.4,2.4,0,0,0,.578-1.015A6.077,6.077,0,0,0,377.661,215.32Z" transform="translate(-354.313 -166.829)"/>
      <path id="패스_492" data-name="패스 492" class="cls-6" d="M375.648,218.84a1.833,1.833,0,0,1-.724,1.867c-.037-.037.277-.372.473-.889S375.6,218.843,375.648,218.84Z" transform="translate(-353.216 -169.158)"/>
      <path id="패스_493" data-name="패스 493" class="cls-6" d="M365.814,185.94a7.207,7.207,0,0,1-.6.866,6.931,6.931,0,0,1-.592.873,2.168,2.168,0,0,1,.446-.974A2.135,2.135,0,0,1,365.814,185.94Z" transform="translate(-346.399 -147.385)"/>
      <path id="패스_494" data-name="패스 494" class="cls-6" d="M322.911,157.543a8.433,8.433,0,0,1-.747-.494,9.6,9.6,0,0,0-3.994-1.491,7.5,7.5,0,0,1-.889-.118,3.31,3.31,0,0,1,.9,0,8.076,8.076,0,0,1,4.058,1.512A3.237,3.237,0,0,1,322.911,157.543Z" transform="translate(-315.068 -127.178)"/>
      <path id="패스_495" data-name="패스 495" class="cls-6" d="M380.7,145.86a10.043,10.043,0,0,0-2.973,3.554,2.062,2.062,0,0,1,.233-.656,6.83,6.83,0,0,1,.913-1.414,6.642,6.642,0,0,1,1.238-1.14A1.987,1.987,0,0,1,380.7,145.86Z" transform="translate(-355.075 -120.859)"/>
      <path id="패스_496" data-name="패스 496" class="cls-6" d="M346.78,137.62a.739.739,0,0,1,.074.156,3.028,3.028,0,0,1,.159.473,3.977,3.977,0,0,1,0,1.833,4.512,4.512,0,0,1-1.38,2.33,4.685,4.685,0,0,1-3.111,1.109,5.277,5.277,0,0,1-3.162-1.038,5.988,5.988,0,0,1-1.728-2.093,6.341,6.341,0,0,1-.575-1.742,3.782,3.782,0,0,1-.061-.494.548.548,0,0,1,0-.176s.037.237.132.656a6.9,6.9,0,0,0,.619,1.691,5.994,5.994,0,0,0,1.715,2.029,5.167,5.167,0,0,0,3.044,1.015,4.571,4.571,0,0,0,3.006-1.055,4.464,4.464,0,0,0,1.353-2.239,4.127,4.127,0,0,0,.061-1.786C346.861,137.843,346.759,137.627,346.78,137.62Z" transform="translate(-328.112 -115.406)"/>
      <g id="그룹_322" data-name="그룹 322" class="cls-5" transform="translate(18.221 38.665)">
        <path id="패스_497" data-name="패스 497" d="M366.25,186.752a.5.5,0,0,0-.176-.453.337.337,0,0,0-.3,0,.832.832,0,0,0-.247.2,4.144,4.144,0,0,0-.9,1.444l1.657-.145C366.267,187.459,366.26,187.1,366.25,186.752Z" transform="translate(-364.62 -186.263)"/>
      </g>
      <g id="그룹_323" data-name="그룹 323" class="cls-5" transform="translate(24.15 33.097)">
        <path id="패스_498" data-name="패스 498" d="M383.354,172.37a5.435,5.435,0,0,0-1.2-2.57,8.453,8.453,0,0,1,.074,5.266l.088-.223C382.776,173.906,383.479,173.317,383.354,172.37Z" transform="translate(-382.15 -169.8)"/>
      </g>
      <path id="패스_499" data-name="패스 499" class="cls-10" d="M359,408.53,357.993,423.7l-6.595-.078-1.038-15.77Z" transform="translate(-336.961 -294.248)"/>
      <path id="패스_500" data-name="패스 500" class="cls-4" d="M359.264,448.5v.44s7.44,2.99,7.511,4.4L352,453.254l.23-4.914A8.468,8.468,0,0,0,359.264,448.5Z" transform="translate(-338.047 -321.045)"/>
      <path id="패스_501" data-name="패스 501" class="cls-11" d="M356.273,452.96a.6.6,0,0,0-.419.676.575.575,0,0,0,.676.423.632.632,0,0,0,.44-.727.6.6,0,0,0-.751-.362" transform="translate(-340.591 -324.089)"/>
      <path id="패스_502" data-name="패스 502" class="cls-6" d="M352,460.56l.054-1.18,14.15.514s.656.291.578.751Z" transform="translate(-338.047 -328.352)"/>
      <path id="패스_503" data-name="패스 503" class="cls-6" d="M371,450.1c0,.071-.365.1-.72.338s-.548.531-.612.5.044-.446.48-.717S371.016,450.017,371,450.1Z" transform="translate(-349.727 -322.161)"/>
      <path id="패스_504" data-name="패스 504" class="cls-6" d="M376.274,452.109c.017.071-.3.189-.544.494s-.318.626-.392.622-.115-.413.2-.781S376.271,452.058,376.274,452.109Z" transform="translate(-353.457 -323.526)"/>
      <path id="패스_505" data-name="패스 505" class="cls-6" d="M380.611,455.217c-.068,0-.166-.338.024-.741s.524-.548.555-.49-.179.271-.338.6S380.685,455.211,380.611,455.217Z" transform="translate(-356.924 -324.774)"/>
      <path id="패스_506" data-name="패스 506" class="cls-6" d="M343.307,75.286a2.406,2.406,0,0,0-.9-2.705,3.937,3.937,0,0,0-2.939-.572,11.7,11.7,0,0,0-2.888,1.015,3.257,3.257,0,0,0-5.533,1.806,2.077,2.077,0,0,0-2.459,2.722l4.572,1.606,4.992,8.793a3.994,3.994,0,0,0,5.878-5.309,3.467,3.467,0,0,0,.7-.866,3.5,3.5,0,0,0,1.613-2.164A3.7,3.7,0,0,0,343.307,75.286Z" transform="translate(-322.468 -71.933)"/>
      <path id="패스_507" data-name="패스 507" class="cls-10" d="M341.319,99.986c-.284-1.431-.48-2.411-.477-2.4s2.705-1.048,2.509-4.812a39.9,39.9,0,0,0-1.471-7.22c-.6-2.158-2.607-4.535-4.735-3.849L330.7,84.849c-.646.21-.758.818-.605,1.478v.338L332.6,97.034l1.059,4.633a3.913,3.913,0,0,0,4.369,2.969h0a3.916,3.916,0,0,0,3.332-4.423C341.347,100.137,341.335,100.062,341.319,99.986Z" transform="translate(-323.507 -78.32)"/>
      <path id="패스_508" data-name="패스 508" class="cls-6" d="M363.2,100.029a.48.48,0,0,1-.338.568.46.46,0,0,1-.567-.319c0-.006,0-.013,0-.019a.477.477,0,0,1,.338-.565.457.457,0,0,1,.565.311Q363.194,100.018,363.2,100.029Z" transform="translate(-344.847 -90.294)"/>
      <path id="패스_509" data-name="패스 509" class="cls-6" d="M360.471,97.96c-.047.074-.457-.112-.957,0s-.818.436-.886.386,0-.145.139-.294a1.32,1.32,0,0,1,.693-.386,1.241,1.241,0,0,1,.778.085C360.427,97.828,360.492,97.929,360.471,97.96Z" transform="translate(-342.416 -88.944)"/>
      <path id="패스_510" data-name="패스 510" class="cls-6" d="M348.676,103.336a.477.477,0,0,1-.338.565.46.46,0,0,1-.57-.313v0a.48.48,0,0,1,.338-.568.46.46,0,0,1,.57.314Z" transform="translate(-335.237 -92.491)"/>
      <path id="패스_511" data-name="패스 511" class="cls-6" d="M346.091,101.49c-.044.074-.457-.115-.957,0s-.818.433-.886.386,0-.145.139-.3a1.331,1.331,0,0,1,.693-.382,1.269,1.269,0,0,1,.778.081C346.037,101.358,346.115,101.45,346.091,101.49Z" transform="translate(-332.899 -91.281)"/>
      <path id="패스_512" data-name="패스 512" class="cls-6" d="M355.1,103.438a3.567,3.567,0,0,1,.785-.318c.125-.041.243-.091.247-.183a.675.675,0,0,0-.166-.362l-.585-.9a18.482,18.482,0,0,1-1.39-2.367,18.156,18.156,0,0,1,1.576,2.262l.572.906a.774.774,0,0,1,.172.49.338.338,0,0,1-.172.23.845.845,0,0,1-.21.078A3.105,3.105,0,0,1,355.1,103.438Z" transform="translate(-339.365 -90.051)"/>
      <path id="패스_513" data-name="패스 513" class="cls-12" d="M351.914,128.357a9.47,9.47,0,0,1-5.154-.277,4.816,4.816,0,0,0,5.347,1.207Z" transform="translate(-334.579 -109.092)"/>
      <path id="패스_514" data-name="패스 514" class="cls-6" d="M345.5,99.485c-.034.145-.551.142-1.14.287s-1.055.365-1.15.25c-.041-.054.027-.2.206-.338a1.942,1.942,0,0,1,.825-.409,1.988,1.988,0,0,1,.916,0C345.4,99.319,345.521,99.417,345.5,99.485Z" transform="translate(-332.22 -89.993)"/>
      <path id="패스_515" data-name="패스 515" class="cls-6" d="M359.549,93.166c-.081.135-.514.1-1.015.2s-.9.267-1.015.169c-.054-.051,0-.179.145-.338a1.615,1.615,0,0,1,.781-.358,1.59,1.59,0,0,1,.849.061C359.5,92.994,359.583,93.1,359.549,93.166Z" transform="translate(-341.686 -85.748)"/>
      <path id="패스_516" data-name="패스 516" class="cls-6" d="M336.333,80.753a2.546,2.546,0,0,0,3.453,1.85c.534-.216,1.089-.622,1.63-.426s.764.967,1.282,1.255c.761.426,1.691-.311,2.54-.237a3.321,3.321,0,0,1,1.711,1.015,1.73,1.73,0,0,0,1.84.453,7.482,7.482,0,0,0-.6-1.63,2.523,2.523,0,0,0-1.238-1.17c-.3-.118-.619-.159-.9-.3-.612-.311-.886-1.015-1.329-1.546a2.79,2.79,0,0,0-2.367-.947,15.5,15.5,0,0,1-2.161.413c-.544-.024-1.065-.267-1.61-.257-1.059,0-1.853.947-2.442,1.83" transform="translate(-327.55 -76.645)"/>
      <path id="패스_517" data-name="패스 517" class="cls-6" d="M330.035,83.561a3.516,3.516,0,0,1-1.809-.484,2.854,2.854,0,0,0-2.705-.893,2.367,2.367,0,0,0-1.691,2.252,3.382,3.382,0,0,0-2.469,2.425,3.93,3.93,0,0,0,.845,3.554,7.013,7.013,0,0,1,.555.8,5.725,5.725,0,0,0-.6.913c-.774,1.711,1.326,2.367,1.326,2.367,0,1.15,1.065,1.143,1.745,1.14s1.055,1.813,1.586,1.742l-.538-5.6a.693.693,0,0,0,.247.047c1.282.024.947-2.4.534-3.044a7.512,7.512,0,0,0,.96-1.549,5.242,5.242,0,0,0,.047-2.59A6,6,0,0,0,330.035,83.561Z" transform="translate(-317.688 -78.678)"/>
      <path id="패스_518" data-name="패스 518" class="cls-10" d="M332.449,109.921a1.086,1.086,0,0,0-1.742-.582,1.466,1.466,0,0,0-.315,1.593A1.69,1.69,0,0,0,333,112.052C332.986,111.991,332.685,110.821,332.449,109.921Z" transform="translate(-323.69 -96.527)"/>
      <path id="패스_519" data-name="패스 519" class="cls-12" d="M333.319,112.7a.57.57,0,0,1-.088.081.389.389,0,0,1-.281.078.96.96,0,0,1-.646-.734,1.315,1.315,0,0,1-.03-.568.457.457,0,0,1,.213-.365.2.2,0,0,1,.25.051c.044.051.041.1.054.1s.037-.051,0-.135a.262.262,0,0,0-.118-.115.3.3,0,0,0-.223,0,.558.558,0,0,0-.315.436,1.35,1.35,0,0,0,.024.643,1.015,1.015,0,0,0,.788.8.427.427,0,0,0,.338-.145C333.329,112.758,333.329,112.707,333.319,112.7Z" transform="translate(-324.881 -97.838)"/>
      <path id="패스_520" data-name="패스 520" class="cls-13" d="M350.658,89.741a3.268,3.268,0,0,0,.477-.49,3.234,3.234,0,0,0,.676-1.691,3.121,3.121,0,0,0-.122-1.251,2.687,2.687,0,0,0-.774-1.2,3.186,3.186,0,0,0-3.1-.622c-.1.034-.2.085-.291.125a2.59,2.59,0,0,0-.267.152l-.135.074v-.149a1.089,1.089,0,0,0-.274-.71,1.739,1.739,0,0,0-.639-.433,2.31,2.31,0,0,0-1.451-.108c-.933.213-1.725.639-2.472.727a2.387,2.387,0,0,1-1.691-.338,1.308,1.308,0,0,1-.338-.338c-.054-.091-.081-.142-.074-.145a1.843,1.843,0,0,0,.443.429,2.368,2.368,0,0,0,1.633.274,5.768,5.768,0,0,0,1.136-.338,10.627,10.627,0,0,1,1.319-.429,2.836,2.836,0,0,1,.764-.078,2.319,2.319,0,0,1,.788.183,1.9,1.9,0,0,1,.676.487,1.29,1.29,0,0,1,.318.825l-.135-.074.281-.162c.1-.041.2-.095.311-.132a3.324,3.324,0,0,1,3.277.653,2.8,2.8,0,0,1,.8,1.278,3.291,3.291,0,0,1-.646,3.044,2.148,2.148,0,0,1-.375.338A.638.638,0,0,1,350.658,89.741Z" transform="translate(-330.222 -79.386)"/>
      <path id="패스_521" data-name="패스 521" class="cls-13" d="M350.789,77.442a2.654,2.654,0,0,0-.7-.24,1.842,1.842,0,0,0-.832.078,1.623,1.623,0,0,0-.856.622l-.085.118-.051-.135a2.539,2.539,0,0,0-2.063-1.532,3.282,3.282,0,0,0-1.982.575,8.759,8.759,0,0,1-1.573.812,2.5,2.5,0,0,1-1.19.142,1.847,1.847,0,0,1-.315-.088c-.068-.03-.1-.047-.1-.054s.152.044.426.071a2.6,2.6,0,0,0,1.14-.186,9.731,9.731,0,0,0,1.532-.839,5.224,5.224,0,0,1,.947-.463,2.593,2.593,0,0,1,1.136-.145,2.668,2.668,0,0,1,2.185,1.654h-.132a1.765,1.765,0,0,1,.944-.656,1.925,1.925,0,0,1,.886-.044,1.585,1.585,0,0,1,.528.2A.677.677,0,0,1,350.789,77.442Z" transform="translate(-330.793 -74.734)"/>
      <path id="패스_522" data-name="패스 522" class="cls-4" d="M354.295,114.147a.73.73,0,0,0-.575-.162.869.869,0,0,0-.572.416h0a.108.108,0,0,0-.02.027h0a.431.431,0,0,0-.061.257.605.605,0,0,0,.338.457.778.778,0,0,0,.886-.129A.632.632,0,0,0,354.295,114.147Z" transform="translate(-338.752 -99.758)"/>
      <path id="패스_523" data-name="패스 523" class="cls-6" d="M354.214,115.807c-.027,0-.058-.1-.149-.24a1.055,1.055,0,0,0-1.1-.5c-.166.024-.267.071-.277.047s.068-.1.25-.169a1.015,1.015,0,0,1,.727.041.987.987,0,0,1,.511.524C354.247,115.685,354.237,115.8,354.214,115.807Z" transform="translate(-338.501 -100.366)"/>
      <path id="패스_524" data-name="패스 524" class="cls-4" d="M334.226,117.856a.465.465,0,0,1-.03.426.679.679,0,0,1-1.278-.24.71.71,0,0,1,.139-.467c.176-.223.372-.23.372-.21a1.043,1.043,0,0,0-.267.281.6.6,0,0,0-.081.379.541.541,0,0,0,.254.375.558.558,0,0,0,.45.068.631.631,0,0,0,.308-.237A1.566,1.566,0,0,0,334.226,117.856Z" transform="translate(-325.417 -101.996)"/>
      <path id="패스_525" data-name="패스 525" class="cls-4" d="M331.909,117.208c.017,0,0,.115-.159.189a.443.443,0,0,1-.592-.544.43.43,0,0,1,.179-.22c.139-.085.243-.051.24-.03s-.081.044-.166.129a.338.338,0,0,0,.3.548C331.825,117.256,331.886,117.195,331.909,117.208Z" transform="translate(-324.239 -101.48)"/>
      <path id="패스_526" data-name="패스 526" class="cls-10" d="M344.364,189.738s8.373.487,13.324.531c3.832.037,5.543-.981,6.307-3.446.643-2.066-.737-6.033-.737-6.033a12.646,12.646,0,0,0-5.861,1.153l.443,1.813-13.5,1.163Z" transform="translate(-332.977 -143.976)"/>
      <path id="패스_527" data-name="패스 527" class="cls-12" d="M386.921,191.4a6.734,6.734,0,0,0-1.261-1.255,6.636,6.636,0,0,0-1.63-.717,1.179,1.179,0,0,1,.538.047,3.58,3.58,0,0,1,1.19.524,3.538,3.538,0,0,1,.923.92C386.871,191.2,386.942,191.388,386.921,191.4Z" transform="translate(-359.245 -149.684)"/>
      <path id="패스_528" data-name="패스 528" class="cls-10" d="M326.554,161.473h0a16.246,16.246,0,0,0-4.494,1.894l2.029,5.5a3.107,3.107,0,0,0,4.4,1.759c2.547-1.458,3.446-5.705,3.446-5.705l2.8-12.134-4.637-2.9-3.52,11.593" transform="translate(-318.232 -123.519)"/>
      <path id="패스_529" data-name="패스 529" class="cls-10" d="M344.015,132.679l.189-3.991-1.038-4.058c-.057-.223-.085-.5.1-.639a.494.494,0,0,1,.626.02,40.011,40.011,0,0,1,1.633,3.838,20.982,20.982,0,0,1,2.418-1.292c.365-.061.822,1.045.852,1.13a6.814,6.814,0,0,1,0,.744s1.268.037,1.383.21a4.468,4.468,0,0,1,.145,1.079s.538.172.622.578.26,1.075,0,1.224-.788.44-.788.44-.213,2.07-.271,2.259a13.057,13.057,0,0,1-1.245,1.353Z" transform="translate(-332.171 -106.318)"/>
      <path id="패스_530" data-name="패스 530" class="cls-12" d="M333,153.45a2.077,2.077,0,0,0,.389.159,2.683,2.683,0,0,0,1.194.095,3.33,3.33,0,0,0,1.731-.8,7.973,7.973,0,0,0,1.61-2.029,8.824,8.824,0,0,0,.626-1.4,14.819,14.819,0,0,0,.436-1.62c.264-1.14.551-2.367.856-3.673.609-2.607,1.292-5.523,2.029-8.664V135.5h.017c.233-.23.467-.463.7-.707.115-.122.23-.243.338-.369.054-.064.112-.129.156-.193a.49.49,0,0,0,.057-.206c.091-.676.162-1.376.237-2.083V131.9l.041-.02.646-.362c.047-.03.122-.064.152-.091a.193.193,0,0,0,.061-.112,1.207,1.207,0,0,0,0-.338,5.128,5.128,0,0,0-.152-.734.914.914,0,0,0-.538-.436l-.057-.02v-.057a5.143,5.143,0,0,0-.044-.6,2.747,2.747,0,0,0-.044-.3.492.492,0,0,0-.041-.125c0-.024,0,0-.02-.02a.318.318,0,0,0-.058-.024,6.071,6.071,0,0,0-1.238-.139H342v-.764a.7.7,0,0,0-.081-.227c-.034-.081-.074-.159-.115-.24a2.979,2.979,0,0,0-.277-.446.751.751,0,0,0-.173-.169.162.162,0,0,0-.179-.02,3.927,3.927,0,0,0-.477.22c-.629.338-1.244.676-1.846,1.042l-.088.054-.037-.095c-.318-.8-.636-1.593-.947-2.367-.156-.389-.308-.778-.463-1.16a.473.473,0,0,0-.372-.338.376.376,0,0,0-.44.162.392.392,0,0,0-.051.24,1.759,1.759,0,0,0,.068.281c.054.2.1.389.156.582.1.389.2.771.3,1.15q.3,1.143.585,2.232v.024q-.1,2.083-.193,3.991v-.007l-3.081,10.024-.869,2.79c-.1.315-.179.561-.233.734a2.434,2.434,0,0,1-.088.247s.017-.088.064-.254l.213-.741c.2-.653.477-1.6.832-2.8.73-2.421,1.769-5.878,3.023-10.044v.017q.088-1.9.179-3.991v.024c-.193-.727-.392-1.471-.592-2.229l-.3-1.15c-.051-.193-.1-.389-.156-.582a2.989,2.989,0,0,1-.071-.308.562.562,0,0,1,.071-.338.541.541,0,0,1,.274-.23.7.7,0,0,1,.659.149.676.676,0,0,1,.183.291l.463,1.16c.314.778.629,1.569.95,2.367l-.125-.044c.605-.358,1.214-.717,1.857-1.052a4.859,4.859,0,0,1,.5-.227.337.337,0,0,1,.169-.024.407.407,0,0,1,.162.061.97.97,0,0,1,.213.21,2.9,2.9,0,0,1,.294.473c.044.085.085.166.122.25a.872.872,0,0,1,.095.287v.676l-.085-.091a6.038,6.038,0,0,1,1.292.149.587.587,0,0,1,.085.037.22.22,0,0,1,.088.088.721.721,0,0,1,.057.172c.02.108.034.21.047.315.02.206.034.409.044.612l-.061-.081a1.061,1.061,0,0,1,.646.534,5.21,5.21,0,0,1,.162.785,1.186,1.186,0,0,1,0,.409.355.355,0,0,1-.122.21,1.694,1.694,0,0,1-.172.1l-.643.335.044-.064c-.078.707-.149,1.4-.243,2.087l-.02.132a.3.3,0,0,1-.064.145,1.741,1.741,0,0,1-.166.21c-.115.129-.23.254-.338.375-.233.243-.467.477-.7.707l.024-.041c-.744,3.138-1.434,6.053-2.053,8.661-.308,1.3-.6,2.53-.873,3.666a13.944,13.944,0,0,1-.446,1.63,9.181,9.181,0,0,1-.643,1.41,7.983,7.983,0,0,1-1.647,2.049,3.381,3.381,0,0,1-1.775.791,2.639,2.639,0,0,1-1.214-.122,2.046,2.046,0,0,1-.287-.132Z" transform="translate(-325.472 -106.264)"/>
      <path id="패스_531" data-name="패스 531" class="cls-12" d="M356.459,137.158c0,.024-.115.037-.294.044a3.4,3.4,0,0,0-.676.081,1.317,1.317,0,0,0-.575.308c-.122.115-.176.213-.2.2s0-.132.112-.287a1.124,1.124,0,0,1,.622-.392,1.877,1.877,0,0,1,.724-.034C356.351,137.1,356.459,137.134,356.459,137.158Z" transform="translate(-339.834 -115.035)"/>
      <path id="패스_532" data-name="패스 532" class="cls-12" d="M356.933,136.661c-.044-.017-.047-.122,0-.233s.115-.189.159-.172.051.122,0,.233S356.967,136.678,356.933,136.661Z" transform="translate(-341.289 -114.501)"/>
      <path id="패스_533" data-name="패스 533" class="cls-12" d="M361.211,140.955a3.133,3.133,0,0,1-1.015.139.676.676,0,0,0-.561.267c-.088.139-.057.254-.085.26s-.108-.112-.024-.314a.532.532,0,0,1,.24-.267,1.013,1.013,0,0,1,.406-.122A2.786,2.786,0,0,1,361.211,140.955Z" transform="translate(-343.003 -117.567)"/>
      <path id="패스_534" data-name="패스 534" class="cls-12" d="M363.689,144.69c.047,0,.074.25.061.558s-.064.551-.112.551-.078-.254-.064-.561S363.638,144.687,363.689,144.69Z" transform="translate(-345.704 -120.085)"/>
      <path id="패스_535" data-name="패스 535" class="cls-11" d="M368.07,167.812l.3-1.035a.284.284,0,0,1,.352-.193.281.281,0,0,1,.121.072l.4.4.243-.977a.284.284,0,0,1,.531-.054l.551,1.157Z" transform="translate(-348.682 -134.099)"/>
      <path id="패스_536" data-name="패스 536" class="cls-11" d="M370.712,171.07a4.564,4.564,0,0,1-1.194.386,4.415,4.415,0,0,1-1.238.216A9.016,9.016,0,0,1,370.712,171.07Z" transform="translate(-348.821 -137.543)"/>
      <path id="패스_537" data-name="패스 537" class="cls-11" d="M314.2,154a2.784,2.784,0,0,0-.3.4,3.406,3.406,0,0,0-.457,1.275,9.049,9.049,0,0,0-.061,2.029c.037.768.1,1.606.193,2.486a43.594,43.594,0,0,0,.714,4.471c.118.568.227,1.015.3,1.353.034.142.064.26.088.362s.027.128.027.128-.017-.041-.041-.122-.061-.223-.1-.362c-.085-.315-.2-.768-.338-1.336a40.117,40.117,0,0,1-.734-4.474c-.095-.879-.152-1.721-.186-2.489a9.052,9.052,0,0,1,.074-2.029,3.383,3.383,0,0,1,.487-1.285A1.952,1.952,0,0,1,314.2,154Z" transform="translate(-312.423 -126.246)"/>
      <path id="패스_538" data-name="패스 538" class="cls-11" d="M323.119,140.379l-.078.041-.223.108c-.193.091-.473.227-.808.413a29.677,29.677,0,0,0-2.54,1.589c-.967.676-1.823,1.292-2.448,1.738l-.741.524-.206.139a.424.424,0,0,1-.074.047.276.276,0,0,1,.068-.057l.2-.149.727-.544c.619-.457,1.471-1.092,2.438-1.755a25.73,25.73,0,0,1,2.557-1.576c.338-.179.622-.308.822-.392l.227-.095C323.1,140.386,323.1,140.375,323.119,140.379Z" transform="translate(-314.221 -117.231)"/>
      <path id="패스_539" data-name="패스 539" class="cls-11" d="M372.463,141.509a.252.252,0,0,1-.057-.044l-.152-.132a6.358,6.358,0,0,0-.592-.443,12.261,12.261,0,0,0-2.175-1.1,21.885,21.885,0,0,0-2.317-.771c-.3-.085-.548-.145-.72-.186l-.193-.051a.265.265,0,0,1-.068-.024h.071l.2.037c.172.034.419.088.724.166a18.765,18.765,0,0,1,2.333.754,11.126,11.126,0,0,1,2.175,1.123A4.364,4.364,0,0,1,372.463,141.509Z" transform="translate(-347.438 -116.16)"/>
      <path id="패스_540" data-name="패스 540" class="cls-11" d="M334.876,217.548a.476.476,0,0,1-.132-.044,2.378,2.378,0,0,1-.338-.183,1.617,1.617,0,0,1-.737-.994,1.942,1.942,0,0,1,.132-1.238,1.622,1.622,0,0,1,.2-.338c.054-.071.091-.1.095-.1a3.825,3.825,0,0,0-.247.45,2.006,2.006,0,0,0-.1,1.2,1.641,1.641,0,0,0,.676.971C334.7,217.473,334.882,217.534,334.876,217.548Z" transform="translate(-325.883 -166.385)"/>
      <path id="패스_541" data-name="패스 541" class="cls-11" d="M334.15,212.39a1.686,1.686,0,0,1,.159.426,1.564,1.564,0,0,1,.095.443,1.4,1.4,0,0,1-.162-.423A1.356,1.356,0,0,1,334.15,212.39Z" transform="translate(-326.233 -164.89)"/>
      <path id="패스_542" data-name="패스 542" class="cls-6" d="M331.219,295.368l10.315-.051-.186-35.661-.1-36.277-13.977-.179-2.513,4.735a17,17,0,0,0-1.931,6.135c-.169,1.644,1.062,6.987,1.488,8.34l3.845,12.195Z" transform="translate(-318.73 -172.044)"/>
      <path id="패스_543" data-name="패스 543" class="cls-6" d="M365.492,223.807l11.336,30.9a14.252,14.252,0,0,1-1.4,12.073l-13.162,25.7-7.4-9.259,11.011-23-9.706-15.742,1.633-20.629,4.572-.074Z" transform="translate(-339.946 -172.428)"/>
      <path id="패스_544" data-name="패스 544" class="cls-13" d="M374.55,254.47v.159c0,.1.017.267.03.467.024.416.054,1.015.095,1.789.078,1.566.186,3.815.338,6.591s.281,6.087.45,9.773c.081,1.84.169,3.771.257,5.773.064,1.015.037,2.029.047,3.044s0,2.083,0,3.145c0,8.5.027,16.192.037,21.769v8.394c0-.419,0-1.015-.02-1.8,0-1.566-.027-3.815-.047-6.595-.024-5.577-.054-13.27-.088-21.769v-3.145c0-1.035.02-2.056-.044-3.044-.085-2-.169-3.93-.247-5.769-.156-3.679-.3-6.99-.413-9.777s-.2-5.025-.264-6.591c-.027-.771-.047-1.373-.061-1.792v-.467C374.621,254.5,374.55,254.47,374.55,254.47Z" transform="translate(-352.971 -192.739)"/>
      <path id="패스_545" data-name="패스 545" class="cls-13" d="M373.78,225.66a1.218,1.218,0,0,1,.071.338c.037.216.078.531.125.923.088.781.183,1.867.237,3.067s.058,2.29.041,3.077c0,.392-.024.714-.041.933a1.142,1.142,0,0,1-.041.338,9.682,9.682,0,0,1-.044-1.272c0-.788-.037-1.87-.091-3.071s-.129-2.279-.186-3.044A11.454,11.454,0,0,1,373.78,225.66Z" transform="translate(-352.461 -173.672)"/>
      <path id="패스_546" data-name="패스 546" class="cls-13" d="M366.349,227.549c.017.024-.176.112-.23.386a.444.444,0,0,0,.132.413.477.477,0,0,0,.507.091.487.487,0,0,0,.264-.443.443.443,0,0,0-.227-.369.821.821,0,0,0-.443-.078.251.251,0,0,1,.122-.071.574.574,0,0,1,.379.037.552.552,0,0,1,.338.47.605.605,0,0,1-1.042.48.555.555,0,0,1-.139-.558.57.57,0,0,1,.216-.315C366.3,227.545,366.346,227.539,366.349,227.549Z" transform="translate(-347.303 -174.864)"/>
      <path id="패스_547" data-name="패스 547" class="cls-13" d="M340.491,225.91a1.014,1.014,0,0,1,.091.338,3.2,3.2,0,0,1,.03.92,3.763,3.763,0,0,1-.389,1.309,3.466,3.466,0,0,1-2.645,1.9,3.663,3.663,0,0,1-1.353-.051,3.2,3.2,0,0,1-.859-.321,1.065,1.065,0,0,1-.277-.189,6.13,6.13,0,0,0,1.163.389,3.554,3.554,0,0,0,4.2-2.756q.03-.143.048-.287A5.9,5.9,0,0,0,340.491,225.91Z" transform="translate(-326.855 -173.837)"/>
      <path id="패스_548" data-name="패스 548" class="cls-13" d="M384.934,228.82a1.419,1.419,0,0,1-.653-.078,3.015,3.015,0,0,1-1.329-.852,2.976,2.976,0,0,1-.72-1.407,1.35,1.35,0,0,1,0-.653c.03,0,.034.247.135.626a3.27,3.27,0,0,0,1.968,2.168C384.687,228.762,384.937,228.786,384.934,228.82Z" transform="translate(-358.028 -173.784)"/>
      <path id="패스_549" data-name="패스 549" class="cls-13" d="M393.9,331.191a2.158,2.158,0,0,1-.6.477,2.8,2.8,0,0,1-.768.338,1.844,1.844,0,0,1-1.038-.027,3.024,3.024,0,0,1-1.447-1.15,2.774,2.774,0,0,1-.4-.649,3.917,3.917,0,0,1,.494.572,3.207,3.207,0,0,0,1.4,1.059,2.164,2.164,0,0,0,1.691-.247A6.638,6.638,0,0,1,393.9,331.191Z" transform="translate(-362.964 -242.845)"/>
      <path id="패스_550" data-name="패스 550" class="cls-13" d="M390.672,333.514a8.555,8.555,0,0,1-1.065-1.353,8.812,8.812,0,0,1-.927-1.451,8.264,8.264,0,0,1,1.069,1.353A8.088,8.088,0,0,1,390.672,333.514Z" transform="translate(-362.322 -243.196)"/>
      <path id="패스_551" data-name="패스 551" class="cls-14" d="M342.562,256.164c-.047.017-.166-.176-.271-.436s-.149-.48-.1-.5.166.176.267.436S342.606,256.164,342.562,256.164Z" transform="translate(-331.541 -193.239)"/>
      <path id="패스_552" data-name="패스 552" class="cls-14" d="M362.518,259.317c-.051,0-.088-.166-.088-.372s.037-.375.088-.375.088.169.088.375S362.565,259.317,362.518,259.317Z" transform="translate(-344.949 -195.452)"/>
      <path id="패스_553" data-name="패스 553" class="cls-14" d="M354.486,269.467c-.047,0-.1-.2-.118-.463s0-.47.054-.473.1.2.122.463S354.533,269.463,354.486,269.467Z" transform="translate(-339.609 -202.044)"/>
      <path id="패스_554" data-name="패스 554" class="cls-14" d="M338.82,277.986c-.041.03-.179-.095-.362-.223s-.338-.227-.338-.274.223-.02.43.128S338.861,277.986,338.82,277.986Z" transform="translate(-328.861 -207.959)"/>
      <path id="패스_555" data-name="패스 555" class="cls-14" d="M365.79,287.683c-.041-.027,0-.173.115-.338s.22-.26.26-.233,0,.176-.115.338S365.831,287.71,365.79,287.683Z" transform="translate(-347.163 -214.338)"/>
      <path id="패스_556" data-name="패스 556" class="cls-14" d="M349.828,289.138c-.047,0-.088-.281-.088-.622s.041-.626.088-.626.088.281.088.626A1.32,1.32,0,0,1,349.828,289.138Z" transform="translate(-336.551 -214.857)"/>
      <path id="패스_557" data-name="패스 557" class="cls-14" d="M343.461,301.8c-.027.037-.2-.041-.392-.179s-.338-.281-.294-.321.206.041.4.179S343.492,301.759,343.461,301.8Z" transform="translate(-331.936 -223.724)"/>
      <path id="패스_558" data-name="패스 558" class="cls-14" d="M359.737,306.653c.02.044-.088.135-.244.206s-.3.088-.318.044.091-.135.247-.206S359.72,306.609,359.737,306.653Z" transform="translate(-342.794 -227.258)"/>
      <path id="패스_559" data-name="패스 559" class="cls-14" d="M348.763,322.526c-.041.02-.216-.24-.389-.585s-.277-.643-.233-.676.22.24.389.585A1.685,1.685,0,0,1,348.763,322.526Z" transform="translate(-335.486 -236.943)"/>
      <path id="패스_560" data-name="패스 560" class="cls-14" d="M367.646,321.463c-.044-.024.034-.25.169-.511s.288-.45.338-.426-.034.25-.172.511S367.687,321.487,367.646,321.463Z" transform="translate(-348.393 -236.455)"/>
      <path id="패스_561" data-name="패스 561" class="cls-14" d="M359.528,336.464c-.051,0-.044-.274-.1-.592s-.135-.572-.088-.6.21.216.264.568S359.575,336.474,359.528,336.464Z" transform="translate(-342.896 -246.217)"/>
      <path id="패스_562" data-name="패스 562" class="cls-14" d="M350.388,346.286c-.034.034-.2-.095-.375-.284s-.284-.369-.247-.4.2.095.375.284S350.425,346.252,350.388,346.286Z" transform="translate(-336.563 -253.046)"/>
      <path id="패스_563" data-name="패스 563" class="cls-14" d="M371.749,349.632c-.034-.034.091-.216.281-.409s.365-.318.4-.284-.091.22-.277.409S371.786,349.666,371.749,349.632Z" transform="translate(-351.113 -255.256)"/>
      <path id="패스_564" data-name="패스 564" class="cls-14" d="M360.111,362.046c-.047,0-.047-.267,0-.578s.122-.555.172-.548.047.264,0,.575S360.158,362.053,360.111,362.046Z" transform="translate(-343.391 -263.189)"/>
      <path id="패스_565" data-name="패스 565" class="cls-14" d="M351.356,368.975c-.044.024-.193-.152-.338-.392s-.22-.453-.179-.477.189.149.338.389S351.4,368.948,351.356,368.975Z" transform="translate(-337.271 -267.943)"/>
      <path id="패스_566" data-name="패스 566" class="cls-14" d="M369.446,378.775c.03.041-.142.213-.386.386s-.457.281-.487.24.145-.213.386-.386S369.419,378.738,369.446,378.775Z" transform="translate(-349.013 -275.001)"/>
      <path id="패스_567" data-name="패스 567" class="cls-14" d="M355.481,386.878c-.047-.017,0-.287.044-.626s.017-.616.068-.622.139.277.1.639S355.525,386.9,355.481,386.878Z" transform="translate(-340.338 -279.542)"/>
      <path id="패스_568" data-name="패스 568" class="cls-14" d="M360.772,403.206c-.041.03-.183-.085-.321-.257s-.216-.338-.179-.369.179.085.318.257S360.81,403.176,360.772,403.206Z" transform="translate(-343.515 -290.758)"/>
      <path id="패스_569" data-name="패스 569" class="cls-14" d="M353.583,412.623c-.041.027-.227-.172-.416-.45s-.308-.521-.271-.548.227.173.416.45S353.624,412.6,353.583,412.623Z" transform="translate(-338.635 -296.745)"/>
      <path id="패스_570" data-name="패스 570" class="cls-14" d="M373.688,400.874c-.044-.017-.041-.142,0-.277s.132-.237.179-.22.041.142,0,.281S373.735,400.894,373.688,400.874Z" transform="translate(-352.379 -289.301)"/>
      <path id="패스_571" data-name="패스 571" class="cls-14" d="M365.426,423.8c-.044-.024.041-.264.108-.565s.091-.555.142-.558.1.271.03.6S365.467,423.83,365.426,423.8Z" transform="translate(-346.924 -304.063)"/>
      <path id="패스_572" data-name="패스 572" class="cls-14" d="M370.185,270.119c-.044.02-.152-.115-.24-.3s-.125-.358-.081-.379.152.115.24.3S370.236,270.1,370.185,270.119Z" transform="translate(-349.857 -202.642)"/>
      <path id="패스_573" data-name="패스 573" class="cls-14" d="M355.156,240.305c.027.041-.21.23-.463.5s-.426.521-.47.5.071-.338.338-.615S355.122,240.261,355.156,240.305Z" transform="translate(-339.511 -183.359)"/>
      <path id="패스_574" data-name="패스 574" class="cls-14" d="M368.462,238.277c-.051,0-.128-.193-.247-.423s-.227-.419-.189-.453.22.115.338.372S368.506,238.25,368.462,238.277Z" transform="translate(-348.648 -181.439)"/>
      <path id="패스_575" data-name="패스 575" class="cls-14" d="M330.8,248.274c-.044-.02,0-.243.1-.5s.22-.457.267-.436,0,.24-.1.5S330.854,248.291,330.8,248.274Z" transform="translate(-324.003 -188.017)"/>
      <path id="패스_576" data-name="패스 576" class="cls-14" d="M330.607,263.976c-.034.037-.227-.071-.433-.243s-.338-.338-.318-.379.227.071.433.243S330.637,263.939,330.607,263.976Z" transform="translate(-323.39 -198.613)"/>
      <path id="패스_577" data-name="패스 577" class="cls-14" d="M356.8,227.119c-.044,0-.139-.108-.206-.281s-.088-.338-.044-.338.139.108.206.281S356.849,227.1,356.8,227.119Z" transform="translate(-341.045 -174.228)"/>
      <path id="패스_578" data-name="패스 578" class="cls-14" d="M381.463,234c-.047,0-.044-.213,0-.453s.132-.43.179-.419.044.216,0,.457S381.51,234.012,381.463,234Z" transform="translate(-357.523 -178.615)"/>
      <path id="패스_579" data-name="패스 579" class="cls-14" d="M387.182,245.06c-.044-.02.017-.271.139-.565s.254-.514.3-.5,0,.271-.135.565S387.229,245.077,387.182,245.06Z" transform="translate(-361.321 -185.808)"/>
      <path id="패스_580" data-name="패스 580" class="cls-14" d="M382.039,254.16c-.044.02-.206-.213-.362-.521s-.244-.582-.2-.6.2.213.358.521S382.083,254.137,382.039,254.16Z" transform="translate(-357.548 -191.79)"/>
      <path id="패스_581" data-name="패스 581" class="cls-14" d="M391.786,263.989c-.044-.017,0-.213.074-.436s.193-.392.24-.375,0,.213-.074.436S391.847,264.006,391.786,263.989Z" transform="translate(-364.366 -198.501)"/>
      <path id="패스_582" data-name="패스 582" class="cls-14" d="M383.436,273.628c-.041.027-.145-.064-.23-.2s-.125-.271-.081-.3.142.064.23.2S383.477,273.6,383.436,273.628Z" transform="translate(-358.634 -205.086)"/>
      <path id="패스_583" data-name="패스 583" class="cls-14" d="M384.137,291.527c-.034.03-.247-.135-.47-.379s-.375-.463-.338-.5.247.135.47.379S384.175,291.494,384.137,291.527Z" transform="translate(-358.777 -216.682)"/>
      <path id="패스_584" data-name="패스 584" class="cls-14" d="M394.523,280.826c-.037.03-.223-.139-.413-.382s-.311-.46-.274-.49.223.142.413.382S394.564,280.8,394.523,280.826Z" transform="translate(-365.731 -209.602)"/>
      <path id="패스_585" data-name="패스 585" class="cls-14" d="M401.426,295.236c-.044-.02.034-.274.172-.565s.284-.514.338-.494-.03.277-.169.568S401.47,295.26,401.426,295.236Z" transform="translate(-370.749 -219.017)"/>
      <path id="패스_586" data-name="패스 586" class="cls-14" d="M388.019,307.974c-.044.024-.2-.162-.416-.362s-.416-.338-.4-.389.277.041.514.26S388.059,307.95,388.019,307.974Z" transform="translate(-361.346 -227.643)"/>
      <path id="패스_587" data-name="패스 587" class="cls-14" d="M388.887,321.828c0,.047-.169.088-.375.088s-.372-.041-.372-.088.166-.088.372-.088S388.887,321.781,388.887,321.828Z" transform="translate(-361.965 -237.259)"/>
      <path id="패스_588" data-name="패스 588" class="cls-14" d="M402.5,316.548c-.044-.024.044-.237.108-.5s.091-.494.142-.5.1.244.03.538S402.534,316.575,402.5,316.548Z" transform="translate(-371.458 -233.163)"/>
      <path id="패스_589" data-name="패스 589" class="cls-14" d="M413.811,320.525c-.044.017-.169-.223-.277-.531s-.159-.572-.115-.585.172.22.281.528S413.859,320.508,413.811,320.525Z" transform="translate(-378.684 -235.716)"/>
      <path id="패스_590" data-name="패스 590" class="cls-14" d="M412.663,337.584c-.041-.024.064-.308.233-.636s.338-.575.389-.551-.061.308-.233.632S412.707,337.614,412.663,337.584Z" transform="translate(-378.189 -246.958)"/>
      <path id="패스_591" data-name="패스 591" class="cls-14" d="M400.726,347.814c-.044.017-.183-.216-.311-.524s-.193-.572-.145-.592.183.216.308.524S400.77,347.814,400.726,347.814Z" transform="translate(-369.982 -253.776)"/>
      <path id="패스_592" data-name="패스 592" class="cls-14" d="M388.206,353.738c0,.047-.142.088-.314.088s-.311-.041-.311-.088.142-.088.311-.088S388.206,353.691,388.206,353.738Z" transform="translate(-361.594 -258.378)"/>
      <path id="패스_593" data-name="패스 593" class="cls-14" d="M395.892,368.173c-.044,0-.139-.186-.21-.443s-.085-.48-.037-.49.139.186.21.443S395.94,368.146,395.892,368.173Z" transform="translate(-366.914 -267.371)"/>
      <path id="패스_594" data-name="패스 594" class="cls-14" d="M387.55,363.376c-.041-.024,0-.183.112-.355s.223-.291.264-.267,0,.186-.112.358S387.594,363.4,387.55,363.376Z" transform="translate(-361.564 -264.401)"/>
      <path id="패스_595" data-name="패스 595" class="cls-14" d="M387.07,380.232c-.047,0-.115-.227-.149-.521s-.024-.534.024-.541.115.227.149.521S387.117,380.225,387.07,380.232Z" transform="translate(-361.145 -275.267)"/>
    </g>
  </g>
</svg>
