<svg xmlns="http://www.w3.org/2000/svg" width="122.082" height="122.082" viewBox="0 0 122.082 122.082">
  <defs>
    <style>
      .cls-1, .cls-2 {
        fill: none;
        stroke: #455281;
        stroke-linecap: round;
        stroke-linejoin: round;
        stroke-width: 4px;
      }

      .cls-2 {
        stroke-dasharray: 6 3;
      }
    </style>
  </defs>
  <g id="img_mall3" transform="translate(-1423.34 -170.745)">
    <path id="패스_443" data-name="패스 443" class="cls-1" d="M1464.965,172.745l-12.923,12.923c3.209,4.061,3.955,9.153,1.451,12.787-3.092,4.488-10.027,5.139-15.9,1.659l-12.255,12.255,78.458,78.457,39.624-39.624Z"/>
    <line id="선_34" data-name="선 34" class="cls-1" y1="15.494" x2="15.494" transform="translate(1452.659 199.641)"/>
    <line id="선_35" data-name="선 35" class="cls-2" y1="38.862" x2="39.37" transform="translate(1448.003 196.169)"/>
    <line id="선_36" data-name="선 36" class="cls-1" y1="6.604" x2="28.448" transform="translate(1466.714 225.972)"/>
    <circle id="타원_40" data-name="타원 40" class="cls-1" cx="3.048" cy="3.048" r="3.048" transform="translate(1480.938 216.828)"/>
    <circle id="타원_41" data-name="타원 41" class="cls-1" cx="3.048" cy="3.048" r="3.048" transform="translate(1474.842 236.471)"/>
    <line id="선_37" data-name="선 37" class="cls-1" x2="20.828" y2="20.32" transform="translate(1498.718 236.471)"/>
    <line id="선_38" data-name="선 38" class="cls-1" x2="20.828" y2="20.32" transform="translate(1493.343 241.981)"/>
    <line id="선_39" data-name="선 39" class="cls-1" x2="12.201" y2="11.903" transform="translate(1487.752 247.711)"/>
    <line id="선_40" data-name="선 40" class="cls-1" x1="13.838" y2="14.184" transform="translate(1525.38 192.943)"/>
    <line id="선_41" data-name="선 41" class="cls-1" x2="12.723" y2="12.413" transform="translate(1525.938 193.829)"/>
    <line id="선_42" data-name="선 42" class="cls-1" x1="13.838" y2="14.184" transform="translate(1430.342 255.208)"/>
    <line id="선_43" data-name="선 43" class="cls-1" x2="12.723" y2="12.413" transform="translate(1430.899 256.094)"/>
    <line id="선_44" data-name="선 44" class="cls-1" x1="7.854" y2="8.051" transform="translate(1504.979 178.192)"/>
    <line id="선_45" data-name="선 45" class="cls-1" x2="7.222" y2="7.045" transform="translate(1505.296 178.695)"/>
    <line id="선_46" data-name="선 46" class="cls-1" x1="7.854" y2="8.051" transform="translate(1455.505 276.811)"/>
    <line id="선_47" data-name="선 47" class="cls-1" x2="7.222" y2="7.045" transform="translate(1455.822 277.313)"/>
  </g>
</svg>
