<svg xmlns="http://www.w3.org/2000/svg" viewBox="0 0 165.94 162.34"><defs><style>.\34 0ec0994-bdde-4881-9055-7bf7345ddf20{fill:#333;}.aefa28e6-4300-4e67-92b3-75de02929635{fill:#1e90ff;}</style></defs><title>Asset 1xxxhdpi</title><g id="e57fcafa-2402-455f-b54b-538359de481f" data-name="Layer 2"><g id="24d9e1a4-1536-4520-8680-2dd687787465" data-name="Layer 1"><path class="40ec0994-bdde-4881-9055-7bf7345ddf20" d="M56.1,119.9a7.94,7.94,0,0,1-3.23-.69,7.79,7.79,0,0,1-4.68-7.2V95.75a18.4,18.4,0,0,1-18-18.37v-59A18.4,18.4,0,0,1,48.56,0h99a18.4,18.4,0,0,1,18.38,18.38v59a18.4,18.4,0,0,1-18.37,18.38H85.79l-24.43,22.1A7.81,7.81,0,0,1,56.1,119.9ZM48.56,6A12.39,12.39,0,0,0,36.19,18.38v59A12.39,12.39,0,0,0,48.56,89.75h2.63a3,3,0,0,1,3,3V112a1.88,1.88,0,0,0,3.14,1.4L82.62,90.52a3,3,0,0,1,2-.77h62.93a12.39,12.39,0,0,0,12.38-12.37v-59A12.39,12.39,0,0,0,147.56,6Z"/><path class="40ec0994-bdde-4881-9055-7bf7345ddf20" d="M104.43,162.34a7.59,7.59,0,0,1-5.07-2L76.2,139.76H17.6A17.51,17.51,0,0,1,0,122.38V67.22A17.51,17.51,0,0,1,17.6,49.84H33a3,3,0,0,1,3,3V77.46A12.39,12.39,0,0,0,48.38,89.83H51a3,3,0,0,1,3,3v19.25a1.88,1.88,0,0,0,3.14,1.4L82.43,90.61a3,3,0,0,1,2-.77h41.74a3,3,0,0,1,3,3v29.55a17.5,17.5,0,0,1-17.09,17.37v15a7.48,7.48,0,0,1-4.48,6.89A7.76,7.76,0,0,1,104.43,162.34ZM17.6,55.84A11.5,11.5,0,0,0,6,67.22v55.16a11.5,11.5,0,0,0,11.6,11.38H77.34a3,3,0,0,1,2,.76l24,21.39a1.63,1.63,0,0,0,1.81.27,1.52,1.52,0,0,0,.94-1.42v-18a3,3,0,0,1,3-3h2.49a11.5,11.5,0,0,0,11.6-11.37V95.83H85.6l-24.43,22.1A7.88,7.88,0,0,1,48,112.09V95.83A18.4,18.4,0,0,1,30,77.46V55.84Z"/><path class="40ec0994-bdde-4881-9055-7bf7345ddf20" d="M99.94,68a27.75,27.75,0,1,1,27.75-27.75A27.78,27.78,0,0,1,99.94,68Zm0-49.5a21.75,21.75,0,1,0,21.75,21.75A21.77,21.77,0,0,0,99.94,18.5Z"/><circle class="aefa28e6-4300-4e67-92b3-75de02929635" cx="100.44" cy="39.75" r="9.92"/><path class="40ec0994-bdde-4881-9055-7bf7345ddf20" d="M100.44,52.67a12.92,12.92,0,1,1,12.92-12.92A12.93,12.93,0,0,1,100.44,52.67Zm0-19.83a6.92,6.92,0,1,0,6.92,6.92A6.92,6.92,0,0,0,100.44,32.83Z"/><path class="40ec0994-bdde-4881-9055-7bf7345ddf20" d="M124.67,82.33H75.21a3,3,0,0,1-3-2.9v-.12c0-.29,0-.58,0-.87a27.75,27.75,0,0,1,9.55-20.94,3,3,0,0,1,3.94,0,21.72,21.72,0,0,0,28.53,0,3,3,0,0,1,3.94,0,27.75,27.75,0,0,1,9.55,20.94c0,.29,0,.58,0,.87v.12A3,3,0,0,1,124.67,82.33Zm-46.37-6h43.29A21.74,21.74,0,0,0,116,63.75a27.72,27.72,0,0,1-32,0A21.74,21.74,0,0,0,78.29,76.33Z"/></g></g></svg>