<svg xmlns="http://www.w3.org/2000/svg" viewBox="0 0 179.31 180.14"><defs><style>.f27f7749-fd1f-47a3-92e2-3c261e16345e{fill:#333;}.\38 9a31b26-a4a3-4a29-b0dc-6bdba1ef5539{fill:#1e90ff;}</style></defs><title>Asset 3xxxhdpi</title><g id="ec4e25f8-5218-4591-af72-2307b557d641" data-name="Layer 2"><g id="1cd0fa2f-aa10-4a83-a7e3-3f0535f88651" data-name="Layer 1"><path class="f27f7749-fd1f-47a3-92e2-3c261e16345e" d="M46.73,139.66h-.37a23.28,23.28,0,0,1-23.25-23.25V103.24A23.28,23.28,0,0,1,46.36,80h.38A23.28,23.28,0,0,1,70,103.24v13.17A23.28,23.28,0,0,1,46.73,139.66ZM46.36,86a17.27,17.27,0,0,0-17.25,17.25v13.17a17.27,17.27,0,0,0,17.25,17.25h.38A17.27,17.27,0,0,0,64,116.41V103.24A17.27,17.27,0,0,0,46.73,86Z"/><path class="f27f7749-fd1f-47a3-92e2-3c261e16345e" d="M141.51,125.91H141a21,21,0,0,1-21-21V95.29a21,21,0,0,1,21-21h.56a21,21,0,0,1,21,21v9.65A21,21,0,0,1,141.51,125.91ZM141,80.32a15,15,0,0,0-15,15v9.65a15,15,0,0,0,15,15h.56a15,15,0,0,0,15-15V95.29a15,15,0,0,0-15-15Z"/><path class="f27f7749-fd1f-47a3-92e2-3c261e16345e" d="M179.31,158.82H101.15v-14.3a14.12,14.12,0,0,1,10.91-12.45,91.23,91.23,0,0,0,11.8-5,3.34,3.34,0,0,0,1.46-2.15l-.12-.36.09-.1v-6.8h6v6.64c.11,1.21,0,4.7-4,7.73l-.43.27a97.07,97.07,0,0,1-13.16,5.53l-.31.08a8,8,0,0,0-6.23,7v7.84h66.17v-9.24c-.15-.61-1.17-3.87-6.43-6.07-4.79-1.16-18.88-5.31-17.74-13.6v-4.6h6l0,5.36c-.33,1.83,6.44,5.39,13.41,7.05l.43.14c9.37,3.79,10.32,10.79,10.35,11.09l0,.36Z"/><path class="f27f7749-fd1f-47a3-92e2-3c261e16345e" d="M90.52,42.79A17.68,17.68,0,0,1,72.86,25.13V17.66a17.66,17.66,0,0,1,35.32,0v7.46A17.68,17.68,0,0,1,90.52,42.79ZM90.52,6A11.68,11.68,0,0,0,78.86,17.66v7.46a11.66,11.66,0,0,0,23.32,0V17.66A11.68,11.68,0,0,0,90.52,6Z"/><path class="f27f7749-fd1f-47a3-92e2-3c261e16345e" d="M121.71,69.23h-64V57.09A11.94,11.94,0,0,1,67,46.58a72.46,72.46,0,0,0,9.3-3.92,2.24,2.24,0,0,0,.91-1.24l0-.08V36.9h6v4c.08,1.12-.06,4.12-3.48,6.69l-.43.27a78.66,78.66,0,0,1-10.67,4.48l-.31.08a5.89,5.89,0,0,0-4.53,5.12v5.68h52V56.46c-.13-.47-.95-2.77-4.76-4.38-4-1-15.59-4.44-14.66-11.52V36.9h6l0,4.41c.24,1.18,5.05,3.73,10.33,5l.43.14c7.71,3.12,8.61,8.75,8.68,9.38l0,.36ZM77.17,41.37Z"/><path class="f27f7749-fd1f-47a3-92e2-3c261e16345e" d="M92.81,180.14H0V163.61a16.36,16.36,0,0,1,12.68-14.44,110.7,110.7,0,0,0,14.37-6.05c1.91-1.51,2-2.86,2-3.18l-.1-.35.07-.14v-8.3h6v8.12c.12,1.29.07,5.28-4.61,8.79l-.43.27A116.05,116.05,0,0,1,14.3,155L14,155a10.41,10.41,0,0,0-8,9v10.07H86.81V162.36c-.17-.74-1.39-5-8.15-7.82-4.27-1-22.29-6-20.92-15.73v-8.08h6l0,8.84c-.52,2.88,8.33,7.22,16.59,9.18l.43.14c10.94,4.42,12,12.5,12.08,12.85l0,.36Z"/><path class="f27f7749-fd1f-47a3-92e2-3c261e16345e" d="M24,144.31C2.13,123.08,4.62,86.48,4.74,84.93c3.21-36.12,23-55.92,39.1-66.18A96.65,96.65,0,0,1,78.23,5.06L79.11,11l-.44-3,.44,3A92.38,92.38,0,0,0,46.87,23.93C25.28,37.8,13.11,58.49,10.72,85.42c0,.31-2.37,35.32,17.48,54.58Z"/><path class="f27f7749-fd1f-47a3-92e2-3c261e16345e" d="M148.12,81.38c-8-42.18-41.94-47.91-43.38-48.13l.9-5.93a56.14,56.14,0,0,1,21,8.91c10,6.73,22.81,19.83,27.4,44Z"/><path class="f27f7749-fd1f-47a3-92e2-3c261e16345e" d="M98.29,178.61a63.32,63.32,0,0,1-10.35-.77L89,171.93c.33.06,33.4,5.59,48.73-17.76l5,3.29C130.86,175.57,110.58,178.61,98.29,178.61Z"/><circle class="89a31b26-a4a3-4a29-b0dc-6bdba1ef5539" cx="103.1" cy="30.28" r="6.62"/><path class="f27f7749-fd1f-47a3-92e2-3c261e16345e" d="M103.1,39.9a9.62,9.62,0,1,1,9.62-9.62A9.63,9.63,0,0,1,103.1,39.9Zm0-13.25a3.62,3.62,0,1,0,3.62,3.62A3.63,3.63,0,0,0,103.1,26.66Z"/><circle class="89a31b26-a4a3-4a29-b0dc-6bdba1ef5539" cx="28.86" cy="144.7" r="7.13"/><path class="f27f7749-fd1f-47a3-92e2-3c261e16345e" d="M28.86,154.82A10.13,10.13,0,1,1,39,144.7,10.14,10.14,0,0,1,28.86,154.82Zm0-14.25A4.13,4.13,0,1,0,33,144.7,4.13,4.13,0,0,0,28.86,140.57Z"/><circle class="89a31b26-a4a3-4a29-b0dc-6bdba1ef5539" cx="144.61" cy="155.78" r="7.63"/><path class="f27f7749-fd1f-47a3-92e2-3c261e16345e" d="M144.61,166.41a10.63,10.63,0,1,1,10.63-10.62A10.64,10.64,0,0,1,144.61,166.41Zm0-15.25a4.63,4.63,0,1,0,4.63,4.63A4.63,4.63,0,0,0,144.61,151.16Z"/></g></g></svg>