<svg xmlns="http://www.w3.org/2000/svg" viewBox="0 0 158.33 158.33"><defs><style>.d650174f-b560-472a-acb8-514e08797e08{fill:#333;}.ecf193cd-2c4e-4a41-99a6-91dc114ee297{fill:#1e90ff;}</style></defs><title>Asset 2xxxhdpi</title><g id="a88d2cfb-5317-4316-9244-b938f71de989" data-name="Layer 2"><g id="18304cf5-4d44-4009-bcc0-ae78a969c8f8" data-name="Layer 1"><path class="d650174f-b560-472a-acb8-514e08797e08" d="M54,72H18A18,18,0,0,1,0,54V18A18,18,0,0,1,18,0H54A18,18,0,0,1,72,18V54A18,18,0,0,1,54,72ZM18,6A12,12,0,0,0,6,18V54A12,12,0,0,0,18,66H54A12,12,0,0,0,66,54V18A12,12,0,0,0,54,6Z"/><path class="d650174f-b560-472a-acb8-514e08797e08" d="M54,158.33H18a18,18,0,0,1-18-18v-36a18,18,0,0,1,18-18H54a18,18,0,0,1,18,18v36A18,18,0,0,1,54,158.33Zm-36-66a12,12,0,0,0-12,12v36a12,12,0,0,0,12,12H54a12,12,0,0,0,12-12v-36a12,12,0,0,0-12-12Z"/><path class="d650174f-b560-472a-acb8-514e08797e08" d="M140.33,158.33h-36a18,18,0,0,1-18-18v-36a18,18,0,0,1,18-18h36a18,18,0,0,1,18,18v36A18,18,0,0,1,140.33,158.33Zm-36-66a12,12,0,0,0-12,12v36a12,12,0,0,0,12,12h36a12,12,0,0,0,12-12v-36a12,12,0,0,0-12-12Z"/><path class="ecf193cd-2c4e-4a41-99a6-91dc114ee297" d="M155.1,31a53.79,53.79,0,0,0-9.16-5.18,28.7,28.7,0,0,0-4.72-7.4c1.58-3.57,0-10.25,0-10.25-3.29-2.94-11.17-4.7-11.17-4.7a70.6,70.6,0,0,0-6.76,5.41,28.28,28.28,0,0,0-8.94.25C112.18,6,106.6,3.49,106.6,3.49c-4.33.83-10.5,6-10.5,6a51.34,51.34,0,0,0,.51,10.74,28.6,28.6,0,0,0-4.12,7.89c-3.67.78-7.88,3.94-7.88,3.94-1.37,4.2.21,12.11.21,12.11a63.81,63.81,0,0,0,8.42,4.31,28.68,28.68,0,0,0,4.57,7.39c-1.51,3.59,0,10.16,0,10.16C101.11,69,109,70.77,109,70.77a75,75,0,0,0,6.39-5.06,28.68,28.68,0,0,0,9.63-.18c2.38,3,7.47,5.24,7.47,5.24,4.33-.83,10.5-6,10.5-6a57.56,57.56,0,0,0-.4-10.13,28.61,28.61,0,0,0,4.24-8c3.65-.67,7.85-3.47,7.85-3.47C156.25,39,155.1,31,155.1,31ZM119.78,48.09a11,11,0,1,1,11-11A11,11,0,0,1,119.78,48.09Z"/></g></g></svg>