<svg xmlns="http://www.w3.org/2000/svg" xmlns:xlink="http://www.w3.org/1999/xlink" viewBox="0 0 222 48"><defs><style>.cls-1{fill:#252525;}.cls-2{fill:url(#linear-gradient);}.cls-3{fill:url(#linear-gradient-2);}</style><linearGradient id="linear-gradient" x1="133.49" y1="13.69" x2="177.38" y2="38.75" gradientTransform="translate(0.12 -0.54) rotate(0.28)" gradientUnits="userSpaceOnUse"><stop offset="0.18" stop-color="#1e90ff"/><stop offset="0.48" stop-color="#14a9ea"/><stop offset="1" stop-color="#00dcbf"/></linearGradient><linearGradient id="linear-gradient-2" x1="179.6" y1="13.44" x2="219.56" y2="36.25" xlink:href="#linear-gradient"/></defs><title>Asset 1xxxhdpi</title><g id="Layer_2" data-name="Layer 2"><g id="Layer_1-2" data-name="Layer 1"><path class="cls-1" d="M28.42,35.06,13.89,35,14,9.45a7.72,7.72,0,0,0-1.84-5.5,6.62,6.62,0,0,0-5.06-2A6.61,6.61,0,0,0,2,3.9,7.71,7.71,0,0,0,.14,9.38L0,37.88q0,4.29,1.9,6.29t6,2l20.51.1a6.21,6.21,0,0,0,4.35-1.46,5.3,5.3,0,0,0,1.65-4.13,5.3,5.3,0,0,0-1.61-4.14A6.22,6.22,0,0,0,28.42,35.06Z"/><path class="cls-1" d="M44.88,11.71A5.65,5.65,0,0,0,49.05,10a5.66,5.66,0,0,0,1.71-4.16,5.66,5.66,0,0,0-1.67-4.17,6,6,0,0,0-8.32,0,5.66,5.66,0,0,0-1.71,4.16A5.66,5.66,0,0,0,40.73,10,5.65,5.65,0,0,0,44.88,11.71Z"/><path class="cls-1" d="M44.87,14a6.37,6.37,0,0,0-4.53,1.55,6,6,0,0,0-1.71,4.58L38.53,41a6,6,0,0,0,1.67,4.6,6.37,6.37,0,0,0,4.52,1.59,6.38,6.38,0,0,0,4.53-1.55A6,6,0,0,0,51,41l.1-20.83a6,6,0,0,0-1.67-4.6A6.38,6.38,0,0,0,44.87,14Z"/><path class="cls-1" d="M81.24,14.18a5.16,5.16,0,0,0-4,1.31,9.9,9.9,0,0,0-2,4.28l-4.06,16h-.12L67,19.73a9.85,9.85,0,0,0-2-4.48Q63.87,14.1,61,14.09a5.94,5.94,0,0,0-4.11,1.43,4.84,4.84,0,0,0-1.65,3.8,8.44,8.44,0,0,0,.29,2.21q.3,1.12,1,3.24l.06.18,6.37,18q1,2.84,2.7,3.58a14.37,14.37,0,0,0,5.3.75,15,15,0,0,0,5.49-.7q1.69-.72,2.73-3.55l6.54-18a23.24,23.24,0,0,0,1-3.1,12.26,12.26,0,0,0,.28-2.5,4.85,4.85,0,0,0-1.61-3.81A5.94,5.94,0,0,0,81.24,14.18Z"/><path class="cls-1" d="M122,19.54a15.73,15.73,0,0,0-5.62-3.74A22.1,22.1,0,0,0,108,14.31a23.42,23.42,0,0,0-7,1,15.79,15.79,0,0,0-5.62,3,13.69,13.69,0,0,0-3.77,5.17,18.67,18.67,0,0,0-1.36,7.3,18.84,18.84,0,0,0,1.29,7.37,13.69,13.69,0,0,0,3.72,5.21,15.78,15.78,0,0,0,5.59,3.08,23.42,23.42,0,0,0,7,1,42.21,42.21,0,0,0,7.48-.54,18.39,18.39,0,0,0,5.07-1.55,7.63,7.63,0,0,0,2.82-2.22,4.48,4.48,0,0,0,.89-2.62,4.13,4.13,0,0,0-1.13-2.84,3.54,3.54,0,0,0-2.71-1.28,6.12,6.12,0,0,0-2.33.44,22.55,22.55,0,0,0-2.69,1.34,25.5,25.5,0,0,1-3.11,1.53,7.74,7.74,0,0,1-2.87.5,6.19,6.19,0,0,1-4.67-1.8,7.52,7.52,0,0,1-1.94-4.81l17.61.09a6.74,6.74,0,0,0,4.38-1.13Q126,31.43,126,28.65a12,12,0,0,0-.94-4.41A15.18,15.18,0,0,0,122,19.54Zm-19.34,7.91A5.87,5.87,0,0,1,104.48,23a6.64,6.64,0,0,1,8.2,0,5.66,5.66,0,0,1,1.61,4.51Z"/><path class="cls-2" d="M167.75,23.24l-8.93,0a4.52,4.52,0,0,0-3.44,1.25,4.87,4.87,0,0,0-1.22,3.5A4.12,4.12,0,0,0,155.38,31a4,4,0,0,0,2.86,1.22l3.38,0A6.8,6.8,0,0,1,159,36.12a8.62,8.62,0,0,1-5,1.3q-4.95,0-7-3.08t-2-9q0-6.16,2.4-9.14a7.4,7.4,0,0,1,6.11-3,6.83,6.83,0,0,1,3.49.8,12.77,12.77,0,0,1,2.76,2.37,13.1,13.1,0,0,0,2.1,1.88,4,4,0,0,0,2.29.61A6.33,6.33,0,0,0,169,17.05a6,6,0,0,0,1.8-4.19,7.08,7.08,0,0,0-.89-3.2A10.89,10.89,0,0,0,167,6.27a16.6,16.6,0,0,0-5.51-2.74,28.68,28.68,0,0,0-8.44-1.13,23.83,23.83,0,0,0-7.7,1.26,21.42,21.42,0,0,0-7.08,4,19.46,19.46,0,0,0-5.19,7.13,25.41,25.41,0,0,0-2,10.25,27.94,27.94,0,0,0,1.79,10.73,18.28,18.28,0,0,0,4.88,7.09,19.42,19.42,0,0,0,6.77,3.84,25.07,25.07,0,0,0,7.62,1.21,18.77,18.77,0,0,0,7.34-1.44,10.51,10.51,0,0,0,5.11-4h.12v1.21A4.09,4.09,0,0,0,166,46.75,4.55,4.55,0,0,0,169.32,48a4.16,4.16,0,0,0,3.75-1.61,7.26,7.26,0,0,0,1.11-4.1l.06-12.44a6.63,6.63,0,0,0-1.73-4.72A6.21,6.21,0,0,0,167.75,23.24Z"/><path class="cls-3" d="M220.24,15.48a19.9,19.9,0,0,0-4.94-7.21,21.38,21.38,0,0,0-7.19-4.35,25.49,25.49,0,0,0-16.86-.11A21.12,21.12,0,0,0,184,8.09a20,20,0,0,0-5,7.19,25.2,25.2,0,0,0-1.86,9.8,25.92,25.92,0,0,0,1.76,10,19.45,19.45,0,0,0,4.91,7.18,20.81,20.81,0,0,0,7.13,4.23A26.93,26.93,0,0,0,208,46.6a20.81,20.81,0,0,0,7.17-4.16,19.45,19.45,0,0,0,5-7.13,25.89,25.89,0,0,0,1.86-10A25.16,25.16,0,0,0,220.24,15.48ZM207.93,28.39c-2.79,2.14-9.53,6.58-12,6.35s-2.82-4.61-3-9.58c0,0,0-9.35,2.73-9.56s9.85,4.18,12.43,6.53S210.72,26.24,207.93,28.39Z"/></g></g></svg>