<svg xmlns="http://www.w3.org/2000/svg" viewBox="0 0 34 60"><defs><style>.\36 42f1311-171f-4f24-b595-8e87a4d2a23e{fill:#fff;}</style></defs><title>Asset 1xxxhdpi</title><g id="871f819c-d0ca-4a04-b30b-b37b7ed19f76" data-name="Layer 2"><g id="68014c30-dc1b-4f71-9aa2-7323524f4935" data-name="Layer 1"><path class="642f1311-171f-4f24-b595-8e87a4d2a23e" d="M31,0H3A3,3,0,0,0,0,3V57a3,3,0,0,0,3,3H31a3,3,0,0,0,3-3V3A3,3,0,0,0,31,0ZM12.71,4h8.57a.88.88,0,0,1,0,1.76H12.71a.88.88,0,0,1,0-1.76ZM5.57,4a.88.88,0,1,1-.87.88A.88.88,0,0,1,5.57,4ZM17,58a2.37,2.37,0,1,1,2.36-2.37A2.36,2.36,0,0,1,17,58Zm14.91-7.35H2.09V9.37H31.91Z"/></g></g></svg>