<svg xmlns="http://www.w3.org/2000/svg" viewBox="0 0 64 44"><defs><style>.f6c07eea-6d61-44d6-8cc0-e3b30a83d314{fill:#fff;}</style></defs><title>Asset 1xxxhdpi</title><g id="4aa7339a-548e-4f71-9141-3b7507893b1f" data-name="Layer 2"><g id="52e19d11-0e77-4c18-8fec-cdcc86eb767a" data-name="Isolation Mode"><path class="f6c07eea-6d61-44d6-8cc0-e3b30a83d314" d="M59.81,44H4.19A4.19,4.19,0,0,1,0,39.81V4.19A4.19,4.19,0,0,1,4.19,0H59.81A4.19,4.19,0,0,1,64,4.19V39.81A4.19,4.19,0,0,1,59.81,44ZM4.19,3.19a1,1,0,0,0-1,1V39.81a1,1,0,0,0,1,1H59.81a1,1,0,0,0,1-1V4.19a1,1,0,0,0-1-1Z"/><path class="f6c07eea-6d61-44d6-8cc0-e3b30a83d314" d="M19.43,20.54H10.91a3.33,3.33,0,0,1-3.33-3.32V11.63a3.33,3.33,0,0,1,3.33-3.32h8.52a3.33,3.33,0,0,1,3.33,3.32v5.58A3.33,3.33,0,0,1,19.43,20.54Zm-8.52-9a.14.14,0,0,0-.13.13v5.58a.14.14,0,0,0,.13.13h8.52a.14.14,0,0,0,.13-.13V11.63a.14.14,0,0,0-.13-.13Z"/><rect class="f6c07eea-6d61-44d6-8cc0-e3b30a83d314" x="34.33" y="11.3" width="20.76" height="1.53"/><rect class="f6c07eea-6d61-44d6-8cc0-e3b30a83d314" x="8.85" y="27.32" width="9.55" height="1.53"/><rect class="f6c07eea-6d61-44d6-8cc0-e3b30a83d314" x="8.85" y="33.65" width="20.77" height="1.53"/><rect class="f6c07eea-6d61-44d6-8cc0-e3b30a83d314" x="21.72" y="27.32" width="9.55" height="1.53"/><rect class="f6c07eea-6d61-44d6-8cc0-e3b30a83d314" x="34.33" y="27.32" width="9.55" height="1.53"/><rect class="f6c07eea-6d61-44d6-8cc0-e3b30a83d314" x="47.15" y="27.32" width="9.55" height="1.53"/></g></g></svg>