<svg xmlns="http://www.w3.org/2000/svg" viewBox="0 0 60 45"><defs><style>.\34 41f4849-ab0f-4430-b882-08841ad5c25d{fill:#fff;}</style></defs><title>Asset 1xxxhdpi</title><g id="8bccbe69-b677-4ece-b4d6-b9f7cce3120c" data-name="Layer 2"><g id="bd826b71-57fa-4fe9-b337-c7bc8449dac1" data-name="Isolation Mode"><path class="441f4849-ab0f-4430-b882-08841ad5c25d" d="M55.75,45H4.25A4.27,4.27,0,0,1,0,40.72V4.28A4.27,4.27,0,0,1,4.25,0H55.75A4.27,4.27,0,0,1,60,4.28V40.72A4.27,4.27,0,0,1,55.75,45ZM4.25,3.26a1,1,0,0,0-1,1V40.72a1,1,0,0,0,1,1H55.75a1,1,0,0,0,1-1V4.28a1,1,0,0,0-1-1Z"/><rect class="441f4849-ab0f-4430-b882-08841ad5c25d" x="3.24" y="12.37" width="55.15" height="4.76"/><rect class="441f4849-ab0f-4430-b882-08841ad5c25d" x="7.28" y="24.06" width="12.94" height="1.36"/></g></g></svg>