<svg xmlns="http://www.w3.org/2000/svg" viewBox="0 0 68 45"><defs><style>.\38 69922fb-47fd-43ae-9f48-bcefa95b7516{fill:#fff;}</style></defs><title>Asset 1xxxhdpi</title><g id="71784d1e-db59-4628-a907-92e13a12a7d1" data-name="Layer 2"><g id="595b3cdc-a117-40c4-8856-ac0bdd2249d1" data-name="Isolation Mode"><rect class="869922fb-47fd-43ae-9f48-bcefa95b7516" x="1.67" y="11.28" width="50.1" height="3.26"/><path class="869922fb-47fd-43ae-9f48-bcefa95b7516" d="M44.64,27.29,35.2,17.63a1.69,1.69,0,0,0-2.34-.06L22.32,27.22l2.27,2.38,7.75-7.09V45h3.33V22.82l6.57,6.72Z"/><path class="869922fb-47fd-43ae-9f48-bcefa95b7516" d="M63.63,0H4.37A4.33,4.33,0,0,0,0,4.28v34.4A4.33,4.33,0,0,0,4.37,43h25V39.7h-25a1,1,0,0,1-1-1V4.28a1,1,0,0,1,1-1H63.63a1,1,0,0,1,1,1v34.4a1,1,0,0,1-1,1H38.44V43H63.63A4.33,4.33,0,0,0,68,38.68V4.28A4.33,4.33,0,0,0,63.63,0Z"/></g></g></svg>