<?xml version="1.0" encoding="utf-8"?>
<!-- Generator: Adobe Illustrator 21.0.2, SVG Export Plug-In . SVG Version: 6.00 Build 0)  -->
<svg version="1.1" id="Layer_1" xmlns="http://www.w3.org/2000/svg" xmlns:xlink="http://www.w3.org/1999/xlink" x="0px" y="0px"
	 viewBox="0 0 360 360" style="enable-background:new 0 0 360 360;" xml:space="preserve">
<style type="text/css">
	.st0{fill:#FFFFFF;}
	.st1{fill:#333333;}
	.st2{fill:#1B9FFF;}
</style>
<title>Asset 4xxxhdpi</title>
<circle class="st0" cx="180" cy="180" r="180"/>
<path class="st1" d="M252,246h-60.3c-3.1-6.5-10.8-9.3-17.3-6.2c-2.7,1.3-4.9,3.5-6.2,6.2H108c-3,0-5.5,2.5-5.5,5.5s2.5,5.5,5.5,5.5
	h60.3c3.1,6.5,10.8,9.3,17.3,6.2c2.7-1.3,4.9-3.5,6.2-6.2H252c3,0,5.5-2.5,5.5-5.5S255,246,252,246z"/>
<path class="st1" d="M115.5,224.2c3,2.9,7.3,4.5,12.7,4.5h103.6c11-0.1,17.4-6.4,17.4-17.3c0-27,0-54.7,0-82.4
	c0-10.9-6.4-17.2-17.4-17.2h-52.1c-0.3-4.7-1.9-8.5-4.6-11.3c-3.2-3.3-8-5-13.7-5h-1c-3.6,0.1-7.5,0.2-12.2,0.2c-3,0-6.1,0-9.1,0
	s-6.1,0-9.1,0h-1.7c-10.8,0-17.3,6.4-17.3,17c-0.1,31.5-0.1,63.8,0,98.8C110.9,216.9,112.4,221.2,115.5,224.2z M213.1,226.4
	L213.1,226.4z M181.2,114.1h50.6c-17,0-34,0-51,0H181.2z M210.9,119.6L210.9,119.6z M179.8,121.8h1.2c4.9,0,9.8,0,14.6,0
	s9.7,0,14.6,0c7.8,0,14.2-0.1,20.1-0.2h0.5c3.6,0,6.1,0.7,7.3,2.2c0.9,1.1,1.4,2.7,1.3,5l-1.8-0.2c-3-0.4-6.1-0.7-9.1-0.7
	c-6.8-0.1-14-0.1-23.2-0.1h-25.4V121.8z M230,130.3c-0.5,0-1.1,0-1.6,0c-4.1,0-8.2-0.1-12.2-0.1c4.1,0,8.2,0,12.2,0.1
	C228.9,130.2,229.5,130.2,230,130.3z M211.6,130.1L211.6,130.1z M177.4,119.5L177.4,119.5v10.6l0,0V119.5z M204.6,135.4L204.6,135.4
	z M161.4,97.9L161.4,97.9z M128.1,98L128.1,98c-0.6,0-1.2,0-1.7,0.1C127,98,127.6,98,128.1,98z M120.8,113.5c0-6,1.8-7.8,7.8-7.8
	h33.4c5.7,0,7.5,1.8,7.5,7.5c0,3.1,0,6.2,0,9.2c0,2.8,0,5.6,0,8.4c0,2.1,0.1,4.1,1.5,5.5s3.4,1.5,5.4,1.5h54.7c6.3,0,7.9,1.6,7.9,8
	c0,21.7,0,43.4,0,65.1c0,6.3-1.6,8-7.9,8H128.7c-6.3,0-7.9-1.6-7.9-7.9C120.8,178.4,120.8,145.9,120.8,113.5L120.8,113.5z"/>
<rect x="173.7" y="224.7" class="st1" width="12.7" height="16.7"/>
<path class="st2" d="M180,268.7c-9.5,0-17.2-7.7-17.2-17.2c0-9.5,7.7-17.2,17.2-17.2c9.5,0,17.2,7.7,17.2,17.2
	C197.2,261,189.5,268.7,180,268.7z"/>
<path class="st1" d="M180,240.2c6.2,0,11.2,5,11.2,11.2s-5,11.2-11.2,11.2c-6.2,0-11.2-5-11.2-11.2S173.8,240.2,180,240.2L180,240.2
	 M180,228.2c-12.8,0-23.2,10.4-23.2,23.2s10.4,23.2,23.2,23.2s23.2-10.4,23.2-23.2C203.2,238.6,192.8,228.2,180,228.2z"/>
</svg>
