<?xml version="1.0" encoding="utf-8"?>
<!-- Generator: Adobe Illustrator 21.0.2, SVG Export Plug-In . SVG Version: 6.00 Build 0)  -->
<svg version="1.1" id="Layer_1" xmlns="http://www.w3.org/2000/svg" xmlns:xlink="http://www.w3.org/1999/xlink" x="0px" y="0px"
	 viewBox="0 0 360 360" style="enable-background:new 0 0 360 360;" xml:space="preserve">
<style type="text/css">
	.st0{fill:#FFFFFF;}
	.st1{fill:#1B9FFF;}
	.st2{fill:#333333;}
</style>
<title>Asset 6xxxhdpi</title>
<circle class="st0" cx="180" cy="180" r="180"/>
<path class="st1" d="M158.3,111.8c-0.1-1-0.6-2-1.4-2.7c-1.6-1.4-3.6-1.1-5.2,0.7c-2.3,2.6-4.6,5.1-6.6,7.4l-0.1,0.1l-8.9,10
	l-2.8,3.2l-0.6-0.6l-2.9-3.1c-1.7-1.8-3.7-1.9-5.3-0.3c-1.5,1.3-1.7,3.6-0.3,5.2c0.1,0.1,0.1,0.1,0.2,0.2c2.2,2.4,4.2,4.5,6.2,6.6
	c0.7,0.8,1.7,1.3,2.8,1.3h0.1c1.1,0,2.1-0.5,2.8-1.4c6.8-7.6,13.9-15.6,21-23.7C158,114,158.4,112.9,158.3,111.8z"/>
<path class="st2" d="M150.6,161.9h-34.9c-1.5,0-2.7,1.2-2.7,2.6c0,0,0,0,0,0v34.9c0,1.5,1.2,2.7,2.7,2.7h34.9c1.5,0,2.7-1.2,2.7-2.7
	v-34.9C153.2,163.1,152,161.9,150.6,161.9z M120.2,194.9v-25.8h25.8V195L120.2,194.9z"/>
<path class="st2" d="M150.6,211.5h-34.9c-1.5,0-2.7,1.2-2.7,2.7V249c0,1.5,1.2,2.7,2.7,2.7h34.9c1.5,0,2.7-1.2,2.7-2.7v-34.9
	C153.2,212.6,152.1,211.5,150.6,211.5z M120.2,244.5v-25.8h25.8v25.8L120.2,244.5z"/>
<path class="st2" d="M153.4,131.4v-6.3l-7.2,7.2c0,4.4,0,8.8,0,13.1c-6.7,0-13.5,0-20.1,0h-5.7v-25.9h5.6c3.7,0,7.4,0,11.2,0
	l7.2-7.2h-4.6c-7.9,0-16.2,0-24.3,0c-0.7,0-1.3,0.2-1.8,0.7c-0.5,0.5-0.7,1.2-0.7,1.9c0,10.4,0,22.7,0,35.1
	c-0.2,1.3,0.8,2.5,2.1,2.7c0.2,0,0.4,0,0.6,0l0,0c12.3,0,23.8,0,35,0l0,0c0.7,0.1,1.5-0.2,2-0.7c0.5-0.5,0.7-1.3,0.7-2
	C153.4,143.8,153.4,137.5,153.4,131.4z"/>
<path class="st2" d="M170.8,125.4h69c4,0,7.2,3.2,7.2,7.2l0,0c0,4-3.2,7.2-7.2,7.2h-69c-4,0-7.2-3.2-7.2-7.2l0,0
	C163.6,128.6,166.8,125.4,170.8,125.4z"/>
<path class="st2" d="M170.8,175.1h69c4,0,7.2,3.2,7.2,7.2l0,0c0,4-3.2,7.2-7.2,7.2h-69c-4,0-7.2-3.2-7.2-7.2l0,0
	C163.6,178.3,166.8,175.1,170.8,175.1z"/>
<path class="st2" d="M170.8,224.7h69c4,0,7.2,3.2,7.2,7.2l0,0c0,4-3.2,7.2-7.2,7.2h-69c-4,0-7.2-3.2-7.2-7.2l0,0
	C163.6,228,166.8,224.7,170.8,224.7z"/>
</svg>
