<?xml version="1.0" encoding="utf-8"?>
<!-- Generator: Adobe Illustrator 21.0.2, SVG Export Plug-In . SVG Version: 6.00 Build 0)  -->
<svg version="1.1" id="Layer_1" xmlns="http://www.w3.org/2000/svg" xmlns:xlink="http://www.w3.org/1999/xlink" x="0px" y="0px"
	 viewBox="0 0 360 360" style="enable-background:new 0 0 360 360;" xml:space="preserve">
<style type="text/css">
	.st0{fill:#FFFFFF;}
	.st1{fill:#333333;}
	.st2{fill:#1BA0FF;}
</style>
<title>Asset 3xxxhdpi</title>
<g id="_x31_1576b9f-dd05-4421-81c2-c843ba7df63e">
	<g id="b9a6175c-e018-4d7c-bf12-ad40090c7e95">
		<circle class="st0" cx="180" cy="180" r="180"/>
		<path class="st1" d="M239.9,128.4c0-2.2-0.7-4.4-2.1-6.1c-6.4-6.4-12.9-12.5-18.5-17.5c-1.4-1.2-3.2-1.9-5-2
			c-21.1-0.1-42.9-0.1-66.7-0.1c-7.9,0-12.8,5-12.8,13c0,13.8,0,27.6,0,41.4v16.2c0,5.5,0,11,0,16.5c0.1,13.3,0.1,27-0.2,40.5
			c-0.2,3.7,1.1,7.3,3.7,9.9c2.6,2.6,6.2,4,9.9,3.9h0.1c17.5-0.1,35.3-0.1,52.5-0.1h25.6c8.6,0,13.5-5,13.5-13.6
			c0-6.4,0-12.9,0-19.3v-23C240,168.6,240,148.3,239.9,128.4z M231.2,168.4c0,4,0,8,0,12v13.8c0,12,0,23.9,0,35.9
			c0,4.4-1,5.4-5.4,5.4c-26.4,0-52.2,0-76.9,0c-4.5,0-5.5-1.1-5.5-5.6c0-37.6,0-75.2,0-112.9c0-4.8,0.8-5.5,5.4-5.5h15.5
			c15.4,0,31.4,0,47.1-0.1c1.7-0.1,3.3,0.6,4.5,1.9c4.3,4.2,8.7,8.4,13.2,12.5c1.5,1.2,2.3,3,2.2,4.9
			C231.2,143.3,231.2,156,231.2,168.4L231.2,168.4z"/>
		<path class="st1" d="M201.2,248.6c-0.7-0.1-1.4-0.1-2.1-0.1h-0.7h-19.6l-45.3-0.1c-3.4,0-4.5-1-4.5-4.4l-0.1-9.6
			c-0.1-9.9-0.1-20.1-0.1-30.1c0-15.6,0-31.3,0-46.9c0-9,0-18.1,0-27.1c0-2.9-0.5-6.9-4.4-6.9c-1-0.1-2,0.3-2.8,1
			c-1.1,1.1-1.6,2.9-1.6,5.8c0,13.9,0,27.9,0,41.8v16.1h0.2v14.7c0,13.5,0,27.1,0,40.6c0,8.9,5,13.8,13.9,13.8h22.3l27.2,0h6.5h10.8
			c2.9,0,4.7-1.7,4.7-4.4C205.6,250.6,204,249,201.2,248.6z"/>
		<path class="st1" d="M223.6,200.6c-0.9-0.5-1.9-0.6-2.9-0.5c-0.3,0-0.5,0-0.7,0c-5.2,0-10.4,0-15.6,0h-10.7c-4.9,0-9.9,0-14.8,0
			c-5.1,0-5.7,3-5.8,4.3c0,2.7,2,4.4,5.6,4.5h8.8c10.8,0,21.6,0,32.4,0h1.4c0.9,0.1,1.8-0.1,2.6-0.6c1.1-0.7,2.7-2.4,2.6-3.9
			S224.8,201.5,223.6,200.6z"/>
		<path class="st2" d="M164.8,200.2c-2.9-0.1-5.9-0.1-8.7,0h-3c-3.1,0-4.9,1.8-4.9,4.8c-0.1,3.8-0.1,7.8,0,12c0.1,3,1.9,4.8,4.9,4.8
			c1.4,0,2.7,0,4.1,0h5.2c0.7,0,1.4,0,2.1,0c3.7-0.1,5.3-1.7,5.4-5.3s0.1-7.4,0-11.1C169.8,201.9,168.3,200.3,164.8,200.2z
			 M160.8,209.2v3.7h-3.7v-3.7H160.8z"/>
		<path class="st2" d="M153,163.6h7.7c1.3,0,2.7,0,4,0h0.3c1.3,0.1,2.5-0.4,3.5-1.2c1-1,1.5-2.3,1.5-3.7c0.1-3.9,0.1-8,0-12
			c0.1-2.5-1.9-4.7-4.4-4.8c-0.2,0-0.4,0-0.6,0h-3.3c-2.8,0-5.8,0-8.7,0c-2.4-0.2-4.5,1.6-4.6,4c0,0.2,0,0.3,0,0.5
			c-0.1,4.4-0.1,8.7,0,12.9C148.3,162,150.1,163.6,153,163.6z M157.2,154.7V151h3.8v3.7L157.2,154.7z"/>
		<path class="st2" d="M153.3,192.8L153.3,192.8c4.6,0,8.1,0,11.4,0h0.1c3.1,0,4.9-1.7,5.1-4.6c0.2-4.1,0.2-8.4,0-12.6
			c0-2.4-1.8-4.4-4.2-4.4c-0.1,0-0.3,0-0.4,0h-11.8c-3.6,0.1-5.1,1.6-5.3,5s-0.1,7,0,11.8C148.2,191.1,150,192.8,153.3,192.8z
			 M157.1,183.9v-3.7h3.9v3.7H157.1z"/>
		<path class="st1" d="M220.9,171.1c-5.2,0-10.5,0-15.7,0H178c-1.4-0.1-2.8,0.4-3.8,1.3c-0.8,0.8-1.2,2-1.1,3.1
			c0.1,1.6,0.8,4.3,5.4,4.3h21.9h20.4c5,0,5.6-3.1,5.6-4.4c0.1-1.1-0.3-2.1-1.1-2.9C224.5,171.6,223,171.1,220.9,171.1z"/>
		<path class="st1" d="M221,142.1c-8.1-0.1-16.4-0.1-24.4-0.1c-3.6,0-7.3,0-10.9,0c-2.5,0-5.1,0-7.6,0c-1.5,0-3,0.6-4,1.8
			c-0.7,1-1,2.3-0.6,3.5c0.8,3,3.3,3.4,5.4,3.4h33.4c3,0,6,0,9,0c2,0.1,4-0.8,5.1-2.5c0.6-1.2,0.5-2.6-0.2-3.6
			C224.8,143,223,142.1,221,142.1z"/>
		<path class="st1" d="M212.5,213.1c-0.7,0-1.3,0-2,0h-15.3h-0.9h-4c-4,0-8.2,0-12.3,0c-2.9,0-4.8,1.7-4.8,4.4s1.8,4.3,4.8,4.4h17.7
			h16.8c2.9,0,4.7-1.7,4.7-4.4S215.5,213.3,212.5,213.1z"/>
		<path class="st1" d="M178.2,163.6h0.1c4,0,8.1,0,12.1,0h9.6c4,0,8.1,0,12.1,0c1.4,0.1,2.8-0.3,3.9-1.3c0.8-0.8,1.2-1.9,1.1-3.1
			c0-2.7-1.9-4.4-5-4.4h-10.4c-7.7,0-15.7,0-23.5,0c-1.6-0.1-3.1,0.5-4.3,1.6c-0.7,0.8-1.1,1.9-0.9,3
			C173.4,162.3,175.1,163.6,178.2,163.6z"/>
		<path class="st1" d="M174,191.2c1.2,1.2,2.9,1.7,4.6,1.6c3.9,0,7.7,0,11.6,0h14.7h7.1c3.3,0,5.4-1.7,5.4-4.4
			c0-1.1-0.4-2.1-1.1-2.9c-1.2-1-2.7-1.6-4.3-1.5h-13.7c-6.5,0-13,0-19.6,0c-1.3,0-5.1,0-5.5,4.1C172.9,189.3,173.3,190.4,174,191.2
			z"/>
	</g>
</g>
</svg>
