<?xml version="1.0" encoding="utf-8"?>
<!-- Generator: Adobe Illustrator 21.0.2, SVG Export Plug-In . SVG Version: 6.00 Build 0)  -->
<svg version="1.1" id="Layer_1" xmlns="http://www.w3.org/2000/svg" xmlns:xlink="http://www.w3.org/1999/xlink" x="0px" y="0px"
	 viewBox="0 0 360 360" style="enable-background:new 0 0 360 360;" xml:space="preserve">
<style type="text/css">
	.st0{fill:#FFFFFF;}
	.st1{fill:#333333;}
	.st2{fill:#1B9FFF;}
</style>
<title>Asset 9xxxhdpi</title>
<circle class="st0" cx="180" cy="180" r="180"/>
<path class="st1" d="M227.5,168.9c-0.1-0.5-0.5-0.9-1-0.9l-1.3-0.1c-0.8-0.1-1.6-0.1-2.4-0.1h-22c-20.8,0-42.3,0-63.4-0.1h-0.1
	c-4,0-5,1.8-5.5,5c-1.9,13.6-3.8,27.4-5.8,40.8c-0.8,5.5-1.6,11-2.4,16.5c-0.7,4.6-1.3,9.2-2,14l-1,7c-0.1,0.5,0.3,1.1,0.8,1.1
	c0.1,0,0.1,0,0.2,0h30.3l0.4,3.4c0,0.5,0.5,0.9,1,0.9h7.8c0.6,0,1-0.4,1-1c0-0.7,0-1.3,0-2c0-1.3,0-2.5,0-3.7
	c0.1-7.2,4.6-12.7,11.4-14.1c2.2-0.4,4.5-0.5,6.8-0.4h1.5c9.5,0,15.5,5.9,15.5,15.4c0,5.5,0.4,5.9,5.4,6.1h0.8h0.3
	c3.4,0,3.6-2.4,3.7-3.9c0-0.3,0-0.7,0.1-1h30.5c0.6,0,1-0.4,1-1c0-0.1,0-0.1,0-0.2L227.5,168.9z M175.1,204.7c1.3-1.3,3.1-2,4.9-2
	h0.1c1.9,0,3.7,0.8,5,2.1c2.8,2.8,2.8,7.3,0,10.1c-1.3,1.3-3.1,2.1-5,2.1H180c-3.9,0-7-3.1-7-7c0-0.1,0-0.1,0-0.2
	C173,207.9,173.8,206.1,175.1,204.7L175.1,204.7z M188.8,224.6c2.3-1.9,4.4-4,6.3-6.4c2.6-3.5,3.1-8.1,1.5-13.3
	c-2.3-7.6-9.5-12.7-17.5-12.3c-7.8,0.5-14.3,6.1-16,13.8c-1.6,8.2,1.7,14.5,9.9,19.2c-8.8,1.4-15.2,6.5-19.1,15
	c-0.2,0.5-0.6,0.9-1,1.3c-5.5,0.1-11,0.1-16.8,0.1h-3.7l0.6-4.6c0.6-4.1,1.1-8.1,1.7-12c0.6-4.2,1.2-8.4,1.8-12.6
	c1.6-10.8,3.2-22,4.7-33.1c0.2-1.6,0.4-1.8,1.9-1.8l0,0c23.1,0,47.3,0.1,73.9,0c1.4,0,1.7,0.2,1.9,1.5c1.9,13.2,3.8,26.6,5.6,39.6
	c1,7,2,14.1,3,21.1c0,0.6,0,1.1,0,1.7v0.2H224c-5.8,0-11.3,0-16.9-0.1c-0.4-0.2-0.8-0.4-1-0.8c-7.3-11.4-7.9-12.1-18.7-15.4
	L188.8,224.6z"/>
<path class="st1" d="M274.4,208.2c-0.3-7.2-3.8-12.8-10.4-16.4c-1.2-0.6-2.4-1.2-3.7-1.6c7.8-5.4,10.6-11.9,8.5-19.7
	c-2-7.3-8.6-12.4-16.1-12.7c-7.6-0.3-14.4,4.5-16.9,11.6c-1.7,5-1.3,9.5,0.9,13c1.6,2.4,3.5,4.6,5.6,6.6l1.3,1.3
	c-5.6,1.9-5.9,2.8-5,8.9c0.1,0.9,0.3,1.8,0.5,2.7c0.1,0.4,0.2,0.8,0.2,1.3l0.3,1.7l1.3-1.1c5.8-4.7,14.4-5.9,19.1-2.7
	c3.9,2.7,5.4,8,3.8,13.9h-23l1.3,9.8h32.2v-1c0-1.6,0-3.3,0-4.9C274.5,215.3,274.5,211.8,274.4,208.2z M247.3,180.2
	c-1.4-1.3-2.2-3.2-2.2-5.1c-0.2-3.7,2.6-6.9,6.3-7.2c0.2,0,0.4,0,0.6,0h0.1c3.9-0.1,7.1,3,7.2,6.9c0,3.9-3.2,7.1-7.1,7.3
	C250.4,182.2,248.7,181.5,247.3,180.2L247.3,180.2z"/>
<path class="st1" d="M117.6,190.8l-1.5-0.6c8-5.7,10.7-12.1,8.5-19.9c-2.5-9.2-12-14.5-21.2-12c-5.4,1.5-9.7,5.5-11.6,10.7
	c-1.8,4.9-1.6,9.4,0.7,13c1.6,2.4,3.5,4.7,5.6,6.8l1.3,1.4c-4.2,1.4-7.8,4.1-10.2,7.8c-3.9,5.9-3.7,12.2-3.4,18.3
	c0.1,2.5,0.1,4.9,0,7.4l-0.1,1.1H118l1.3-10H95.9v-0.5c-0.3-5.9-0.6-11,4.8-13.5c7.2-3.3,13.4-2.3,18.3,3l1.4,1.5l0.3-2.1
	c0.2-1.6,0.5-2.9,0.7-4C122.5,193.2,122.5,192.6,117.6,190.8z M115,174.8c0.1,3.9-2.9,7.2-6.8,7.3c0,0-0.1,0-0.1,0
	c-3.9,0-7.1-3.1-7.3-7c0-1.9,0.7-3.7,2-5c1.3-1.4,3.1-2.2,5.1-2.2h0.1c1.8,0,3.6,0.6,5,1.9C114.3,171.2,115,173,115,174.8z"/>
<path class="st1" d="M156.8,160.2l0.2,0.8h8.6l0.2-0.8c0.3-1.2,0.4-2.4,0.6-3.6c0.3-2.4,0.9-4.8,1.7-7.1c1.8-4,5.9-4.6,8.3-4.6h1.7
	c3.2,0,6.1-0.1,8.8,1.9c4.1,2.9,4,7.2,4,11.8c0,0.5,0,1,0,1.5v1h9.6l0.1-0.9c1.8-11.8-2.1-18.8-13.8-24.6c7.3-4.9,10.3-11.4,8.7-19
	c-1.6-7.3-7.7-12.6-15.5-13.5c-7.2-0.6-14,3.4-16.9,10c-3.8,9.2-1.3,16.7,7.3,22.5C157.6,140.4,155,151.6,156.8,160.2z M171.6,123.1
	c0-3.9,3.1-7.1,7.1-7.2l0,0c3.9,0,7.1,3.2,7.1,7.1c0,3.9-3.2,7.1-7.1,7.1l0,0c-3.8,0.1-7-3-7.1-6.8
	C171.6,123.3,171.6,123.2,171.6,123.1z"/>
<circle class="st2" cx="179.1" cy="121.6" r="8.8"/>
<circle class="st2" cx="107.8" cy="175.2" r="8.8"/>
<circle class="st2" cx="252.4" cy="175.2" r="8.8"/>
<circle class="st2" cx="180.4" cy="209.8" r="8.8"/>
</svg>
