<?xml version="1.0" encoding="utf-8"?>
<!-- Generator: Adobe Illustrator 21.0.2, SVG Export Plug-In . SVG Version: 6.00 Build 0)  -->
<svg version="1.1" id="Layer_1" xmlns="http://www.w3.org/2000/svg" xmlns:xlink="http://www.w3.org/1999/xlink" x="0px" y="0px"
	 viewBox="0 0 360 360" style="enable-background:new 0 0 360 360;" xml:space="preserve">
<style type="text/css">
	.st0{fill:#FFFFFF;}
	.st1{fill:#1B9FFF;}
	.st2{fill:#333333;}
</style>
<title>Asset 5xxxhdpi</title>
<circle class="st0" cx="180" cy="180" r="180"/>
<path class="st1" d="M122.1,107.5c0,0-17,1.1-15.4,20.2v40.9c0,0,14.3,12.7,19.6,11.7v12.2l3.7,5.3h5.8l22.3-21.7H189l9.6-7.4V116
	l-14.9-8.5L122.1,107.5z"/>
<path class="st2" d="M156.3,183c-4.4,4.4-8.3,8.4-12.2,12.3c-1.9,1.9-3.8,3.8-5.8,5.4c-2.4,2.1-5.8,2.6-8.7,1.3
	c-3.3-1.1-5.5-4.3-5.4-7.8c-0.1-3.9,0-7.8,0-11.7c-1-0.2-1.7-0.4-2.5-0.5c-10.7-1.3-17.5-7.9-17.8-18.6c-0.4-14.3-0.4-28.6,0.1-43
	c0.3-10.2,8.5-17.6,18.6-17.6c20.8-0.1,41.6-0.1,62.3,0c10.7,0.1,18.5,8.3,18.6,19.3c0.1,10.5,0,21,0,31.6c0,3.4,0,3.4,3.6,3.5
	c10.7,0,21.4-0.1,32.1,0.2c8.6,0.2,17,8.3,17.1,16.9c0.3,15,0.3,30,0,45.1c-0.1,8.8-8.7,16.8-17.6,17c-2.3,0.1-2.9,0.8-2.8,2.9
	c0.1,3,0,6,0,9c0,3.6-1.5,6.3-4.8,7.9s-6.6,1.3-9.1-1.1c-5.4-5-10.7-10.1-15.7-15.4c-2-2.3-5-3.6-8.1-3.3c-7.3,0.2-14.7,0.1-22,0.1
	c-11.4,0-19.7-8.3-19.7-19.8c0-10.3,0-20.5,0-30.8C156.5,185.2,156.4,184.5,156.3,183z M153.9,110.3c-10.3,0-20.5,0-30.8,0
	c-6.9,0-11.9,4.5-11.9,11.4c-0.2,13.8-0.2,27.6,0,41.4c0.1,6.5,4.3,10.8,10.8,11.5c1.8,0.2,3.5,0.1,5.3,0.2c3.2,0.1,4.3,1.1,4.3,4.4
	c0,4.3-0.1,8.7,0.1,13c0.2,1,0.5,2.1,1,3c0.9-0.4,1.8-0.9,2.6-1.5c5.4-5.3,10.8-10.7,16.1-16.1c1.7-1.9,4.1-2.9,6.5-2.8
	c8.4,0.1,16.8,0.1,25.2,0s13.1-4.9,13.1-13.2c0-12.9,0-25.8,0-38.7c0-7.7-4.9-12.5-12.6-12.5L153.9,110.3z M164.1,182.3
	c-0.1,1-0.1,1.7-0.1,2.4c0,10.9,0,21.8,0,32.6c0,7,4.9,11.8,11.9,11.8c8.8,0,17.5,0.1,26.3,0c2.3-0.1,4.5,0.9,6.1,2.6
	c5.5,5.6,11.2,11.1,16.8,16.6c0.8,0.6,1.7,1.1,2.6,1.4c0.5-0.9,0.8-1.9,0.9-2.9c0.1-4.4,0-8.8,0.1-13.3c0-3.2,0.9-4.1,4-4.4
	c1.2-0.1,2.5-0.1,3.7,0c7.2,0.9,12.9-5.9,12.7-12.4c-0.4-13.4-0.1-26.9-0.1-40.3c0-6.1-4-11.2-10.2-11.4
	c-11.2-0.4-22.4-0.3-33.7-0.3c-0.9,0.2-1.6,0.8-1.9,1.6c-1.6,9.2-9.6,16.2-20.8,16C176.5,182.2,170.5,182.3,164.1,182.3L164.1,182.3
	z"/>
<path class="st0" d="M152.7,120.7c5.3,0.2,9.6,2.1,12.2,7.2c2,3.8,1.1,8.5-2.1,11.4c-0.9,0.8-1.9,1.6-2.9,2.3
	c-2.4,1.5-4.2,3.9-5.1,6.6c-0.3,1-1.8,2.4-2.4,2.3c-1.2-0.4-2.1-1.3-2.6-2.5c-1.1-3.4-0.3-7.1,2.2-9.6c0.7-0.7,1.4-1.4,2.2-1.9
	c1.8-1.4,3.8-2.6,2.5-5.4c-0.9-1.8-3.6-2.6-6.4-1.6c-0.9,0.4-1.7,0.8-2.6,1.4c-2.7,1.6-4.3,1.5-5.6-0.3c-1.5-1.9-1.2-4.7,0.6-6.2
	C145.5,121.7,148.9,120.7,152.7,120.7z"/>
<path class="st0" d="M158,158.6c0,2.6-2.1,4.8-4.7,4.9c0,0-0.1,0-0.1,0c-2.6,0-4.7-2-4.8-4.6c0-0.1,0-0.2,0-0.3
	c-0.1-2.5,1.9-4.6,4.4-4.7c0.1,0,0.2,0,0.3,0c2.6-0.1,4.8,1.8,4.9,4.4C158,158.3,158,158.5,158,158.6z"/>
<path class="st2" d="M229.4,192.5c3-0.1,5.5,2.3,5.6,5.3c0.1,3-2.3,5.5-5.3,5.6s-5.5-2.3-5.6-5.3c0-0.1,0-0.1,0-0.2
	C224.1,195,226.4,192.6,229.4,192.5z"/>
<path class="st2" d="M183.7,192.5c2.9,0.1,5.3,2.5,5.3,5.5c-0.1,3-2.5,5.3-5.4,5.3c-2.9,0-5.3-2.4-5.3-5.3c0,0,0-0.1,0-0.1
	C178.3,194.9,180.7,192.5,183.7,192.5z"/>
<path class="st2" d="M211.9,198c0.1,3-2.2,5.4-5.2,5.5c-3,0.1-5.4-2.2-5.5-5.2c0-0.1,0-0.3,0-0.4c0.1-3,2.5-5.3,5.4-5.4
	C209.6,192.6,211.9,195,211.9,198z"/>
</svg>
