<?xml version="1.0" encoding="utf-8"?>
<!-- Generator: Adobe Illustrator 21.0.2, SVG Export Plug-In . SVG Version: 6.00 Build 0)  -->
<svg version="1.1" id="Layer_1" xmlns="http://www.w3.org/2000/svg" xmlns:xlink="http://www.w3.org/1999/xlink" x="0px" y="0px"
	 viewBox="0 0 360 360" style="enable-background:new 0 0 360 360;" xml:space="preserve">
<style type="text/css">
	.st0{fill:#FFFFFF;}
	.st1{fill:#333333;}
	.st2{fill:#1B9FFF;}
</style>
<title>Asset 1xxxhdpi</title>
<circle class="st0" cx="180" cy="180" r="180"/>
<path class="st1" d="M166,185.2c6-6.6,11.4-12.4,16.6-18.4c1.6-1.9,4.1-2.9,6.6-2.5c14.1,1.4,24.7,8,31.5,20.6
	c0.8,1.6,1.9,1.9,3.6,1.8c14.4-0.8,27.9,7.3,33.9,20.5c6.1,13.3,4,28.3-6.2,39c-9.5,9.9-21.4,13.5-34.6,10.2s-21.7-12.2-25.4-25.4
	c-1.2-4.4-1.1-4.4-5.6-4.4h-72.7c-5.8,0-7-1.1-7-6.9c0-5.4-0.2-10.8,0.2-16.1c1.2-17.3,9.2-30,25.5-36.6c3.9-1.6,8.5-2,12.8-2.4
	c1.4-0.1,3.4,1,4.5,2.2c5,5.1,9.7,10.5,14.5,15.8C164.7,183.1,165.2,184,166,185.2z M212.4,189.5c-2.7-8.2-15.1-16.7-23-15.8
	c-0.9,0.2-1.8,0.7-2.4,1.5c-5.3,5.8-10.5,11.6-15.8,17.4c-4.1,4.4-5.9,4.4-9.9,0.1c-4.8-5.3-9.8-10.4-14.3-16
	c-2.7-3.4-5.6-3.6-9.1-2.4c-0.9,0.3-1.9,0.6-2.8,1c-18.7,8-21.3,25.5-19.2,42.4c24.3,0,48.6,0,72.9,0c1.7,0,2.1-0.8,2.5-2.2
	c0.7-3,1.7-5.9,2.9-8.7C197.9,198.9,204.5,192.8,212.4,189.5L212.4,189.5z M199.6,221.9c-0.5,14.4,11.8,27.2,27.4,26.7
	c13.9-0.5,25.6-12.2,25.4-26.3c-0.1-15.2-11.6-26.7-26.6-26.6S199.5,207.3,199.6,221.9L199.6,221.9z"/>
<path class="st1" d="M165.9,164.4c-17.7-0.3-30.9-14.3-30.6-32.4c0.3-16.2,14.7-29.8,31.3-29.6c17.1,0.3,30.9,14.4,30.7,31.5
	C197,150.9,182.7,164.8,165.9,164.4z M144.2,133.4c-0.1,12.2,9.8,22.2,22,22.3c11.9,0,22.2-10.2,22.2-22c0-12.2-9.9-22.2-22.2-22.2
	C154.1,111.5,144.1,121.4,144.2,133.4z"/>
<path class="st2" d="M226.4,194.6c-15,0-27.1,12.2-27.1,27.1s12.2,27.1,27.1,27.1s27.1-12.2,27.1-27.1l0,0
	C253.5,206.8,241.3,194.6,226.4,194.6z M240.1,219.8c-5.2,5.2-10.4,10.4-15.6,15.6c-3,2.9-4.9,3-7.9,0.1c-3.3-3.2-6.5-6.4-9.7-9.7
	c-2.3-2.3-2.4-4.9-0.6-6.8s4.5-1.7,6.8,0.6s4.6,4.9,7.3,7.7l16.4-16.7c0.9-0.9,1.8-1.9,2.8-2.7c2.1-1.7,4.4-1.7,6.1,0.1
	c1.7,1.7,1.7,4.4,0.1,6.1c0,0,0,0-0.1,0.1C244,216.1,242,217.9,240.1,219.8L240.1,219.8z"/>
</svg>
