<?xml version="1.0" encoding="utf-8"?>
<!-- Generator: Adobe Illustrator 21.0.2, SVG Export Plug-In . SVG Version: 6.00 Build 0)  -->
<svg version="1.1" id="Layer_1" xmlns="http://www.w3.org/2000/svg" xmlns:xlink="http://www.w3.org/1999/xlink" x="0px" y="0px"
	 viewBox="0 0 360 360" style="enable-background:new 0 0 360 360;" xml:space="preserve">
<style type="text/css">
	.st0{fill:#FFFFFF;}
	.st1{fill:#333333;}
	.st2{fill:#1B9FFF;}
</style>
<title>Asset 2xxxhdpi</title>
<circle class="st0" cx="180" cy="180" r="180"/>
<path class="st1" d="M120.4,233.5c0,0.8,0,1.5,0,2.3c0.3,12.5,8.8,20.9,21.1,20.9c25.2,0.1,55.1,0.1,84.9-0.1c3.4,0,6.8-0.8,9.9-2.2
	c7.5-3.7,11.2-10.2,11.2-19.8c0-17.6,0-35.6,0-52.9c0-15,0-29.9,0-44.9c0.1-2.3-0.2-4.6-0.7-6.8c-2.5-9.3-9.8-14.8-19.8-15.2h-0.1
	c-2.7-0.1-4.3-0.2-4.9,0.3s-1,1.9-1.7,4.6c-1.1,4.7-3.9,8.9-8,11.6c-5.2,3.4-12,3.4-16.4,0s-5.8-8.3-4.2-14.6
	c0.1-0.6,0.3-1.2,0.4-1.8h-19.6l-0.5,1.6c-0.6,1.9-1.1,3.8-1.8,5.8c-1.9,5.7-6.7,10-12.6,11.2c-4.2,1.1-8.8,0-12-3
	c-3.1-3-4.6-7.4-3.7-11.7c0.2-1.2,0.5-2.4,0.7-3.7l0.1-0.3h-4c-12,0.1-21.8,7.4-24.9,18.5c-5.9,21.2-11.7,42.8-17.3,63.8l-3.3,12.4
	c-1.4,4.6-0.8,9.6,1.8,13.7c3.2,5,8,7.5,14.7,7.5h10.7v1.4C120.4,232.6,120.4,233,120.4,233.5z M231.4,167.8l1.9-7
	c0.2-0.9,0.6-1.8,1.2-2.5l2.3-2.9l0.2,3.7c0,0.2,0,0.4,0,0.6c0,0.4,0.1,0.9,0.1,1.3c0,25.3,0.1,50.6,0.1,75.9c0,4.7-3.3,8.6-7.9,9.4
	c-1.3,0.2-2.7,0.3-4,0.3h-82.2c-4.7,0-7.9-1.1-9.9-3.4s-2.8-6-2.1-11.2l0.1-1.2H193c14.4,0,23.6-7.1,27.4-21.2
	S227.8,181.7,231.4,167.8L231.4,167.8z M111.9,220.6h-1.1h-0.9c-3-0.1-4.8-0.9-5.9-2.4s-1.2-3.6-0.5-6.5l4.3-16.2
	c3.9-14.5,7.8-29.5,11.7-44.2c0.7-2.6,2-3.7,4.7-3.7l0,0c26.4,0.1,53.3,0.1,79.3,0.1h23l-0.4,1.7l-0.3,1.2c-0.2,0.8-0.3,1.4-0.5,2.1
	l-2.3,8.5c-4.1,15.4-8.2,30.8-12.4,46.3c-2.5,9.2-7.8,13.3-17.3,13.3L111.9,220.6L111.9,220.6z"/>
<path class="st1" d="M203.9,126.3c-3.9,0-6.3-2.7-5.5-6.6c0.7-3.5,1.8-7,3.1-10.4c0.8-1.7,2-3.1,3.5-4.2c2.4-1.8,5.2-2.6,8.1-0.8
	c2.2,1.4,2.7,3.8,1.7,7.6c-0.6,2.4-1.2,4.9-1.9,7.3C211.8,123.2,208.1,126.2,203.9,126.3z"/>
<path class="st1" d="M155.7,126.3c-4.6,0-7-2.7-6.3-6.4c0.7-3.3,1.6-6.7,2.6-10c1-3.3,3.7-5.8,7.1-6.4c4.2-1,7.6,1.9,6.8,6.1
	c-0.6,3.7-1.6,7.2-2.8,10.7C162.1,123.7,159.1,126,155.7,126.3z"/>
<path class="st2" d="M158.1,184.3c6.4-5,12.4-9.9,18.6-14.6c2.4-2.1,6-1.9,8.1,0.4c0,0,0.1,0.1,0.1,0.1c2.3,2.2,2.6,5.8,0.8,8.4
	c-0.6,0.7-1.3,1.4-2,1.9c-7.3,5.8-14.6,11.5-21.9,17.3c-4.4,3.4-7.5,3-10.9-1.4c-2.1-2.8-4.3-5.6-6.3-8.5c-2.4-3.4-1.8-7.2,1.4-9.6
	c2.9-2.1,6.5-1.4,9.1,1.8C156.1,181.4,157,182.8,158.1,184.3z"/>
</svg>
