<?xml version="1.0" encoding="utf-8"?>
<!-- Generator: Adobe Illustrator 21.0.2, SVG Export Plug-In . SVG Version: 6.00 Build 0)  -->
<svg version="1.1" id="Layer_1" xmlns="http://www.w3.org/2000/svg" xmlns:xlink="http://www.w3.org/1999/xlink" x="0px" y="0px"
	 viewBox="0 0 360 360" style="enable-background:new 0 0 360 360;" xml:space="preserve">
<style type="text/css">
	.st0{fill:#FFFFFF;}
	.st1{fill:#333333;}
	.st2{fill:#1B9FFF;}
</style>
<title>Asset 7xxxhdpi</title>
<circle class="st0" cx="180" cy="180" r="180"/>
<path class="st1" d="M121.5,189.2c0-16,0-32.1,0-48.1c0-7.8,3.3-12.4,10.3-14.4c1.6-0.4,3.3-0.6,4.9-0.5c1.9,0.1,2.6-0.6,2.6-2.6
	c-0.3-3.5,0.7-7,2.8-9.9c2.8-3.7,7.1-5.8,11.7-5.6c15.5,0,31,0,46.4,0c2.7,0,5.3,1.1,7.1,3.1c9.3,9.4,18.7,18.8,28.1,28.2
	c2,1.9,3.1,4.6,3.1,7.4c0,24.1,0.1,48.3,0,72.4c-0.1,9.4-5.4,14.6-14.9,14.8c-2,0.1-3,0.3-3,2.7c-0.2,10-5.4,15-15.6,15.1
	c-17.4,0.1-34.8,0-52.2,0c-6.3,0-12.5,0.1-18.8-0.2c-6.8-0.4-12.1-5.9-12.2-12.7c-0.2-15.8-0.1-31.7-0.1-47.5
	C121.5,190.7,121.5,189.9,121.5,189.2z M149.4,171.1c0,15.8,0,31.5,0,47.3c0,4.3,1.3,5.6,5.6,5.6h67.7c4,0,5.4-1.3,5.4-5.2
	c0-22.1,0-44.2,0.1-66.3c0-2.4-0.9-3-3.1-2.9c-5.9,0.1-11.8,0.1-17.7,0c-6.6-0.1-10.3-3.6-10.4-10.2c-0.1-5.9-0.1-11.8,0-17.7
	c0.1-2.4-0.6-3.2-3.1-3.2c-12.9,0.1-25.8,0-38.7,0.1c-4.7,0-5.9,1.2-5.9,5.9C149.4,139.9,149.4,155.5,149.4,171.1L149.4,171.1z
	 M131.6,188.8c0,15.8,0,31.7,0,47.5c0,4.2,1.1,5.3,5.2,5.3h68.6c0.7,0,1.5,0,2.2-0.1c2.1-0.5,3.1-2.6,2.9-5.6
	c-0.2-2.6-2.1-1.8-3.5-1.8c-6.9-0.1-13.8,0-20.7,0c-11.3,0-22.7-0.1-34-0.2c-4.5,0-7.8-2.3-10.4-5.8c-2.3-3-2.5-6.4-2.5-10
	c0-23.2,0-46.4,0-69.7c0-3.3-0.1-6.6,0-10c0.1-1.8-0.7-2.4-2.4-2.4c-3.9,0-5.2,1.3-5.2,5.4C131.6,157.3,131.6,173.1,131.6,188.8z
	 M220.1,139.4l-12.8-12.5c0,3.7,0,7.5,0.1,11.3c0,0.4,1,1.1,1.5,1.2C212.5,139.5,216.1,139.4,220.1,139.4z"/>
<path class="st2" d="M182.5,180.1c-6.9-6.7-4.8-14.7-0.8-18.4c4.8-4.7,12.5-4.6,17.2,0.3c4.1,4,5.5,12-1.1,18.2c1,0.6,2.1,1,3,1.6
	c5.7,3.5,9.3,9.6,9.7,16.3c0.1,1.5,0.1,2.9,0.1,4.4c-0.1,3.3-1.5,4.8-4.9,4.8c-5.4,0.1-10.7,0-16,0c-4.9,0-9.8,0-14.7,0
	c-3.8,0-5.1-1.5-5.3-5.2c-0.3-8.3,2.2-15.3,9.4-20.1C180.1,181.3,181.2,180.8,182.5,180.1z"/>
</svg>
