<svg xmlns="http://www.w3.org/2000/svg" viewBox="0 0 39 39"><defs><style>.cls-1{fill:#1e90ff;}</style></defs><title>Asset 6xxxhdpi</title><g id="Layer_2" data-name="Layer 2"><g id="Layer_1-2" data-name="Layer 1"><path class="cls-1" d="M8.91,39C7.15,38.61,6.37,37.28,6,35.45c-.57-2.59-1.27-5.14-1.89-7.71a1.4,1.4,0,0,0-1-1.16A4.73,4.73,0,0,1,0,21.94c0-2.07,0-4.13,0-6.2,0-3,1.54-5,4.29-5.25,2.1-.21,4.22-.21,6.43-.32,0,.26.05.55.05.84q0,7.52,0,15c0,.48.2,1.14-.7.91.58,2.3,1.12,4.44,1.67,6.58C12.58,36.72,12,38,9.28,39Z"/><path class="cls-1" d="M12.46,27c0-.32,0-.59,0-.85,0-5.15,0-10.29,0-15.44,0-.7.15-1,.82-1.1A39.13,39.13,0,0,0,29.67,2.21c.83-.64,1.6-1.36,2.45-2a1.15,1.15,0,0,1,1-.18c.2.09.33.62.33.95q0,17.62,0,35.24c0,.37-.24,1-.45,1.05a1.61,1.61,0,0,1-1.13-.41c-2.41-1.86-4.7-3.9-7.2-5.59a26.78,26.78,0,0,0-11.17-4.06C13.14,27.17,12.82,27.1,12.46,27Z"/><path class="cls-1" d="M35.13,24.91q0-6.24,0-12.46c1.66.18,3.64,2.87,3.84,5.19C39.25,21,37.62,24.16,35.13,24.91Z"/></g></g></svg>