<svg xmlns="http://www.w3.org/2000/svg" viewBox="0 0 18 30"><defs><style>.cls-1{fill:#1e90ff;}</style></defs><title>Asset 7xxxhdpi</title><g id="Layer_2" data-name="Layer 2"><g id="Layer_1-2" data-name="Layer 1"><path class="cls-1" d="M18,26.94c-.35.9-.55,1.05-1.28,1a.87.87,0,0,1-.9-.73,3.66,3.66,0,0,1,0-.75q0-9,0-18a5.93,5.93,0,0,0-2.7-5.23,7.22,7.22,0,0,0-9,.69A5.45,5.45,0,0,0,2.28,7.94c0,5.46,0,10.91,0,16.37,0,2,2,3.63,4.22,3.72a4.49,4.49,0,0,0,4.66-3.19,2.26,2.26,0,0,0,.06-.59q0-7.67,0-15.34A2.09,2.09,0,0,0,9,6.95a2.09,2.09,0,0,0-2.24,2c0,4.16,0,8.32,0,12.48a3.41,3.41,0,0,1-.11.91c-.13.48-.55.69-1.16.64a.91.91,0,0,1-.89-.8,1.47,1.47,0,0,1,0-.27c0-4.36,0-8.72,0-13.07A4.18,4.18,0,0,1,8.43,5.07c2.77-.22,4.53,1.37,4.92,3.15a3.5,3.5,0,0,1,.08.75c0,5.13,0,10.26,0,15.4,0,3.19-3.25,5.73-6.82,5.63S.39,27.54.12,24.59A2.71,2.71,0,0,0,0,24.13V7.81A3.37,3.37,0,0,0,.14,7.3,7.25,7.25,0,0,1,2.22,2.81,9.14,9.14,0,0,1,10.79.19c3.56.66,5.93,2.66,6.85,5.88.18.64.25,1.3.36,2Z"/></g></g></svg>