<svg xmlns="http://www.w3.org/2000/svg" viewBox="0 0 32.22 28.27"><defs><style>.cls-1{fill:#999;}</style></defs><title>Asset 9xxxhdpi</title><g id="Layer_2" data-name="Layer 2"><g id="Layer_1-2" data-name="Layer 1"><path class="cls-1" d="M30.77,24.27H1.45A1.45,1.45,0,0,1,0,22.81V1.45A1.45,1.45,0,0,1,1.45,0H30.77a1.45,1.45,0,0,1,1.45,1.45V22.81A1.45,1.45,0,0,1,30.77,24.27ZM1.45,1A.45.45,0,0,0,1,1.45V22.81a.45.45,0,0,0,.45.45H30.77a.45.45,0,0,0,.45-.45V1.45A.45.45,0,0,0,30.77,1Z"/><rect class="cls-1" x="7.69" y="27.27" width="16.68" height="1"/><rect class="cls-1" x="15.53" y="23.71" width="1" height="4.06"/><path class="cls-1" d="M16.24,13.79c-1.16,0-1.35-.25-1.17-1.28a3,3,0,0,1,1.26-2,4.74,4.74,0,0,0,.93-.83,1.13,1.13,0,0,0-.2-1.58,1.68,1.68,0,0,0-2.63.71,1.42,1.42,0,0,1-2,.66.9.9,0,0,1-.3-.67,3.69,3.69,0,0,1,3.41-3.28A3.69,3.69,0,0,1,19.6,8a3.53,3.53,0,0,1-1.47,3.9,1.94,1.94,0,0,0-1,1.36C17.07,13.84,16.54,13.8,16.24,13.79Z"/><path class="cls-1" d="M16.11,17.21a1.32,1.32,0,0,1-1.33-1.34,1.34,1.34,0,0,1,1.33-1.3,1.32,1.32,0,0,1,1.33,1.35A1.3,1.3,0,0,1,16.11,17.21Z"/></g></g></svg>