<svg xmlns="http://www.w3.org/2000/svg" viewBox="0 0 41.91 24.64"><defs><style>.cls-1{fill:#999;}</style></defs><title>Asset 5xxxhdpi</title><g id="Layer_2" data-name="Layer 2"><g id="Layer_1-2" data-name="Layer 1"><path class="cls-1" d="M20.88,10.47A5.23,5.23,0,1,1,26.1,5.23,5.24,5.24,0,0,1,20.88,10.47Zm0-9.47A4.23,4.23,0,1,0,25.1,5.23,4.24,4.24,0,0,0,20.88,1Z"/><path class="cls-1" d="M7.26,13.78a4.22,4.22,0,1,1,4.21-4.22A4.22,4.22,0,0,1,7.26,13.78Zm0-7.43a3.22,3.22,0,1,0,3.21,3.22A3.22,3.22,0,0,0,7.26,6.35Z"/><path class="cls-1" d="M35.21,13.78a4.22,4.22,0,1,1,4.21-4.22A4.22,4.22,0,0,1,35.21,13.78Zm0-7.43a3.22,3.22,0,1,0,3.21,3.22A3.22,3.22,0,0,0,35.21,6.35Z"/><path class="cls-1" d="M29.47,23.76a.5.5,0,0,1-.5-.5V20.14a7,7,0,0,0-.18-1.63c-1.27-5.27-6.88-5.44-7.52-5.45H21a7.86,7.86,0,0,0-6.23,2.21,7.16,7.16,0,0,0-2,5v3a.5.5,0,0,1-1,0v-3a8.15,8.15,0,0,1,2.26-5.71,8.77,8.77,0,0,1,7-2.51h.19c.72,0,7,.2,8.49,6.21A7.92,7.92,0,0,1,30,20.14v3.12A.5.5,0,0,1,29.47,23.76Z"/><path class="cls-1" d="M.5,24.64a.5.5,0,0,1-.5-.5V21.63a7.1,7.1,0,0,1,1.85-4.86,7.07,7.07,0,0,1,5.73-2.15h.18A9.54,9.54,0,0,1,13.24,17a.5.5,0,0,1-.69.72A8.66,8.66,0,0,0,7.7,15.62H7.55a6.13,6.13,0,0,0-5,1.83A6.1,6.1,0,0,0,1,21.63v2.51A.5.5,0,0,1,.5,24.64Z"/><path class="cls-1" d="M41.41,24.64a.5.5,0,0,1-.5-.5V21.63a5.89,5.89,0,0,0-6.55-6l-.18-.5,0,.5a8.66,8.66,0,0,0-4.85,2.09.5.5,0,0,1-.69-.72,9.54,9.54,0,0,1,5.48-2.37h.13a6.89,6.89,0,0,1,7.64,7v2.51A.5.5,0,0,1,41.41,24.64Z"/></g></g></svg>