<svg xmlns="http://www.w3.org/2000/svg" viewBox="0 0 33.73 27.69"><defs><style>.cls-1{fill:#999;}</style></defs><title>Asset 7xxxhdpi</title><g id="Layer_2" data-name="Layer 2"><g id="Layer_1-2" data-name="Layer 1"><rect class="cls-1" x="0.5" y="7.2" width="25.9" height="1"/><rect class="cls-1" x="4.61" width="1" height="3.97"/><rect class="cls-1" x="21.18" width="1" height="3.97"/><path class="cls-1" d="M26.31,27.69a7.41,7.41,0,1,1,7.41-7.41A7.42,7.42,0,0,1,26.31,27.69Zm0-13.83a6.41,6.41,0,1,0,6.41,6.41A6.42,6.42,0,0,0,26.31,13.86Z"/><path class="cls-1" d="M20.15,22.14H0V1.54H26.9V13.87h-.51A6.41,6.41,0,0,0,20,21.54ZM1,21.14H19a7.41,7.41,0,0,1,6.95-8.27V2.54H1Z"/><polygon class="cls-1" points="26.32 16.56 27.52 19 30.22 19.39 28.27 21.3 28.73 23.99 26.32 22.72 23.9 23.99 24.36 21.3 22.41 19.39 25.11 19 26.32 16.56"/></g></g></svg>