<svg xmlns="http://www.w3.org/2000/svg" viewBox="0 0 156.64 155.32"><defs><style>.cls-1{fill:#fff;}</style></defs><g id="레이어_2" data-name="레이어 2"><g id="레이어_1-2" data-name="레이어 1"><g id="Layer_2" data-name="Layer 2"><g id="Layer_1-2" data-name="Layer 1-2"><path class="cls-1" d="M109,155.32H8.24A8.24,8.24,0,0,1,0,147.08V8.24A8.24,8.24,0,0,1,8.24,0H109a8.24,8.24,0,0,1,8.24,8.24V147.08A8.24,8.24,0,0,1,109,155.32ZM8.24,5.49A2.75,2.75,0,0,0,5.49,8.24V147.08a2.75,2.75,0,0,0,2.75,2.75H109a2.75,2.75,0,0,0,2.75-2.75V8.24A2.75,2.75,0,0,0,109,5.49Z"/><path class="cls-1" d="M48.07,52H26.7a4.38,4.38,0,0,1-4.39-4.39h0V26.15a4.38,4.38,0,0,1,4.39-4.39H48.13a4.38,4.38,0,0,1,4.39,4.39h0V47.58A4.4,4.4,0,0,1,48.13,52ZM27.75,46.48H47v-19H27.8Z"/><path class="cls-1" d="M48.07,132.52H26.7a4.39,4.39,0,0,1-4.39-4.4V106.7a4.39,4.39,0,0,1,4.39-4.4H48.13a4.39,4.39,0,0,1,4.39,4.4v21.42a4.39,4.39,0,0,1-4.39,4.4ZM27.75,127H47V107.8H27.8Z"/><path class="cls-1" d="M46.54,90.1a2.73,2.73,0,0,1-2-.87L25.16,68.79a2.76,2.76,0,0,1,4-3.79h0L48.51,85.38a2.74,2.74,0,0,1-2,4.61Z"/><path class="cls-1" d="M26.65,89.55a2.74,2.74,0,0,1-1.87-4.72L45.16,65.49a2.76,2.76,0,0,1,3.79,4L28.51,88.79A2.75,2.75,0,0,1,26.65,89.55Z"/><path class="cls-1" d="M95.93,40.66H63.62a2.75,2.75,0,0,1,0-5.5H95.93a2.75,2.75,0,0,1,0,5.5Z"/><path class="cls-1" d="M96.2,80.43H63.84a2.75,2.75,0,0,1,0-5.49H96.15a2.75,2.75,0,0,1,0,5.49Z"/><path class="cls-1" d="M96.2,120.16H63.84a2.75,2.75,0,0,1,0-5.5H96.15a2.75,2.75,0,0,1,0,5.5Z"/><path class="cls-1" d="M142.85,145.92a4.76,4.76,0,0,1-3.68-1.75h0l-10.44-12.8V9.18a5.49,5.49,0,0,1,5.49-5.5h16.92a5.5,5.5,0,0,1,5.5,5.5V131.37L147.24,144a4.75,4.75,0,0,1-3.73,1.92Zm-8.79-16.53,8.79,10.6,7.74-10.44V9.18H134.11Z"/><rect class="cls-1" x="131.04" y="22.69" width="22.47" height="5.49"/></g></g></g></g></svg>