<svg xmlns="http://www.w3.org/2000/svg" viewBox="0 0 51.59 45.44"><defs><style>.cls-1{fill:#fff;}</style></defs><title>Asset 15xxxhdpi</title><g id="Layer_2" data-name="Layer 2"><g id="Layer_1-2" data-name="Layer 1"><path class="cls-1" d="M49.14,39.21H2.45A2.46,2.46,0,0,1,0,36.76V2.45A2.46,2.46,0,0,1,2.45,0H49.14a2.46,2.46,0,0,1,2.45,2.45v34.3A2.46,2.46,0,0,1,49.14,39.21ZM3,36.21H48.59V3H3Z"/><rect class="cls-1" x="12.69" y="42.44" width="25.96" height="3"/><rect class="cls-1" x="24.17" y="37.62" width="3" height="6.32"/><path class="cls-1" d="M26,22.18c-1.8,0-2.1-.38-1.82-2a4.73,4.73,0,0,1,2-3.15,7.37,7.37,0,0,0,1.44-1.29,1.76,1.76,0,0,0-.31-2.47,2.62,2.62,0,0,0-4.09,1.1,2.21,2.21,0,0,1-3.07,1,1.39,1.39,0,0,1-.47-1,5.74,5.74,0,0,1,5.3-5.1,5.75,5.75,0,0,1,6.28,4,5.49,5.49,0,0,1-2.29,6.06,3,3,0,0,0-1.54,2.12C27.28,22.26,26.47,22.19,26,22.18Z"/><path class="cls-1" d="M25.8,27.51a2.06,2.06,0,0,1-2.08-2.09,2.09,2.09,0,0,1,2.06-2,2.06,2.06,0,0,1,2.06,2.1A2,2,0,0,1,25.8,27.51Z"/></g></g></svg>