<svg xmlns="http://www.w3.org/2000/svg" viewBox="0 0 64.88 49.51"><defs><style>.cls-1{fill:#fff;}</style></defs><title>Asset 11xxxhdpi</title><g id="Layer_2" data-name="Layer 2"><g id="Layer_1-2" data-name="Layer 1"><path class="cls-1" d="M27.58,49.51h-.38A3.77,3.77,0,0,1,24,47.13l-.14-.4,3.61-16.81L49.67.82c.85-1.11,2.6-1.1,4.08,0l9.6,7.32a4.2,4.2,0,0,1,1.28,1.55,2.27,2.27,0,0,1-.17,2.38L41.31,42.44ZM27,46.33l.08.06,12.25-6.31L61.73,10.74a1.68,1.68,0,0,0-.2-.18l-9.6-7.32-.22-.14L30.26,31.21Z"/><path class="cls-1" d="M27.89,42.22H3.13A3.14,3.14,0,0,1,0,39.08v-34A3.18,3.18,0,0,1,3.18,1.95H36.39A3.09,3.09,0,0,1,39.48,5v14.1L30.26,31.21ZM3.18,4.95A.18.18,0,0,0,3,5.13v34a.13.13,0,0,0,.13.13H25.47l2-9.29,9-11.81V5a.09.09,0,0,0-.09-.09Z"/><rect class="cls-1" x="51.78" y="3.42" width="3" height="16.01" transform="translate(11.87 46.85) rotate(-52.65)"/><path class="cls-1" d="M17.38,23.57l7.34-7.26A12.27,12.27,0,0,1,26.17,15a2.21,2.21,0,0,1,3,.13,2.35,2.35,0,0,1,.5,3,4.56,4.56,0,0,1-.88,1.13q-4.65,4.65-9.32,9.29c-1.56,1.54-2.75,1.54-4.29,0S12,25.4,10.45,23.8c-1.21-1.24-1.28-2.68-.24-3.73s2.52-1,3.73.23,2.17,2.16,3.26,3.24C17.22,23.57,17.28,23.56,17.38,23.57Z"/></g></g></svg>