<svg xmlns="http://www.w3.org/2000/svg" viewBox="0 0 48.94 61.37"><defs><style>.cls-1{fill:#fff;}</style></defs><title>Asset 13xxxhdpi</title><g id="Layer_2" data-name="Layer 2"><g id="Layer_1-2" data-name="Layer 1"><path class="cls-1" d="M36.61,12.25H11.79V0H36.61Zm-21.81-3H33.61V3H14.79Z"/><rect class="cls-1" x="9.62" y="20.98" width="21.55" height="3"/><rect class="cls-1" x="9.63" y="28.8" width="29.68" height="3"/><rect class="cls-1" x="9.63" y="36.63" width="29.68" height="3"/><rect class="cls-1" x="9.63" y="44.45" width="29.68" height="3"/><path class="cls-1" d="M46.06,61.37H2.88A2.85,2.85,0,0,1,0,58.55V7.44a2.83,2.83,0,0,1,2.85-2.8H14.79V9.27H33.6V4.64H46.09a2.83,2.83,0,0,1,2.85,2.8V58.55A2.85,2.85,0,0,1,46.06,61.37ZM3,58.37H45.94V7.64H36.6v4.63H11.79V7.64H3Z"/></g></g></svg>