<svg xmlns="http://www.w3.org/2000/svg" viewBox="0 0 45.7 61.7"><defs><style>.cls-1{fill:#fff;}</style></defs><title>Asset 10xxxhdpi</title><g id="Layer_2" data-name="Layer 2"><g id="Layer_1-2" data-name="Layer 1"><path class="cls-1" d="M42,61.7H3.74A3.73,3.73,0,0,1,0,58V3.7A3.73,3.73,0,0,1,3.74,0H26.63a3.75,3.75,0,0,1,2.54,1l15.32,14a3.69,3.69,0,0,1,1.21,2.72V58A3.73,3.73,0,0,1,42,61.7ZM3.74,3A.72.72,0,0,0,3,3.7V58a.72.72,0,0,0,.74.7H42a.72.72,0,0,0,.74-.7V17.66a.69.69,0,0,0-.23-.5L27.15,3.2a.76.76,0,0,0-.51-.2Z"/><rect class="cls-1" x="22.85" y="27.7" width="12.5" height="3"/><rect class="cls-1" x="22.85" y="42.85" width="12.5" height="3"/><path class="cls-1" d="M11.07,45c-.87-.78-1.6-1.39-2.27-2.05-1-1-1.1-2-.27-2.88s1.95-.79,3,.26c.65.63,1.25,1.3,2.22,2.32.42-.59.72-1.09,1.1-1.53C16.76,39,17.71,39.23,18.65,40s.75,2-1.1,3.79c-.37.36-.77.67-1.63,1.41a10.24,10.24,0,0,1,1.67,1C19.39,48,19.67,49,18.7,50s-2,.75-3.87-1.1a11.91,11.91,0,0,1-1.09-1.57c-1,1.09-1.63,1.84-2.34,2.53A1.92,1.92,0,0,1,8.56,50a1.82,1.82,0,0,1,.12-2.8C9.36,46.51,10.12,45.87,11.07,45Z"/><path class="cls-1" d="M12,28.76c1.67-1.67,3.09-3.14,4.58-4.55a1.87,1.87,0,0,1,3.1.38,1.71,1.71,0,0,1-.38,2.14c-1.93,1.91-3.86,3.83-5.82,5.71a1.82,1.82,0,0,1-2.75,0c-1-.9-1.95-1.84-2.86-2.82a1.73,1.73,0,0,1,0-2.61,1.88,1.88,0,0,1,2.75.1C11.1,27.6,11.5,28.14,12,28.76Z"/><polygon class="cls-1" points="44.2 18.09 25.74 18.09 25.74 1.58 28.74 1.58 28.74 15.09 44.2 15.09 44.2 18.09"/></g></g></svg>