<svg xmlns="http://www.w3.org/2000/svg" viewBox="0 0 67.43 55.02"><defs><style>.cls-1{fill:#fff;}</style></defs><title>Asset 14xxxhdpi</title><g id="Layer_2" data-name="Layer 2"><g id="Layer_1-2" data-name="Layer 1"><rect class="cls-1" x="1.5" y="13.66" width="51" height="3"/><rect class="cls-1" x="9.07" width="3" height="7.81"/><rect class="cls-1" x="41.69" width="3" height="7.81"/><path class="cls-1" d="M52.32,55A15.11,15.11,0,1,1,67.43,39.91,15.13,15.13,0,0,1,52.32,55Zm0-27.22A12.11,12.11,0,1,0,64.43,39.91,12.12,12.12,0,0,0,52.32,27.8Z"/><path class="cls-1" d="M40.81,44.11H0V2.52H54v25.3l-1.63,0h0A12.12,12.12,0,0,0,40.45,42.31ZM3,41.11H37.26q0-.6,0-1.2A15.13,15.13,0,0,1,51,24.86V5.52H3Z"/><polygon class="cls-1" points="52.32 32.6 54.7 37.41 60.01 38.19 56.17 41.93 57.08 47.23 52.32 44.73 47.57 47.23 48.48 41.93 44.63 38.19 49.95 37.41 52.32 32.6"/></g></g></svg>