<svg xmlns="http://www.w3.org/2000/svg" viewBox="0 0 63.81 50.59"><defs><style>.cls-1{fill:none;}.cls-2{fill:#fff;}</style></defs><title>Asset 12xxxhdpi</title><g id="Layer_2" data-name="Layer 2"><g id="Layer_1-2" data-name="Layer 1"><circle class="cls-1" cx="47.83" cy="34.56" r="14.48"/><path class="cls-2" d="M35.08,37.5H3a3,3,0,0,1-3-3V3A3,3,0,0,1,3,0H26.81a3,3,0,0,1,2,.8l5,4.63H46.33a3,3,0,0,1,3,3V18.65a3,3,0,0,1-2.68,3A12.91,12.91,0,0,0,34.85,34.56c0,.42,0,.86.06,1.3ZM26.81,3H3V34.5H31.85A15.89,15.89,0,0,1,46.37,18.64l0-10.22H33.86a3,3,0,0,1-2-.8Z"/><path class="cls-2" d="M47.83,50.59a16,16,0,1,1,16-16A16,16,0,0,1,47.83,50.59Zm0-29a13,13,0,1,0,13,13A13,13,0,0,0,47.83,21.63Z"/><path class="cls-2" d="M42.56,41.12a1.5,1.5,0,0,1-1.06-2.56l9.62-9.68A1.5,1.5,0,0,1,53.24,31l-9.62,9.68A1.5,1.5,0,0,1,42.56,41.12Z"/><path class="cls-2" d="M52.47,40.19a1.5,1.5,0,0,1-1.5-1.5V31.1H43.9a1.5,1.5,0,0,1,0-3h8.57A1.5,1.5,0,0,1,54,29.6v9.09A1.5,1.5,0,0,1,52.47,40.19Z"/></g></g></svg>