<svg xmlns="http://www.w3.org/2000/svg" viewBox="0 0 18 18"><defs><style>.cls-1{fill:#f4f4f4;}.cls-2{fill:#dcdcdc;}.cls-3{fill:#999;}</style></defs><title>Asset 3xxxhdpi</title><g id="Layer_2" data-name="Layer 2"><g id="Layer_1-2" data-name="Layer 1"><circle class="cls-1" cx="9" cy="9" r="9"/><path class="cls-2" d="M9,.84A8.16,8.16,0,1,1,.84,9,8.17,8.17,0,0,1,9,.84M9,0a9,9,0,1,0,9,9A9,9,0,0,0,9,0Z"/><path class="cls-3" d="M9,12.19a.76.76,0,0,0-.75.74.74.74,0,1,0,1.48,0A.76.76,0,0,0,9,12.19Z"/><path class="cls-3" d="M11.38,5.63A2.83,2.83,0,0,0,8.25,4.4,2.86,2.86,0,0,0,6.18,7.05c0,.26.09.52.36.56a.79.79,0,0,0,.6-.14,1,1,0,0,0,.18-.58,1.7,1.7,0,1,1,3,1.35A8.2,8.2,0,0,1,9,9.43a1.14,1.14,0,0,0-.51,1c0,.18,0,.5,0,.52a.54.54,0,1,0,1.07-.08A.93.93,0,0,1,10,10,7.34,7.34,0,0,0,11.15,9,2.82,2.82,0,0,0,11.38,5.63Z"/></g></g></svg>