<svg xmlns="http://www.w3.org/2000/svg" viewBox="0 0 30 30"><defs><style>.cls-1{fill:#fff;}</style></defs><title>Asset 10xxxhdpi</title><g id="Layer_2" data-name="Layer 2"><g id="Layer_1-2" data-name="Layer 1"><path class="cls-1" d="M15,0A15,15,0,1,0,30,15,15,15,0,0,0,15,0Zm8.3,19.78h-.17a1.63,1.63,0,0,1-.94-.4,5.16,5.16,0,0,1-.71-.66c-.46-.49-.95-1-1.42-1.44l-4.4-4.44c-.13-.13-.22-.28-.44-.07-2,2-4,4-6,6a5.33,5.33,0,0,1-.66.59,1.63,1.63,0,0,1-.89.37H7.5a1.64,1.64,0,0,1-1.6-1.64,1.76,1.76,0,0,1,.63-1.29c.56-.6,1.14-1.18,1.72-1.77L14,9.29a1.74,1.74,0,0,1,2.74,0l7.53,7.53a2.18,2.18,0,0,1,.32.4,1.64,1.64,0,0,1-1.32,2.55Z"/></g></g></svg>