<svg xmlns="http://www.w3.org/2000/svg" viewBox="0 0 15 15"><defs><style>.cls-1{fill:#1e90ff;}</style></defs><title>Asset 9xxxhdpi</title><g id="Layer_2" data-name="Layer 2"><g id="Layer_1-2" data-name="Layer 1"><path class="cls-1" d="M7.51,0A7.5,7.5,0,1,1,0,7.22,7.49,7.49,0,0,1,7.51,0Zm0,13.71A6.21,6.21,0,1,0,1.3,7.43,6.19,6.19,0,0,0,7.47,13.71Z"/><path class="cls-1" d="M6.86,3.17a.61.61,0,0,1,.42-.63A.62.62,0,0,1,8,2.7a.78.78,0,0,1,.18.58c0,1.17,0,2.33,0,3.5a.41.41,0,0,0,.27.45c.61.29,1.22.6,1.82.92a.64.64,0,0,1,.35.82.65.65,0,0,1-1,.31C9,9,8.37,8.6,7.71,8.34a1.21,1.21,0,0,1-.86-1.39c.05-.54,0-1.09,0-1.64C6.86,5.31,6.86,3.88,6.86,3.17Z"/></g></g></svg>