<svg xmlns="http://www.w3.org/2000/svg" viewBox="0 0 36 36"><defs><style>.cls-1{fill:#e62118;}.cls-2{fill:#fff;}</style></defs><title>Asset 4xxxhdpi</title><g id="Layer_2" data-name="Layer 2"><g id="Layer_1-2" data-name="Layer 1"><circle class="cls-1" cx="18" cy="18" r="18"/><path class="cls-2" d="M25.25,25.42v1a1,1,0,0,1-1,.62Q18,27,11.78,27a1,1,0,0,1-1-.7v-.81c0-.1,0-.19,0-.29q.12-2,.23-4a1,1,0,0,1,.56-1,.47.47,0,0,0,.33-.53c0-.83,0-1.67,0-2.5A6.12,6.12,0,0,1,19,11a6.19,6.19,0,0,1,5.11,5.74c0,1,0,1.91,0,2.87a.53.53,0,0,0,.34.58A.83.83,0,0,1,25,21c0,.45.05.91.08,1.36Q25.15,23.88,25.25,25.42ZM18,20.1h3.93c.32,0,.43-.11.43-.43,0-.86,0-1.72,0-2.57A4.64,4.64,0,0,0,22,15.35a4.33,4.33,0,0,0-8.27,1.2c-.11,1,0,2-.06,3,0,.58,0,.58.56.58Zm0,5.14h5c.2,0,.41,0,.39-.29-.05-.86-.1-1.71-.14-2.57,0-.35-.15-.48-.52-.48H13.22c-.44,0-.5.05-.52.51,0,.8-.05,1.59-.11,2.39,0,.34.07.45.42.44C14.67,25.24,16.34,25.24,18,25.24Z"/><path class="cls-2" d="M20.95,10.18a4.37,4.37,0,0,1,1.41-2,.8.8,0,0,1,.91.21.82.82,0,0,1,.18,1,7.35,7.35,0,0,1-1,1.48.77.77,0,0,1-.94.2A.86.86,0,0,1,20.95,10.18Z"/><path class="cls-2" d="M15,10.11a.84.84,0,0,1-.53.9.76.76,0,0,1-.94-.2,8.29,8.29,0,0,1-1-1.48.86.86,0,0,1,1.33-1A8.28,8.28,0,0,1,15,9.9.45.45,0,0,1,15,10.11Z"/><path class="cls-2" d="M17.13,8.53c0-.21,0-.42,0-.62A.9.9,0,0,1,18,7a.87.87,0,0,1,.87.82,6.35,6.35,0,0,1,0,1.46.87.87,0,0,1-1.74,0c0-.24,0-.49,0-.73Z"/><path class="cls-2" d="M14.48,16.7a3.48,3.48,0,0,1,3.24-3.3.93.93,0,0,1,1.05.84c0,.46-.32.83-.9.92a1.68,1.68,0,0,0-1.62,1.6,1.11,1.11,0,0,1-.24.64.88.88,0,0,1-1,.24A.94.94,0,0,1,14.48,16.7Z"/></g></g></svg>