<svg xmlns="http://www.w3.org/2000/svg" viewBox="0 0 15 15"><defs><style>.cls-1{fill:#1e90ff;}</style></defs><title>Asset 2xxxhdpi</title><g id="Layer_2" data-name="Layer 2"><g id="Layer_1-2" data-name="Layer 1"><path class="cls-1" d="M7.52,0A7.5,7.5,0,1,0,15,7.51,7.52,7.52,0,0,0,7.52,0Zm0,14A6.5,6.5,0,1,1,14,7.5,6.47,6.47,0,0,1,7.5,14Z" transform="translate(0)"/><path class="cls-1" d="M7.51,10.34a.67.67,0,0,0-.66.66.66.66,0,1,0,1.31,0A.68.68,0,0,0,7.51,10.34Z" transform="translate(0)"/><path class="cls-1" d="M6.84,3.43A2.53,2.53,0,0,0,5,5.78c0,.23.08.46.32.5a.7.7,0,0,0,.53-.12A.85.85,0,0,0,6,5.64a1.51,1.51,0,1,1,2.62,1.2,7.27,7.27,0,0,1-1.17,1,1,1,0,0,0-.45.9C7,9,7,9.23,7,9.25a.48.48,0,1,0,1-.07.83.83,0,0,1,.42-.76,6.51,6.51,0,0,0,1-1,2.5,2.5,0,0,0-2.57-4Z" transform="translate(0)"/></g></g></svg>