<svg xmlns="http://www.w3.org/2000/svg" viewBox="0 0 68.47 120"><defs><style>.cls-1{fill:#fff;}</style></defs><title>Asset 1xxxhdpi</title><g id="Layer_2" data-name="Layer 2"><g id="Layer_1-2" data-name="Layer 1"><path class="cls-1" d="M62.42,0H6.06A6.07,6.07,0,0,0,0,6.06V113.94A6.07,6.07,0,0,0,6.06,120H62.42a6.07,6.07,0,0,0,6.06-6.06V6.06A6.07,6.07,0,0,0,62.42,0ZM25.6,8H42.87a1.76,1.76,0,1,1,0,3.51H25.6A1.76,1.76,0,1,1,25.6,8ZM11.22,8A1.76,1.76,0,1,1,9.46,9.78,1.76,1.76,0,0,1,11.22,8ZM34.24,116A4.74,4.74,0,1,1,39,111.21,4.74,4.74,0,0,1,34.24,116Zm30-14.71h-60V18.75h60Z"/></g></g></svg>