<svg xmlns="http://www.w3.org/2000/svg" viewBox="0 0 81 87.22"><defs><style>.cls-1{fill:#1e90ff;}</style></defs><title>Asset 2xxxhdpi</title><g id="Layer_2" data-name="Layer 2"><g id="Layer_1-2" data-name="Layer 1"><circle class="cls-1" cx="40.5" cy="53.29" r="9.85"/><path class="cls-1" d="M55.91,84.37,54.24,73.28c-1.18-3.09-3.45-7-8.92-7.35H35.69c-5,.14-8.2,3.91-9.09,9.09l-1.28,9.36h0a.52.52,0,0,0,0,.1c0,1.52,6.84,2.75,15.29,2.75S55.91,86,55.91,84.47a.52.52,0,0,0,0-.1Z"/><circle class="cls-1" cx="15.17" cy="48.47" r="9.85"/><path class="cls-1" d="M21,80.31a23.57,23.57,0,0,1,5.85-15.62A9,9,0,0,0,20,61.1H10.36c-5,.14-8.2,3.91-9.09,9.09L0,79.54H0a.52.52,0,0,0,0,.1c0,1.52,6.84,2.75,15.29,2.75,2.06,0,4-.07,5.82-.21C21.06,81.57,21,80.94,21,80.31Z"/><circle class="cls-1" cx="65.83" cy="48.47" r="9.85"/><path class="cls-1" d="M60,80.31a23.57,23.57,0,0,0-5.85-15.62A9,9,0,0,1,61,61.1h9.63c5,.14,8.2,3.91,9.09,9.09L81,79.54h0a.52.52,0,0,1,0,.1c0,1.52-6.84,2.75-15.29,2.75-2.06,0-4-.07-5.82-.21C59.94,81.57,60,80.94,60,80.31Z"/><path class="cls-1" d="M40.6,0A18.25,18.25,0,1,0,58.85,18.25,18.25,18.25,0,0,0,40.6,0Zm.22,28.58a2.05,2.05,0,1,1,2.05-2.05A2.05,2.05,0,0,1,40.82,28.58Zm3.34-8.86s-1.69.69-1.51,1.8A1.32,1.32,0,0,1,41.89,23s-1.87.65-2.41-.4a2.57,2.57,0,0,1-.18-2.34s.35-2.12,3.23-3.82A3.07,3.07,0,0,0,43.82,14s.13-2.16-2.7-2.31c0,0-2.93-.31-3.47,2.18a1.82,1.82,0,0,1-1.93,1.41s-2,.13-1.8-1.64c0,0,.51-5.52,6.85-5.67,0,0,6.48,0,6.47,6.11A6.06,6.06,0,0,1,44.15,19.73Z"/></g></g></svg>