<svg xmlns="http://www.w3.org/2000/svg" viewBox="0 0 40.08 27.58"><defs><style>.cls-1{fill:#fff;}</style></defs><title>Asset 1xxxhdpi</title><g id="Layer_2" data-name="Layer 2"><g id="Isolation_Mode" data-name="Isolation Mode"><path class="cls-1" d="M37.46,27.58H2.63A2.63,2.63,0,0,1,0,25V2.63A2.63,2.63,0,0,1,2.63,0H37.46a2.63,2.63,0,0,1,2.63,2.63V25A2.63,2.63,0,0,1,37.46,27.58ZM2.63,2A.63.63,0,0,0,2,2.63V25a.63.63,0,0,0,.63.63H37.46a.63.63,0,0,0,.63-.62V2.63A.63.63,0,0,0,37.46,2Z"/><path class="cls-1" d="M12.17,12.88H6.83a2.09,2.09,0,0,1-2.08-2.08V7.29A2.09,2.09,0,0,1,6.83,5.21h5.33a2.09,2.09,0,0,1,2.08,2.08v3.5A2.09,2.09,0,0,1,12.17,12.88ZM6.83,7.21a.09.09,0,0,0-.08.08v3.5a.09.09,0,0,0,.08.08h5.33a.09.09,0,0,0,.08-.08V7.29a.09.09,0,0,0-.08-.08Z"/><rect class="cls-1" x="21.5" y="7.08" width="13" height="0.96"/><rect class="cls-1" x="5.54" y="17.12" width="5.98" height="0.96"/><rect class="cls-1" x="5.54" y="21.09" width="13.01" height="0.96"/><rect class="cls-1" x="13.6" y="17.12" width="5.98" height="0.96"/><rect class="cls-1" x="21.5" y="17.12" width="5.98" height="0.96"/><rect class="cls-1" x="29.53" y="17.12" width="5.98" height="0.96"/></g></g></svg>