<svg xmlns="http://www.w3.org/2000/svg" viewBox="0 0 37.08 27.58"><defs><style>.cls-1{fill:#fff;}</style></defs><title>Asset 1xxxhdpi</title><g id="Layer_2" data-name="Layer 2"><g id="Isolation_Mode" data-name="Isolation Mode"><path class="cls-1" d="M34.46,27.58H2.63A2.63,2.63,0,0,1,0,25V2.63A2.63,2.63,0,0,1,2.63,0H34.46a2.63,2.63,0,0,1,2.63,2.63V25A2.63,2.63,0,0,1,34.46,27.58ZM2.63,2A.63.63,0,0,0,2,2.63V25a.63.63,0,0,0,.63.63H34.46a.63.63,0,0,0,.63-.62V2.63A.63.63,0,0,0,34.46,2Z"/><rect class="cls-1" x="2" y="7.58" width="34.08" height="2.92"/><rect class="cls-1" x="4.5" y="14.75" width="8" height="0.83"/></g></g></svg>