<svg xmlns="http://www.w3.org/2000/svg" viewBox="0 0 45 45.11"><defs><style>.cls-1{fill:#ffe603;}.cls-2{opacity:0.24;}.cls-3{fill:#3d3137;}</style></defs><title>Asset 3xxxhdpi</title><g id="Layer_2" data-name="Layer 2"><g id="Layer_1-2" data-name="Layer 1"><path class="cls-1" d="M22.5,45.06A22.53,22.53,0,1,0,0,22.53,22.51,22.51,0,0,0,22.5,45.06"/><path class="cls-2" d="M22.39.11v45a22.5,22.5,0,0,0,0-45Z"/><path class="cls-3" d="M22.39,11c-7.72,0-14,5-14,11.07,0,3.56,2.13,6.73,5.43,8.76a1.12,1.12,0,0,1,.22,1.31,13.14,13.14,0,0,1-3,4.47s-.21.32.81.1a29.36,29.36,0,0,0,7.8-3.48,1.27,1.27,0,0,1,.65-.11l.79,0q.65,0,1.32,0c7.72,0,14-5,14-11.07S30.12,11,22.39,11Z"/><path class="cls-1" d="M16.59,19H12.51a.57.57,0,1,0,0,1.13H14V25a.62.62,0,1,0,1.24,0v-4.8h1.4a.57.57,0,1,0,0-1.13Z"/><path class="cls-1" d="M22.13,24.68,19.8,19.44h0a1.07,1.07,0,0,0-.29-.32h0l-.09-.06h0a.56.56,0,0,0-.46,0h0l-.1.06h0a1.08,1.08,0,0,0-.29.32l-2.33,5.25a.7.7,0,0,0,0,.51.6.6,0,0,0,.32.36.57.57,0,0,0,.24.05.68.68,0,0,0,.61-.42l.42-.95h2.77l.42.95a.68.68,0,0,0,.61.42.57.57,0,0,0,.24-.05.6.6,0,0,0,.32-.36A.7.7,0,0,0,22.13,24.68Zm-3.9-1.44.94-2.13.94,2.13Z"/><path class="cls-1" d="M26.69,24.55H23.93V19.79a.63.63,0,1,0-1.26,0v5.27h0a.55.55,0,0,0,.63.6h3.39a.55.55,0,0,0,0-1.11Z"/><path class="cls-1" d="M32.51,24.45l-2-2.54L32,20.34a.76.76,0,0,0,.15-1,.51.51,0,0,0-.37-.14,1,1,0,0,0-.66.3L29,21.69V19.86a.7.7,0,1,0-1.37,0v5a.7.7,0,1,0,1.37,0V23.45l.6-.61,1.91,2.42a.85.85,0,0,0,.64.34.56.56,0,0,0,.35-.12.59.59,0,0,0,.21-.46A.88.88,0,0,0,32.51,24.45Z"/></g></g></svg>