<svg xmlns="http://www.w3.org/2000/svg" viewBox="0 0 78 72.65"><defs><style>.cls-1{fill:#1e90ff;}</style></defs><title>Asset 1xxxhdpi</title><g id="Layer_2" data-name="Layer 2"><g id="Layer_1-2" data-name="Layer 1"><path class="cls-1" d="M22.88,44.61,60.06,66a4.44,4.44,0,0,0,6.68-3.42q0-.16,0-.33V4.59A4.82,4.82,0,0,0,64.85.76,3.86,3.86,0,0,0,60.59.53L22.88,22.11Z"/><path class="cls-1" d="M70.69,24.19v18.5a9.51,9.51,0,0,0,0-18.5Z"/><path class="cls-1" d="M10.74,22.7h8.38a0,0,0,0,1,0,0V43.91a0,0,0,0,1,0,0H10.47A10.47,10.47,0,0,1,0,33.44v0A10.74,10.74,0,0,1,10.74,22.7Z"/><path class="cls-1" d="M5.73,47.55H13a.27.27,0,0,1,.27.27V68.9a3.75,3.75,0,0,1-3.75,3.75h0A3.75,3.75,0,0,1,5.73,68.9V47.55a0,0,0,0,1,0,0Z"/></g></g></svg>