<svg xmlns="http://www.w3.org/2000/svg" viewBox="0 0 81 73.35"><defs><style>.cls-1{fill:#1e90ff;}</style></defs><title>Asset 4xxxhdpi</title><g id="Layer_2" data-name="Layer 2"><g id="Layer_1-2" data-name="Layer 1"><path class="cls-1" d="M56.21,49.68h-.84v3.55a3.35,3.35,0,0,1-3.3,3.3H20.27l-1.73,1.69-5.25,5.14V56.7l-4.72,0c-2-.3-2.63-1.93-2.63-3.48V27.68A2.75,2.75,0,0,1,8.66,25h5.49V19H8.66A8.69,8.69,0,0,0,0,27.68V53.23a9.28,9.28,0,0,0,7.35,9v8a3,3,0,0,0,3,3,3,3,0,0,0,2-.78L22.7,62.48H52.08a9.28,9.28,0,0,0,9.13-7.8Z"/><path class="cls-1" d="M72.34,0H28.92a9.27,9.27,0,0,0-9.24,9.24v25a9.27,9.27,0,0,0,9.24,9.24H58.3L68.62,53.55a3,3,0,0,0,5-2.24v-8a9.28,9.28,0,0,0,7.35-9V8.66A8.69,8.69,0,0,0,72.34,0ZM50.63,35.68a2.77,2.77,0,1,1,2.77-2.77A2.77,2.77,0,0,1,50.63,35.68Zm4.51-12s-2.29.94-2,2.43a1.78,1.78,0,0,1-1,2s-2.52.88-3.25-.54a3.47,3.47,0,0,1-.24-3.15s.48-2.86,4.37-5.16a4.14,4.14,0,0,0,1.73-3.33S54.86,13,51,12.81c0,0-4-.42-4.68,2.95a2.46,2.46,0,0,1-2.6,1.91s-2.63.17-2.43-2.22c0,0,.69-7.45,9.25-7.66,0,0,8.75,0,8.73,8.25A8.18,8.18,0,0,1,55.14,23.73Z"/></g></g></svg>