<svg xmlns="http://www.w3.org/2000/svg" viewBox="0 0 40.83 27.58"><defs><style>.cls-1{fill:#fff;}</style></defs><title>Asset 1xxxhdpi</title><g id="Layer_2" data-name="Layer 2"><g id="Isolation_Mode" data-name="Isolation Mode"><rect class="cls-1" x="1" y="6.92" width="30.08" height="2"/><path class="cls-1" d="M26.81,16.72l-5.67-5.92a1,1,0,0,0-1.4,0L13.4,16.69l1.37,1.46,4.65-4.34V27.58h2V14l3.94,4.12Z"/><path class="cls-1" d="M38.21,0H2.63A2.63,2.63,0,0,0,0,2.63V23.71a2.63,2.63,0,0,0,2.63,2.63h15v-2h-15A.63.63,0,0,1,2,23.71V2.63A.63.63,0,0,1,2.63,2H38.21a.63.63,0,0,1,.63.63V23.71a.63.63,0,0,1-.62.63H23.08v2H38.21a2.63,2.63,0,0,0,2.63-2.62V2.63A2.63,2.63,0,0,0,38.21,0Z"/></g></g></svg>