<svg xmlns="http://www.w3.org/2000/svg" viewBox="0 0 16 16.01"><defs><style>.cls-1{fill:#999;}</style></defs><title>Asset 1xxxhdpi</title><g id="Layer_2" data-name="Layer 2"><g id="Layer_1-2" data-name="Layer 1"><path class="cls-1" d="M14,6.39l-.26.22c-.5.5-1,1-1.51,1.5a.66.66,0,0,0-.21.52c0,1.69,0,3.38,0,5.06,0,.27-.08.33-.34.33H2.33C2.08,14,2,14,2,13.69Q2,9,2,4.34c0-.27.06-.36.34-.35H7.4a.64.64,0,0,0,.5-.2L9.38,2.31c.07-.07.12-.14.21-.26a2.31,2.31,0,0,0-.29,0H1.37A1.33,1.33,0,0,0,0,3.4Q0,9,0,14.58A1.68,1.68,0,0,0,0,15a1.36,1.36,0,0,0,1.42,1H12.53A1.36,1.36,0,0,0,14,14.52q0-3.89,0-7.78C14,6.66,14,6.57,14,6.39Z"/><path class="cls-1" d="M15.67,1.09a6.29,6.29,0,0,0-.62-.64,1.13,1.13,0,0,0-1.82,0L10.48,3.23c-2,2-4,4-5.95,6a1.39,1.39,0,0,0-.36.69c-.09.55-.12,1.1-.16,1.66,0,.36.12.49.48.45s.93-.11,1.39-.12a1.37,1.37,0,0,0,1-.43l8.78-8.77A1.14,1.14,0,0,0,16,1.86,2.43,2.43,0,0,0,15.67,1.09Z"/></g></g></svg>