<svg xmlns="http://www.w3.org/2000/svg" viewBox="0 0 16 16.38"><defs><style>.cls-1{fill:#999;}</style></defs><title>Asset 1xxxhdpi</title><g id="Layer_2" data-name="Layer 2"><g id="Layer_1-2" data-name="Layer 1"><path class="cls-1" d="M2,4.4H.9a.81.81,0,0,1-.9-.8.8.8,0,0,1,.91-.83H5c0-.16,0-.3,0-.44A2.17,2.17,0,0,1,7.13,0C7.74,0,8.35,0,9,0a2.12,2.12,0,0,1,2,2.16c0,.18,0,.36,0,.57h4.14a.82.82,0,1,1,.08,1.63c-.38,0-.75,0-1.16,0,0,.15,0,.27,0,.39,0,3.06,0,6.11,0,9.17a3,3,0,0,1-.22,1.18,2.06,2.06,0,0,1-2.05,1.24c-2.5,0-5,0-7.49,0A2.15,2.15,0,0,1,2,14.05Q2,9.42,2,4.79ZM10.4,9.79c0,1.11,0,2.23,0,3.34a.64.64,0,0,0,.63.69.63.63,0,0,0,.68-.64q0-3.38,0-6.76a.64.64,0,0,0-.77-.63.67.67,0,0,0-.54.72C10.4,7.6,10.4,8.7,10.4,9.79Zm-4.82,0c0-1.09,0-2.19,0-3.28a.67.67,0,1,0-1.32,0q0,3.27,0,6.53a1,1,0,0,0,.14.49.61.61,0,0,0,.72.24.65.65,0,0,0,.46-.67C5.58,12,5.58,10.92,5.58,9.82Zm1.75,0q0,.87,0,1.74c0,.52,0,1,0,1.57a.65.65,0,0,0,.77.69c.34-.05.54-.33.54-.78q0-3.24,0-6.47a1.32,1.32,0,0,0,0-.26.64.64,0,0,0-.75-.52.67.67,0,0,0-.54.75C7.33,7.63,7.34,8.72,7.34,9.82Zm2-7.07c0-.18,0-.34,0-.49a.55.55,0,0,0-.63-.61H7.21a.51.51,0,0,0-.56.5,5.66,5.66,0,0,0,0,.6Z"/></g></g></svg>