<svg xmlns="http://www.w3.org/2000/svg" viewBox="0 0 18 14.3"><defs><style>.cls-1{fill:#6e6e6e;}</style></defs><title>Asset 1xxxhdpi</title><g id="Layer_2" data-name="Layer 2"><g id="Layer_1-2" data-name="Layer 1"><path class="cls-1" d="M14.23,6.6c-.45.47-.83.9-1.26,1.28A1.32,1.32,0,0,0,12.5,9c0,1.15,0,2.31,0,3.48H1.83V1.8h9c.16,0,.38,0,.48-.08C11.92,1.2,12.45.64,13,0l-.4,0H1.9A1.74,1.74,0,0,0,0,1.95Q0,7.07,0,12.19c0,.19,0,.39,0,.58a1.45,1.45,0,0,0,1,1.37,3.14,3.14,0,0,0,1,.14H12.23a2.15,2.15,0,0,0,.58,0,2.7,2.7,0,0,0,.83-.34,1.74,1.74,0,0,0,.66-1.51q0-2.74,0-5.48A2,2,0,0,0,14.23,6.6Z"/><path class="cls-1" d="M14.47.66c-.11,0-.32.08-.42.18A24.08,24.08,0,0,0,9.2,6.66c-.49.89-.62.88-1.27.09a19.39,19.39,0,0,0-3.09-3.1c-.42-.32-.64-.25-.77.25a14.41,14.41,0,0,1-.38,1.45.9.9,0,0,0,.37,1.14A26.93,26.93,0,0,1,6.32,8.65c.65.71,1.19,1.5,1.79,2.26.38.48.52.48.88,0s.52-.66.76-1a31.37,31.37,0,0,1,6.9-7.11c.43-.3.84-.63,1.35-1C16.74,1.39,15.61,1,14.47.66Z"/></g></g></svg>