<svg xmlns="http://www.w3.org/2000/svg" viewBox="0 0 15 18.09"><defs><style>.cls-1{fill:#999;}</style></defs><title>Asset 1xxxhdpi</title><g id="Layer_2" data-name="Layer 2"><g id="Layer_1-2" data-name="Layer 1"><path class="cls-1" d="M14.61,16.79a1.14,1.14,0,0,1,0-2.06.94.94,0,0,0,.41-.85C15,11,15,8,15,5.1A1,1,0,0,0,13.85,4c-.81,0-1.63,0-2.44,0a.46.46,0,0,1-.53-.35A5.32,5.32,0,0,0,9,1.14,5.6,5.6,0,0,0,.5,3.35,5.43,5.43,0,0,0,1.2,9a5.56,5.56,0,0,0,2.93,2c0,.13,0,.25,0,.38,0,1.51,0,3,0,4.52a2.16,2.16,0,0,0,2.07,2.11c2.68,0,5.37,0,8.05,0a.66.66,0,0,0,.69-.51A.76.76,0,0,0,14.61,16.79ZM1.16,5.6A4.51,4.51,0,0,1,5.65,1.14,4.48,4.48,0,1,1,1.16,5.6ZM12.77,16.7l-.23,0h-6a1,1,0,0,1-.93-.51,1,1,0,0,1,.82-1.42c.88,0,1.75,0,2.63,0h3.72A2.66,2.66,0,0,0,12.77,16.7Z"/><path class="cls-1" d="M5.89,3.62a.67.67,0,0,1,.57.45.64.64,0,0,1-.14.74,6.94,6.94,0,0,1-.54.45,1.66,1.66,0,0,0-.64,1.27.34.34,0,0,0,.38.41,1.61,1.61,0,0,0,.45,0c.12,0,.31-.14.31-.22,0-.44.34-.6.62-.83A1.86,1.86,0,0,0,7.7,4.09,1.92,1.92,0,0,0,5.79,2.44,2,2,0,0,0,3.68,3.95c-.15.54,0,.68.56.68.22,0,.46,0,.55-.33A.87.87,0,0,1,5.89,3.62Z"/><path class="cls-1" d="M6.44,8.12a.71.71,0,0,0-.71-.71.7.7,0,0,0-.7.71.7.7,0,0,0,.72.7A.72.72,0,0,0,6.44,8.12Z"/></g></g></svg>