<svg xmlns="http://www.w3.org/2000/svg" viewBox="0 0 15 16.4"><defs><style>.cls-1{fill:#999;}</style></defs><title>Asset 1xxxhdpi</title><g id="Layer_2" data-name="Layer 2"><g id="Layer_1-2" data-name="Layer 1"><path class="cls-1" d="M12.63,0H2.37A2.37,2.37,0,0,0,0,2.37v8.25A2.37,2.37,0,0,0,2.37,13H7.3c0,.07,3.43,3.32,3.43,3.32a.36.36,0,0,0,.6-.26V13h1.3A2.37,2.37,0,0,0,15,10.62V2.37A2.37,2.37,0,0,0,12.63,0ZM8.11,10a.81.81,0,0,1-1.37-.57A.79.79,0,0,1,7,8.83a.79.79,0,0,1,1.14,0,.79.79,0,0,1,.24.57A.78.78,0,0,1,8.11,10ZM9.71,5.85a1.3,1.3,0,0,1-.44.55,4,4,0,0,1-.51.28A1.68,1.68,0,0,0,8.33,7a.55.55,0,0,0-.18.42v.53H6.86V7.47A2.07,2.07,0,0,1,7,6.68a.94.94,0,0,1,.33-.45L7.75,6l.43-.2a.71.71,0,0,0,.33-.3,1.11,1.11,0,0,0,.13-.57.91.91,0,0,0-.33-.71,1.18,1.18,0,0,0-.81-.29,1.12,1.12,0,0,0-.88.37,1.05,1.05,0,0,0-.25.9H5.1a2.21,2.21,0,0,1,.6-1.79A2.36,2.36,0,0,1,7.5,2.66a2.4,2.4,0,0,1,1.7.65,2.11,2.11,0,0,1,.69,1.6A2.16,2.16,0,0,1,9.71,5.85Z"/></g></g></svg>