<svg xmlns="http://www.w3.org/2000/svg" viewBox="0 0 15 15.01"><defs><style>.cls-1{fill:#999;}</style></defs><title>Asset 1xxxhdpi</title><g id="Layer_2" data-name="Layer 2"><g id="Layer_1-2" data-name="Layer 1"><path class="cls-1" d="M0,7.67A7.43,7.43,0,0,1,7.25,0,7.44,7.44,0,0,1,15,7.56,7.42,7.42,0,0,1,7.75,15,7.43,7.43,0,0,1,0,7.67ZM7.55,6.4l-.29-.27L5.55,4.42a1.6,1.6,0,0,0-.36-.28.81.81,0,0,0-1,.22.78.78,0,0,0,.07,1c.18.19.36.37.55.55L6.38,7.48l-.25.27L4.35,9.52a.86.86,0,0,0-.32.82.78.78,0,0,0,1.29.47c.38-.32.72-.7,1.07-1L7.56,8.6A4.72,4.72,0,0,0,7.89,9c.59.6,1.17,1.2,1.78,1.77a.73.73,0,0,0,1.08,0,.81.81,0,0,0,0-1.12c-.19-.21-.39-.4-.59-.59L8.64,7.53l.28-.3,1.8-1.8a.8.8,0,0,0,.06-1.14.81.81,0,0,0-1.19,0c-.19.18-.37.36-.55.55Z"/></g></g></svg>