<svg xmlns="http://www.w3.org/2000/svg" viewBox="0 0 59.93 60"><defs><style>.cls-1{fill:#fff;}.cls-2{fill:#2bbf13;fill-rule:evenodd;}</style></defs><title>Asset 1xxxhdpi</title><g id="Layer_2" data-name="Layer 2"><g id="Layer_1-2" data-name="Layer 1"><circle class="cls-1" cx="29.94" cy="30.74" r="24.97"/><path class="cls-2" d="M32.24,26.7A3.48,3.48,0,0,0,28.6,30a3.6,3.6,0,0,0,7.18,0A3.5,3.5,0,0,0,32.24,26.7Zm-.11,4.62a1.21,1.21,0,0,1-1.33-1.41,1.28,1.28,0,0,1,1.44-1.35c.89,0,1.32.57,1.33,1.55C33.51,30.91,33,31.33,32.13,31.32Z"/><path class="cls-2" d="M22,27.23c-1.15-.9-2.37-.77-3.76.13,0-1.07,0-1.92,0-2.78s-.7-.5-1.1-.53-1-.25-1,.54q0,3.91,0,7.81c0,.39.08.61.54.61,1.13,0,2.27-.33,3.37.22.15.08.4,0,.6-.07a2.83,2.83,0,0,0,2.42-2.34A3.53,3.53,0,0,0,22,27.23Zm-2.39,4A1.13,1.13,0,0,1,18.37,30a1.15,1.15,0,0,1,1.27-1.31c.88,0,1.24.48,1.31,1.29A1.18,1.18,0,0,1,19.6,31.27Z"/><path class="cls-2" d="M27,29.46c0-.91,0-1.82,0-2.73A2.76,2.76,0,0,0,25.16,24c-.41-.14-1-.46-1.2,0s-.41,1.45.17,1.81a1.81,1.81,0,0,1,.81,1.89c0,1.4,0,2.81,0,4.21,0,.79.07,1.17,1,1.18s1.18-.39,1.12-1.24S27,30.25,27,29.46Z"/><path class="cls-2" d="M30,0a30,30,0,1,0,30,30A30,30,0,0,0,30,0ZM48.47,38.48c-1.21,2.77-3.36,3.81-6.32,3.58-1.72-.14-3.49.15-5.19-.07-2.15-.28-3.3.43-3.9,2.53a44.35,44.35,0,0,1-1.93,4.67,3.06,3.06,0,0,1-.79,1.23h-.5A3.67,3.67,0,0,1,28.93,49c-.8-1.89-1.63-3.77-2.36-5.69A1.64,1.64,0,0,0,24.71,42c-2.72.09-5.44,0-8.16,0a5,5,0,0,1-3.65-1.53c-.72-.71-.88-1.72-1.43-2.52V20.08a6.69,6.69,0,0,1,3.73-4H44.74a5.71,5.71,0,0,1,3.73,3.73Z"/><path class="cls-2" d="M43.63,26.79a39.56,39.56,0,0,1-4.12-.1,2.5,2.5,0,0,0-2.39,2.17c-.22,1.31-.44,2.79.9,3.75a3,3,0,0,0,3.74,0c0,1.08-.26,1.77-1.21,1.89S40,35.33,40,35.8c-.11.71.45.64.91.63A3,3,0,0,0,44,33.37c.1-2,0-4,0-5.95C44,27.15,44.05,26.73,43.63,26.79Zm-3.16,4.53a1.38,1.38,0,0,1,.09-2.75A1.27,1.27,0,0,1,42,29.95,1.31,1.31,0,0,1,40.46,31.32Z"/></g></g></svg>