<svg xmlns="http://www.w3.org/2000/svg" viewBox="0 0 59.93 60"><defs><style>.cls-1{fill:#ffe603;}.cls-2{fill:#3d3137;}</style></defs><title>Asset 1xxxhdpi</title><g id="Layer_2" data-name="Layer 2"><g id="Layer_1-2" data-name="Layer 1"><path class="cls-1" d="M30,60A30,30,0,1,0,0,30,30,30,0,0,0,30,60"/><path class="cls-2" d="M29.82,14.69c-10.29,0-18.63,6.6-18.63,14.74,0,4.75,2.83,9,7.23,11.66a1.5,1.5,0,0,1,.29,1.75,17.5,17.5,0,0,1-4,6s-.28.43,1.08.13a39.1,39.1,0,0,0,10.39-4.63,1.69,1.69,0,0,1,.87-.15l1,0q.87.06,1.75.07c10.29,0,18.63-6.6,18.63-14.74S40.11,14.69,29.82,14.69Z"/><path class="cls-1" d="M22.1,25.33H16.66a.76.76,0,1,0,0,1.51h1.93v6.39a.83.83,0,1,0,1.64,0V26.84H22.1a.76.76,0,1,0,0-1.51Z"/><path class="cls-1" d="M29.47,32.86l-3.1-7h0a1.42,1.42,0,0,0-.39-.43h0l-.13-.07h0a.74.74,0,0,0-.61,0h0l-.13.08h0a1.44,1.44,0,0,0-.39.42l-3.1,7a.94.94,0,0,0,0,.68A.8.8,0,0,0,22,34a.76.76,0,0,0,.32.07.9.9,0,0,0,.81-.55l.56-1.26h3.7l.56,1.26a.9.9,0,0,0,.81.55.76.76,0,0,0,.32-.07.8.8,0,0,0,.43-.48A.93.93,0,0,0,29.47,32.86ZM24.28,31l1.26-2.83L26.79,31Z"/><path class="cls-1" d="M35.55,32.7H31.87V26.36a.84.84,0,1,0-1.68,0v7h0a.73.73,0,0,0,.83.8h4.52a.74.74,0,0,0,0-1.47Z"/><path class="cls-1" d="M43.29,32.56l-2.68-3.38,2.06-2.09a1,1,0,0,0,.2-1.37.68.68,0,0,0-.49-.19,1.29,1.29,0,0,0-.88.4L38.6,28.88V26.45a.93.93,0,1,0-1.83,0v6.69a.93.93,0,1,0,1.83,0v-1.9l.8-.82,2.55,3.22a1.13,1.13,0,0,0,.86.45.75.75,0,0,0,.47-.16.78.78,0,0,0,.28-.62A1.17,1.17,0,0,0,43.29,32.56Z"/></g></g></svg>