<svg xmlns="http://www.w3.org/2000/svg" viewBox="0 0 59.93 60"><defs><style>.cls-1{fill:#79ccf0;}.cls-2{fill:#fff;}</style></defs><title>Asset 1xxxhdpi</title><g id="Layer_2" data-name="Layer 2"><g id="Layer_1-2" data-name="Layer 1"><path class="cls-1" d="M30,60A30,30,0,1,0,0,30,30,30,0,0,0,30,60"/><path class="cls-2" d="M45,22.14a12.28,12.28,0,0,1-3.54,1,6.16,6.16,0,0,0,2.71-3.41,12.25,12.25,0,0,1-3.91,1.49,6.16,6.16,0,0,0-10.65,4.22,6.06,6.06,0,0,0,.16,1.4,17.47,17.47,0,0,1-12.69-6.44A6.18,6.18,0,0,0,19,28.61a6.15,6.15,0,0,1-2.79-.77v.08a6.16,6.16,0,0,0,4.94,6,6,6,0,0,1-1.62.22,6.09,6.09,0,0,1-1.16-.11,6.16,6.16,0,0,0,5.75,4.28A12.35,12.35,0,0,1,16.45,41,12.71,12.71,0,0,1,15,40.9a17.45,17.45,0,0,0,9.44,2.77c11.33,0,17.52-9.39,17.52-17.54,0-.27,0-.54,0-.8A12.49,12.49,0,0,0,45,22.14"/></g></g></svg>