<svg xmlns="http://www.w3.org/2000/svg" viewBox="0 0 59.93 60"><defs><style>.cls-1{fill:#547bbc;}.cls-2{fill:#fff;}</style></defs><title>Asset 1xxxhdpi</title><g id="Layer_2" data-name="Layer 2"><g id="Layer_1-2" data-name="Layer 1"><path class="cls-1" d="M30,60A30,30,0,1,0,0,30,30,30,0,0,0,30,60"/><path class="cls-2" d="M22.74,24.92h3.1v-3c0-1.33,0-3.38,1-4.65A5.51,5.51,0,0,1,31.64,15a19.43,19.43,0,0,1,5.55.56l-.78,4.59a10.45,10.45,0,0,0-2.49-.37c-1.21,0-2.28.43-2.28,1.64v3.5h4.94l-.34,4.49h-4.6V45H25.83V29.41h-3.1Z"/></g></g></svg>