<svg xmlns="http://www.w3.org/2000/svg" viewBox="0 0 87 96"><defs><style>.cls-1{fill:#999;}</style></defs><title>Asset 2xxxhdpi</title><g id="Layer_2" data-name="Layer 2"><g id="Layer_1-2" data-name="Layer 1"><path class="cls-1" d="M3.42,96c-3-1.09-3.67-1.89-3.34-5.15,1.11-11,6-20.21,14-27.79a42,42,0,0,1,4-3.26c2-1.43,4-1.23,5.3.41a3.65,3.65,0,0,1-1,5.37,38.84,38.84,0,0,0-10,10.8A34.9,34.9,0,0,0,7.22,91.61C7,94,6,95.37,3.75,96Z"/><path class="cls-1" d="M58.94,54.26a43.63,43.63,0,0,1,12.62,7.5c8.64,7.55,13.95,16.92,15.3,28.39a9,9,0,0,1,0,3.24,3.52,3.52,0,0,1-6.74-.28c-.55-2.53-.71-5.17-1.49-7.62C74,71,64.21,62.08,49.18,59.19c-3.08-.59-6.33-.27-9.44-.75C27.16,56.5,19,49.16,15.55,37.14,10.88,21.08,20.95,4.55,37.33.71,52.69-2.9,69,7.72,71.81,23.29,74,35.65,70,45.71,60,53.38ZM43.51,7.45a21.73,21.73,0,0,0-21.72,22c0,11.94,9.77,21.95,21.49,22A21.81,21.81,0,0,0,65.14,29.53,21.77,21.77,0,0,0,43.51,7.45Z"/></g></g></svg>