<svg xmlns="http://www.w3.org/2000/svg" viewBox="0 0 54.4 53.25"><defs><style>.cls-1{fill:#c3c3c3;}</style></defs><title>Asset 2xxxhdpi</title><g id="Layer_2" data-name="Layer 2"><g id="Layer_1-2" data-name="Layer 1"><path class="cls-1" d="M19.6,24.5H6a6,6,0,0,1-6-6V6A6,6,0,0,1,6,0H19.6a6,6,0,0,1,6,6V18.54A6,6,0,0,1,19.6,24.5ZM6,4A2,2,0,0,0,4,6V18.54a2,2,0,0,0,2,2H19.6a2,2,0,0,0,2-2V6a2,2,0,0,0-2-2Z"/><path class="cls-1" d="M48.44,24.5H34.79a6,6,0,0,1-6-6V6a6,6,0,0,1,6-6H48.44a6,6,0,0,1,6,6V18.54A6,6,0,0,1,48.44,24.5ZM34.79,4a2,2,0,0,0-2,2V18.54a2,2,0,0,0,2,2H48.44a2,2,0,0,0,2-2V6a2,2,0,0,0-2-2Z"/><path class="cls-1" d="M19.6,53.25H6a6,6,0,0,1-6-6V34.71a6,6,0,0,1,6-6H19.6a6,6,0,0,1,6,6V47.29A6,6,0,0,1,19.6,53.25ZM6,32.75a2,2,0,0,0-2,2V47.29a2,2,0,0,0,2,2H19.6a2,2,0,0,0,2-2V34.71a2,2,0,0,0-2-2Z"/><path class="cls-1" d="M48.44,53.25H34.79a6,6,0,0,1-6-6V34.71a6,6,0,0,1,6-6H48.44a6,6,0,0,1,6,6V47.29A6,6,0,0,1,48.44,53.25ZM34.79,32.75a2,2,0,0,0-2,2V47.29a2,2,0,0,0,2,2H48.44a2,2,0,0,0,2-2V34.71a2,2,0,0,0-2-2Z"/></g></g></svg>